%TF.GenerationSoftware,KiCad,Pcbnew,9.0.0*%
%TF.CreationDate,2025-04-25T09:10:44+07:00*%
%TF.ProjectId,Final_Project_PCB,46696e61-6c5f-4507-926f-6a6563745f50,rev?*%
%TF.SameCoordinates,Original*%
%TF.FileFunction,Copper,L2,Bot*%
%TF.FilePolarity,Positive*%
%FSLAX46Y46*%
G04 Gerber Fmt 4.6, Leading zero omitted, Abs format (unit mm)*
G04 Created by KiCad (PCBNEW 9.0.0) date 2025-04-25 09:10:44*
%MOMM*%
%LPD*%
G01*
G04 APERTURE LIST*
G04 Aperture macros list*
%AMRoundRect*
0 Rectangle with rounded corners*
0 $1 Rounding radius*
0 $2 $3 $4 $5 $6 $7 $8 $9 X,Y pos of 4 corners*
0 Add a 4 corners polygon primitive as box body*
4,1,4,$2,$3,$4,$5,$6,$7,$8,$9,$2,$3,0*
0 Add four circle primitives for the rounded corners*
1,1,$1+$1,$2,$3*
1,1,$1+$1,$4,$5*
1,1,$1+$1,$6,$7*
1,1,$1+$1,$8,$9*
0 Add four rect primitives between the rounded corners*
20,1,$1+$1,$2,$3,$4,$5,0*
20,1,$1+$1,$4,$5,$6,$7,0*
20,1,$1+$1,$6,$7,$8,$9,0*
20,1,$1+$1,$8,$9,$2,$3,0*%
G04 Aperture macros list end*
%TA.AperFunction,ComponentPad*%
%ADD10C,5.500000*%
%TD*%
%TA.AperFunction,ComponentPad*%
%ADD11R,1.500000X1.050000*%
%TD*%
%TA.AperFunction,ComponentPad*%
%ADD12O,1.500000X1.050000*%
%TD*%
%TA.AperFunction,ComponentPad*%
%ADD13R,2.200000X2.200000*%
%TD*%
%TA.AperFunction,ComponentPad*%
%ADD14O,2.200000X2.200000*%
%TD*%
%TA.AperFunction,ComponentPad*%
%ADD15R,1.800000X1.800000*%
%TD*%
%TA.AperFunction,ComponentPad*%
%ADD16C,1.800000*%
%TD*%
%TA.AperFunction,ComponentPad*%
%ADD17RoundRect,0.250000X1.050000X-1.050000X1.050000X1.050000X-1.050000X1.050000X-1.050000X-1.050000X0*%
%TD*%
%TA.AperFunction,ComponentPad*%
%ADD18C,2.600000*%
%TD*%
%TA.AperFunction,ComponentPad*%
%ADD19R,1.700000X1.700000*%
%TD*%
%TA.AperFunction,ComponentPad*%
%ADD20O,1.700000X1.700000*%
%TD*%
%TA.AperFunction,ComponentPad*%
%ADD21R,1.980000X1.980000*%
%TD*%
%TA.AperFunction,ComponentPad*%
%ADD22C,1.980000*%
%TD*%
%TA.AperFunction,ComponentPad*%
%ADD23C,1.935000*%
%TD*%
%TA.AperFunction,ComponentPad*%
%ADD24C,1.600000*%
%TD*%
%TA.AperFunction,ComponentPad*%
%ADD25O,1.600000X1.600000*%
%TD*%
%TA.AperFunction,ComponentPad*%
%ADD26R,1.500000X1.500000*%
%TD*%
%TA.AperFunction,ComponentPad*%
%ADD27C,1.500000*%
%TD*%
%TA.AperFunction,ComponentPad*%
%ADD28O,1.900000X3.800000*%
%TD*%
%TA.AperFunction,ComponentPad*%
%ADD29O,3.800000X1.900000*%
%TD*%
%TA.AperFunction,ComponentPad*%
%ADD30O,1.600000X2.000000*%
%TD*%
%TA.AperFunction,ComponentPad*%
%ADD31R,2.000000X2.000000*%
%TD*%
%TA.AperFunction,ComponentPad*%
%ADD32C,2.000000*%
%TD*%
%TA.AperFunction,Conductor*%
%ADD33C,0.400000*%
%TD*%
%TA.AperFunction,Conductor*%
%ADD34C,1.000000*%
%TD*%
G04 APERTURE END LIST*
D10*
%TO.P,H3,1,1*%
%TO.N,GND*%
X154000000Y-124000000D03*
%TD*%
D11*
%TO.P,Q1,1,C*%
%TO.N,Net-(D1-A)*%
X179100000Y-98960000D03*
D12*
%TO.P,Q1,2,B*%
%TO.N,Net-(Q1-B)*%
X179100000Y-97690000D03*
%TO.P,Q1,3,E*%
%TO.N,GND*%
X179100000Y-96420000D03*
%TD*%
D13*
%TO.P,D1,1,K*%
%TO.N,+5V*%
X190100000Y-104260000D03*
D14*
%TO.P,D1,2,A*%
%TO.N,Net-(D1-A)*%
X190100000Y-114420000D03*
%TD*%
D15*
%TO.P,D2,1,K*%
%TO.N,Net-(D1-A)*%
X188100000Y-121960000D03*
D16*
%TO.P,D2,2,A*%
%TO.N,Net-(D2-A)*%
X188100000Y-119420000D03*
%TD*%
D10*
%TO.P,H4,1,1*%
%TO.N,GND*%
X154000000Y-39000000D03*
%TD*%
%TO.P,H1,1,1*%
%TO.N,GND*%
X236000000Y-39000000D03*
%TD*%
D17*
%TO.P,J1,1,Pin_1*%
%TO.N,Net-(J1-Pin_1)*%
X226100000Y-114580000D03*
D18*
%TO.P,J1,2,Pin_2*%
%TO.N,Net-(J1-Pin_2)*%
X226100000Y-109500000D03*
%TO.P,J1,3,Pin_3*%
%TO.N,Net-(J1-Pin_3)*%
X226100000Y-104420000D03*
%TD*%
D19*
%TO.P,J3,1,Pin_1*%
%TO.N,GND*%
X228000000Y-41460000D03*
D20*
%TO.P,J3,2,Pin_2*%
%TO.N,/AO_LDR*%
X228000000Y-44000000D03*
%TO.P,J3,3,Pin_3*%
%TO.N,unconnected-(J3-Pin_3-Pad3)*%
X228000000Y-46540000D03*
%TO.P,J3,4,Pin_4*%
%TO.N,+3.3V*%
X228000000Y-49080000D03*
%TD*%
D21*
%TO.P,K1,A1*%
%TO.N,+5V*%
X201000000Y-103420000D03*
D22*
%TO.P,K1,A2*%
%TO.N,Net-(D1-A)*%
X201000000Y-115420000D03*
D23*
%TO.P,K1,COM*%
%TO.N,Net-(J1-Pin_2)*%
X199000000Y-109420000D03*
D22*
%TO.P,K1,NC*%
%TO.N,Net-(J1-Pin_3)*%
X213200000Y-103420000D03*
%TO.P,K1,NO*%
%TO.N,Net-(J1-Pin_1)*%
X213200000Y-115420000D03*
%TD*%
D19*
%TO.P,J4,1,Pin_1*%
%TO.N,/AO_SOIL*%
X228000000Y-69460000D03*
D20*
%TO.P,J4,2,Pin_2*%
%TO.N,+3.3V*%
X228000000Y-72000000D03*
%TO.P,J4,3,Pin_3*%
%TO.N,GND*%
X228000000Y-74540000D03*
%TD*%
D24*
%TO.P,R1,1*%
%TO.N,/RELAY*%
X182260000Y-108420000D03*
D25*
%TO.P,R1,2*%
%TO.N,Net-(Q1-B)*%
X172100000Y-108420000D03*
%TD*%
D26*
%TO.P,U2,1,VDD*%
%TO.N,+3.3V*%
X228000000Y-83880000D03*
D27*
%TO.P,U2,2,DATA*%
%TO.N,/DHT*%
X228000000Y-86420000D03*
%TO.P,U2,3,NC*%
%TO.N,unconnected-(U2-NC-Pad3)*%
X228000000Y-88960000D03*
%TO.P,U2,4,GND*%
%TO.N,GND*%
X228000000Y-91500000D03*
%TD*%
D10*
%TO.P,H2,1,1*%
%TO.N,GND*%
X236000000Y-124000000D03*
%TD*%
D24*
%TO.P,R2,1*%
%TO.N,Net-(D2-A)*%
X172100000Y-112420000D03*
D25*
%TO.P,R2,2*%
%TO.N,+5V*%
X182260000Y-112420000D03*
%TD*%
D19*
%TO.P,J2,1,Pin_1*%
%TO.N,GND*%
X228000000Y-55420000D03*
D20*
%TO.P,J2,2,Pin_2*%
%TO.N,/ECHO*%
X228000000Y-57960000D03*
%TO.P,J2,3,Pin_3*%
%TO.N,/TRIG*%
X228000000Y-60500000D03*
%TO.P,J2,4,Pin_4*%
%TO.N,+5V*%
X228000000Y-63040000D03*
%TD*%
D28*
%TO.P,J5,1*%
%TO.N,+5V*%
X166600000Y-90270000D03*
%TO.P,J5,2*%
%TO.N,GND*%
X160670000Y-90270000D03*
D29*
%TO.P,J5,3*%
%TO.N,unconnected-(J5-Pad3)*%
X163000000Y-95000000D03*
%TD*%
D30*
%TO.P,Brd1,1,GND*%
%TO.N,GND*%
X175620000Y-77600000D03*
%TO.P,Brd1,2,VCC*%
%TO.N,+3.3V*%
X173080000Y-77600000D03*
%TO.P,Brd1,3,SCL*%
%TO.N,/SCL*%
X170540000Y-77600000D03*
%TO.P,Brd1,4,SDA*%
%TO.N,/SDA*%
X168000000Y-77600000D03*
%TD*%
D31*
%TO.P,U1,1,3V3*%
%TO.N,+3.3V*%
X191000000Y-52380000D03*
D32*
%TO.P,U1,2,GND*%
%TO.N,GND*%
X191000000Y-54920000D03*
%TO.P,U1,3,D15*%
%TO.N,unconnected-(U1-D15-Pad3)*%
X191000000Y-57460000D03*
%TO.P,U1,4,D2*%
%TO.N,unconnected-(U1-D2-Pad4)*%
X191000000Y-60000000D03*
%TO.P,U1,5,D4*%
%TO.N,/ECHO*%
X191000000Y-62540000D03*
%TO.P,U1,6,RX2*%
%TO.N,unconnected-(U1-RX2-Pad6)*%
X191000000Y-65080000D03*
%TO.P,U1,7,TX2*%
%TO.N,unconnected-(U1-TX2-Pad7)*%
X191000000Y-67620000D03*
%TO.P,U1,8,D5*%
%TO.N,/TRIG*%
X191000000Y-70160000D03*
%TO.P,U1,9,D18*%
%TO.N,unconnected-(U1-D18-Pad9)*%
X191000000Y-72700000D03*
%TO.P,U1,10,D19*%
%TO.N,unconnected-(U1-D19-Pad10)*%
X191000000Y-75240000D03*
%TO.P,U1,11,D21*%
%TO.N,/SDA*%
X191000000Y-77780000D03*
%TO.P,U1,12,RX0*%
%TO.N,unconnected-(U1-RX0-Pad12)*%
X191000000Y-80320000D03*
%TO.P,U1,13,TX0*%
%TO.N,unconnected-(U1-TX0-Pad13)*%
X191000000Y-82860000D03*
%TO.P,U1,14,D22*%
%TO.N,/SCL*%
X191000000Y-85400000D03*
%TO.P,U1,15,D23*%
%TO.N,/RELAY*%
X191000000Y-87940000D03*
%TO.P,U1,16,EN*%
%TO.N,unconnected-(U1-EN-Pad16)*%
X216400000Y-87940000D03*
%TO.P,U1,17,VP*%
%TO.N,unconnected-(U1-VP-Pad17)*%
X216400000Y-85400000D03*
%TO.P,U1,18,VN*%
%TO.N,unconnected-(U1-VN-Pad18)*%
X216400000Y-82860000D03*
%TO.P,U1,19,D34*%
%TO.N,/AO_SOIL*%
X216400000Y-80320000D03*
%TO.P,U1,20,D35*%
%TO.N,/AO_LDR*%
X216400000Y-77780000D03*
%TO.P,U1,21,D32*%
%TO.N,unconnected-(U1-D32-Pad21)*%
X216400000Y-75240000D03*
%TO.P,U1,22,D33*%
%TO.N,unconnected-(U1-D33-Pad22)*%
X216400000Y-72700000D03*
%TO.P,U1,23,D25*%
%TO.N,/DHT*%
X216400000Y-70160000D03*
%TO.P,U1,24,D26*%
%TO.N,unconnected-(U1-D26-Pad24)*%
X216400000Y-67620000D03*
%TO.P,U1,25,D27*%
%TO.N,unconnected-(U1-D27-Pad25)*%
X216400000Y-65080000D03*
%TO.P,U1,26,D14*%
%TO.N,unconnected-(U1-D14-Pad26)*%
X216400000Y-62540000D03*
%TO.P,U1,27,D12*%
%TO.N,unconnected-(U1-D12-Pad27)*%
X216400000Y-60000000D03*
%TO.P,U1,28,D13*%
%TO.N,unconnected-(U1-D13-Pad28)*%
X216400000Y-57460000D03*
%TO.P,U1,29,GND*%
%TO.N,GND*%
X216400000Y-54920000D03*
%TO.P,U1,30,VIN*%
%TO.N,+5V*%
X216400000Y-52380000D03*
%TD*%
D33*
%TO.N,/AO_SOIL*%
X227260000Y-69460000D02*
X216400000Y-80320000D01*
X228000000Y-69460000D02*
X227260000Y-69460000D01*
%TO.N,/AO_LDR*%
X222000000Y-72180000D02*
X216400000Y-77780000D01*
X230000000Y-53000000D02*
X230000000Y-65000000D01*
X230000000Y-65000000D02*
X228000000Y-67000000D01*
X222000000Y-67000000D02*
X222000000Y-72180000D01*
X228000000Y-67000000D02*
X222000000Y-67000000D01*
X226000000Y-53000000D02*
X230000000Y-53000000D01*
X226000000Y-46000000D02*
X226000000Y-53000000D01*
X228000000Y-44000000D02*
X226000000Y-46000000D01*
D34*
%TO.N,+3.3V*%
X231000000Y-49000000D02*
X230920000Y-49080000D01*
X230920000Y-49080000D02*
X228000000Y-49080000D01*
X232000000Y-49000000D02*
X231000000Y-49000000D01*
X232000000Y-49000000D02*
X232000000Y-72000000D01*
X232000000Y-72000000D02*
X228000000Y-72000000D01*
X232000000Y-72000000D02*
X232000000Y-84000000D01*
X231880000Y-83880000D02*
X228000000Y-83880000D01*
X232000000Y-38000000D02*
X232000000Y-49000000D01*
X227000000Y-38000000D02*
X232000000Y-38000000D01*
X224000000Y-41000000D02*
X227000000Y-38000000D01*
X224000000Y-47000000D02*
X224000000Y-41000000D01*
X232000000Y-84000000D02*
X231880000Y-83880000D01*
D33*
%TO.N,/SCL*%
X166400000Y-85400000D02*
X191000000Y-85400000D01*
X170540000Y-77600000D02*
X168940000Y-76000000D01*
X168940000Y-76000000D02*
X165000000Y-76000000D01*
X165000000Y-76000000D02*
X165000000Y-84000000D01*
X165000000Y-84000000D02*
X166400000Y-85400000D01*
%TO.N,/SDA*%
X189040314Y-79739686D02*
X191000000Y-77780000D01*
X170139686Y-79739686D02*
X189040314Y-79739686D01*
X168000000Y-77600000D02*
X170139686Y-79739686D01*
D34*
%TO.N,+5V*%
X180759000Y-110919000D02*
X182260000Y-112420000D01*
X180759000Y-96241000D02*
X180759000Y-110919000D01*
X184000000Y-93000000D02*
X180759000Y-96241000D01*
X181270000Y-90270000D02*
X184000000Y-93000000D01*
X166600000Y-90270000D02*
X181270000Y-90270000D01*
X200160000Y-104260000D02*
X201000000Y-103420000D01*
X190100000Y-104260000D02*
X200160000Y-104260000D01*
%TO.N,Net-(D1-A)*%
X191100000Y-115420000D02*
X190100000Y-114420000D01*
X201000000Y-115420000D02*
X191100000Y-115420000D01*
%TO.N,Net-(J1-Pin_1)*%
X225260000Y-115420000D02*
X226100000Y-114580000D01*
X213200000Y-115420000D02*
X225260000Y-115420000D01*
%TO.N,Net-(J1-Pin_2)*%
X226020000Y-109420000D02*
X226100000Y-109500000D01*
X199000000Y-109420000D02*
X226020000Y-109420000D01*
%TO.N,Net-(J1-Pin_3)*%
X225100000Y-103420000D02*
X226100000Y-104420000D01*
X213200000Y-103420000D02*
X225100000Y-103420000D01*
D33*
%TO.N,/DHT*%
X225001000Y-89419000D02*
X228000000Y-86420000D01*
X214999000Y-88520314D02*
X215897686Y-89419000D01*
X215897686Y-89419000D02*
X225001000Y-89419000D01*
X214999000Y-71561000D02*
X214999000Y-88520314D01*
X216400000Y-70160000D02*
X214999000Y-71561000D01*
%TO.N,/TRIG*%
X218479000Y-50979000D02*
X228000000Y-60500000D01*
X210181000Y-50979000D02*
X218479000Y-50979000D01*
X191000000Y-70160000D02*
X210181000Y-50979000D01*
%TO.N,/ECHO*%
X204540000Y-49000000D02*
X219040000Y-49000000D01*
X191000000Y-62540000D02*
X204540000Y-49000000D01*
X219040000Y-49000000D02*
X228000000Y-57960000D01*
D34*
%TO.N,+3.3V*%
X196380000Y-47000000D02*
X224000000Y-47000000D01*
X173080000Y-77600000D02*
X173080000Y-70300000D01*
X191000000Y-52380000D02*
X196380000Y-47000000D01*
X173080000Y-70300000D02*
X191000000Y-52380000D01*
%TO.N,+5V*%
X190100000Y-104580000D02*
X190100000Y-104260000D01*
X201000000Y-103420000D02*
X203138522Y-103420000D01*
X220000000Y-64000000D02*
X227040000Y-64000000D01*
X214000000Y-54780000D02*
X216400000Y-52380000D01*
X203138522Y-103420000D02*
X213679000Y-92879522D01*
X216400000Y-52380000D02*
X220000000Y-55980000D01*
X214000000Y-67000000D02*
X214000000Y-54780000D01*
X213679000Y-92879522D02*
X213679000Y-67321000D01*
X213679000Y-67321000D02*
X214000000Y-67000000D01*
X220000000Y-55980000D02*
X220000000Y-64000000D01*
X227040000Y-64000000D02*
X228000000Y-63040000D01*
X182260000Y-112420000D02*
X190100000Y-104580000D01*
D33*
%TO.N,Net-(D1-A)*%
X190100000Y-119960000D02*
X190100000Y-114420000D01*
X179580000Y-114420000D02*
X190100000Y-114420000D01*
X188100000Y-121960000D02*
X190100000Y-119960000D01*
X179100000Y-113940000D02*
X179580000Y-114420000D01*
X179100000Y-98960000D02*
X179100000Y-113940000D01*
%TO.N,Net-(D2-A)*%
X182000000Y-120000000D02*
X182580000Y-119420000D01*
X182580000Y-119420000D02*
X188100000Y-119420000D01*
X174420000Y-112420000D02*
X182000000Y-120000000D01*
X172100000Y-112420000D02*
X174420000Y-112420000D01*
%TO.N,+3.3V*%
X227420000Y-72000000D02*
X228000000Y-71420000D01*
%TO.N,Net-(Q1-B)*%
X177000000Y-98640000D02*
X177000000Y-102000000D01*
X177950000Y-97690000D02*
X177000000Y-98640000D01*
X172100000Y-106900000D02*
X172100000Y-108420000D01*
X179100000Y-97690000D02*
X177950000Y-97690000D01*
X177000000Y-102000000D02*
X172100000Y-106900000D01*
%TO.N,/RELAY*%
X182260000Y-102740000D02*
X187000000Y-98000000D01*
X187060000Y-87940000D02*
X191000000Y-87940000D01*
X187000000Y-98000000D02*
X187000000Y-88000000D01*
X182260000Y-108420000D02*
X182260000Y-102740000D01*
X187000000Y-88000000D02*
X187060000Y-87940000D01*
%TD*%
%TA.AperFunction,Conductor*%
%TO.N,GND*%
G36*
X227018161Y-70795007D02*
G01*
X227039082Y-70802810D01*
X227095016Y-70844681D01*
X227119433Y-70910145D01*
X227104582Y-70978418D01*
X227083431Y-71006673D01*
X226969889Y-71120215D01*
X226844951Y-71292179D01*
X226748444Y-71481585D01*
X226682753Y-71683760D01*
X226676619Y-71722490D01*
X226649500Y-71893713D01*
X226649500Y-72106287D01*
X226682754Y-72316243D01*
X226746298Y-72511811D01*
X226748444Y-72518414D01*
X226844951Y-72707820D01*
X226969890Y-72879786D01*
X227120213Y-73030109D01*
X227292179Y-73155048D01*
X227292181Y-73155049D01*
X227292184Y-73155051D01*
X227301493Y-73159794D01*
X227352290Y-73207766D01*
X227369087Y-73275587D01*
X227346552Y-73341722D01*
X227301502Y-73380762D01*
X227292443Y-73385378D01*
X227120540Y-73510272D01*
X227120535Y-73510276D01*
X226970276Y-73660535D01*
X226970272Y-73660540D01*
X226845379Y-73832442D01*
X226748904Y-74021782D01*
X226683242Y-74223870D01*
X226683242Y-74223873D01*
X226672769Y-74290000D01*
X227566988Y-74290000D01*
X227534075Y-74347007D01*
X227500000Y-74474174D01*
X227500000Y-74605826D01*
X227534075Y-74732993D01*
X227566988Y-74790000D01*
X226672769Y-74790000D01*
X226683242Y-74856126D01*
X226683242Y-74856129D01*
X226748904Y-75058217D01*
X226845379Y-75247557D01*
X226970272Y-75419459D01*
X226970276Y-75419464D01*
X227120535Y-75569723D01*
X227120540Y-75569727D01*
X227292442Y-75694620D01*
X227481782Y-75791095D01*
X227683871Y-75856757D01*
X227750000Y-75867231D01*
X227750000Y-74973012D01*
X227807007Y-75005925D01*
X227934174Y-75040000D01*
X228065826Y-75040000D01*
X228192993Y-75005925D01*
X228250000Y-74973012D01*
X228250000Y-75867230D01*
X228316126Y-75856757D01*
X228316129Y-75856757D01*
X228518217Y-75791095D01*
X228707557Y-75694620D01*
X228879459Y-75569727D01*
X228879464Y-75569723D01*
X229029723Y-75419464D01*
X229029727Y-75419459D01*
X229154620Y-75247557D01*
X229251095Y-75058217D01*
X229316757Y-74856129D01*
X229316757Y-74856126D01*
X229327231Y-74790000D01*
X228433012Y-74790000D01*
X228465925Y-74732993D01*
X228500000Y-74605826D01*
X228500000Y-74474174D01*
X228465925Y-74347007D01*
X228433012Y-74290000D01*
X229327231Y-74290000D01*
X229316757Y-74223873D01*
X229316757Y-74223870D01*
X229251095Y-74021782D01*
X229154620Y-73832442D01*
X229029727Y-73660540D01*
X229029723Y-73660535D01*
X228879464Y-73510276D01*
X228879459Y-73510272D01*
X228707555Y-73385377D01*
X228698500Y-73380763D01*
X228647706Y-73332788D01*
X228630912Y-73264966D01*
X228653451Y-73198832D01*
X228698508Y-73159793D01*
X228707816Y-73155051D01*
X228769593Y-73110167D01*
X228883734Y-73027241D01*
X228884364Y-73028108D01*
X228943419Y-73001641D01*
X228960200Y-73000500D01*
X230875500Y-73000500D01*
X230942539Y-73020185D01*
X230988294Y-73072989D01*
X230999500Y-73124500D01*
X230999500Y-82755500D01*
X230979815Y-82822539D01*
X230927011Y-82868294D01*
X230875500Y-82879500D01*
X229249751Y-82879500D01*
X229182712Y-82859815D01*
X229150485Y-82829812D01*
X229107548Y-82772457D01*
X229107546Y-82772454D01*
X229107542Y-82772451D01*
X228992335Y-82686206D01*
X228992328Y-82686202D01*
X228857482Y-82635908D01*
X228857483Y-82635908D01*
X228797883Y-82629501D01*
X228797881Y-82629500D01*
X228797873Y-82629500D01*
X228797864Y-82629500D01*
X227202129Y-82629500D01*
X227202123Y-82629501D01*
X227142516Y-82635908D01*
X227007671Y-82686202D01*
X227007664Y-82686206D01*
X226892455Y-82772452D01*
X226892452Y-82772455D01*
X226806206Y-82887664D01*
X226806202Y-82887671D01*
X226755908Y-83022517D01*
X226749501Y-83082116D01*
X226749500Y-83082135D01*
X226749500Y-84677870D01*
X226749501Y-84677876D01*
X226755908Y-84737483D01*
X226806202Y-84872328D01*
X226806206Y-84872335D01*
X226892452Y-84987544D01*
X226892455Y-84987547D01*
X227007664Y-85073793D01*
X227007671Y-85073797D01*
X227142517Y-85124091D01*
X227142516Y-85124091D01*
X227149444Y-85124835D01*
X227202127Y-85130500D01*
X227265733Y-85130499D01*
X227332770Y-85150183D01*
X227378526Y-85202986D01*
X227388470Y-85272144D01*
X227359446Y-85335700D01*
X227338619Y-85354816D01*
X227185354Y-85466171D01*
X227046174Y-85605351D01*
X227046174Y-85605352D01*
X227046172Y-85605354D01*
X226996485Y-85673741D01*
X226930476Y-85764594D01*
X226841117Y-85939970D01*
X226780290Y-86127173D01*
X226749500Y-86321577D01*
X226749500Y-86518421D01*
X226761687Y-86595368D01*
X226752732Y-86664662D01*
X226726895Y-86702447D01*
X224747162Y-88682181D01*
X224685839Y-88715666D01*
X224659481Y-88718500D01*
X217889735Y-88718500D01*
X217822696Y-88698815D01*
X217776941Y-88646011D01*
X217766997Y-88576853D01*
X217779250Y-88538205D01*
X217790566Y-88515996D01*
X217790566Y-88515995D01*
X217790568Y-88515992D01*
X217863553Y-88291368D01*
X217875867Y-88213621D01*
X217900500Y-88058097D01*
X217900500Y-87821902D01*
X217863553Y-87588631D01*
X217800926Y-87395886D01*
X217790568Y-87364008D01*
X217790566Y-87364005D01*
X217790566Y-87364003D01*
X217718513Y-87222592D01*
X217683343Y-87153567D01*
X217544517Y-86962490D01*
X217377510Y-86795483D01*
X217342872Y-86770317D01*
X217300207Y-86714989D01*
X217294228Y-86645375D01*
X217326833Y-86583580D01*
X217342873Y-86569682D01*
X217377510Y-86544517D01*
X217544517Y-86377510D01*
X217683343Y-86186433D01*
X217790568Y-85975992D01*
X217863553Y-85751368D01*
X217900500Y-85518097D01*
X217900500Y-85281902D01*
X217863553Y-85048631D01*
X217811990Y-84889939D01*
X217790568Y-84824008D01*
X217790566Y-84824005D01*
X217790566Y-84824003D01*
X217716107Y-84677870D01*
X217683343Y-84613567D01*
X217544517Y-84422490D01*
X217377510Y-84255483D01*
X217342872Y-84230317D01*
X217300207Y-84174989D01*
X217294228Y-84105375D01*
X217326833Y-84043580D01*
X217342873Y-84029682D01*
X217377510Y-84004517D01*
X217544517Y-83837510D01*
X217683343Y-83646433D01*
X217790568Y-83435992D01*
X217863553Y-83211368D01*
X217900500Y-82978097D01*
X217900500Y-82741902D01*
X217863553Y-82508631D01*
X217790566Y-82284003D01*
X217683342Y-82073566D01*
X217544517Y-81882490D01*
X217377510Y-81715483D01*
X217342872Y-81690317D01*
X217300207Y-81634989D01*
X217294228Y-81565375D01*
X217326833Y-81503580D01*
X217342873Y-81489682D01*
X217377510Y-81464517D01*
X217544517Y-81297510D01*
X217683343Y-81106433D01*
X217790568Y-80895992D01*
X217863553Y-80671368D01*
X217895275Y-80471084D01*
X217900500Y-80438097D01*
X217900500Y-80201902D01*
X217863553Y-79968635D01*
X217863553Y-79968632D01*
X217857230Y-79949175D01*
X217855234Y-79879335D01*
X217887478Y-79823177D01*
X226887149Y-70823506D01*
X226948470Y-70790023D01*
X227018161Y-70795007D01*
G37*
%TD.AperFunction*%
%TA.AperFunction,Conductor*%
G36*
X190524755Y-55116853D02*
G01*
X190591898Y-55233147D01*
X190686853Y-55328102D01*
X190803147Y-55395245D01*
X190862425Y-55411128D01*
X190130893Y-56142658D01*
X190132448Y-56162405D01*
X190118084Y-56230783D01*
X190081717Y-56272451D01*
X190022490Y-56315482D01*
X189855485Y-56482487D01*
X189855485Y-56482488D01*
X189855483Y-56482490D01*
X189795862Y-56564550D01*
X189716657Y-56673566D01*
X189609433Y-56884003D01*
X189536446Y-57108631D01*
X189499500Y-57341902D01*
X189499500Y-57578097D01*
X189536446Y-57811368D01*
X189609433Y-58035996D01*
X189680903Y-58176262D01*
X189716657Y-58246433D01*
X189855483Y-58437510D01*
X190022490Y-58604517D01*
X190057127Y-58629683D01*
X190099792Y-58685013D01*
X190105771Y-58754626D01*
X190073165Y-58816421D01*
X190057130Y-58830315D01*
X190044087Y-58839792D01*
X190022488Y-58855484D01*
X189855485Y-59022487D01*
X189855485Y-59022488D01*
X189855483Y-59022490D01*
X189795862Y-59104550D01*
X189716657Y-59213566D01*
X189609433Y-59424003D01*
X189536446Y-59648631D01*
X189499500Y-59881902D01*
X189499500Y-60118097D01*
X189536446Y-60351368D01*
X189609433Y-60575996D01*
X189716657Y-60786433D01*
X189855483Y-60977510D01*
X190022490Y-61144517D01*
X190057127Y-61169683D01*
X190099792Y-61225013D01*
X190105771Y-61294626D01*
X190073165Y-61356421D01*
X190057130Y-61370315D01*
X190044095Y-61379786D01*
X190022488Y-61395484D01*
X189855485Y-61562487D01*
X189855485Y-61562488D01*
X189855483Y-61562490D01*
X189795862Y-61644550D01*
X189716657Y-61753566D01*
X189609433Y-61964003D01*
X189536446Y-62188631D01*
X189499500Y-62421902D01*
X189499500Y-62658097D01*
X189536446Y-62891368D01*
X189609433Y-63115996D01*
X189716657Y-63326433D01*
X189855483Y-63517510D01*
X190022490Y-63684517D01*
X190057127Y-63709683D01*
X190099792Y-63765013D01*
X190105771Y-63834626D01*
X190073165Y-63896421D01*
X190057130Y-63910315D01*
X190044087Y-63919792D01*
X190022488Y-63935484D01*
X189855485Y-64102487D01*
X189855485Y-64102488D01*
X189855483Y-64102490D01*
X189795862Y-64184550D01*
X189716657Y-64293566D01*
X189609433Y-64504003D01*
X189536446Y-64728631D01*
X189499500Y-64961902D01*
X189499500Y-65198097D01*
X189536446Y-65431368D01*
X189609433Y-65655996D01*
X189716657Y-65866433D01*
X189855483Y-66057510D01*
X190022490Y-66224517D01*
X190057127Y-66249683D01*
X190099792Y-66305013D01*
X190105771Y-66374626D01*
X190073165Y-66436421D01*
X190057130Y-66450315D01*
X190049464Y-66455885D01*
X190022488Y-66475484D01*
X189855485Y-66642487D01*
X189855485Y-66642488D01*
X189855483Y-66642490D01*
X189795862Y-66724550D01*
X189716657Y-66833566D01*
X189609433Y-67044003D01*
X189536446Y-67268631D01*
X189499500Y-67501902D01*
X189499500Y-67738097D01*
X189536446Y-67971368D01*
X189609433Y-68195996D01*
X189638201Y-68252455D01*
X189716657Y-68406433D01*
X189855483Y-68597510D01*
X190022490Y-68764517D01*
X190057127Y-68789683D01*
X190099792Y-68845013D01*
X190105771Y-68914626D01*
X190073165Y-68976421D01*
X190057130Y-68990315D01*
X190039365Y-69003222D01*
X190022488Y-69015484D01*
X189855485Y-69182487D01*
X189855485Y-69182488D01*
X189855483Y-69182490D01*
X189795862Y-69264550D01*
X189716657Y-69373566D01*
X189609433Y-69584003D01*
X189536446Y-69808631D01*
X189499500Y-70041902D01*
X189499500Y-70278097D01*
X189536446Y-70511368D01*
X189609433Y-70735996D01*
X189687823Y-70889843D01*
X189716657Y-70946433D01*
X189855483Y-71137510D01*
X190022490Y-71304517D01*
X190057127Y-71329683D01*
X190099792Y-71385013D01*
X190105771Y-71454626D01*
X190073165Y-71516421D01*
X190057130Y-71530315D01*
X190039365Y-71543222D01*
X190022488Y-71555484D01*
X189855485Y-71722487D01*
X189855485Y-71722488D01*
X189855483Y-71722490D01*
X189795862Y-71804550D01*
X189716657Y-71913566D01*
X189609433Y-72124003D01*
X189536446Y-72348631D01*
X189499500Y-72581902D01*
X189499500Y-72818097D01*
X189536446Y-73051368D01*
X189609433Y-73275996D01*
X189716657Y-73486433D01*
X189855483Y-73677510D01*
X190022490Y-73844517D01*
X190057127Y-73869683D01*
X190099792Y-73925013D01*
X190105771Y-73994626D01*
X190073165Y-74056421D01*
X190057130Y-74070315D01*
X190039365Y-74083222D01*
X190022488Y-74095484D01*
X189855485Y-74262487D01*
X189855485Y-74262488D01*
X189855483Y-74262490D01*
X189835496Y-74290000D01*
X189716657Y-74453566D01*
X189609433Y-74664003D01*
X189536446Y-74888631D01*
X189499500Y-75121902D01*
X189499500Y-75358097D01*
X189536446Y-75591368D01*
X189609433Y-75815996D01*
X189668035Y-75931007D01*
X189716657Y-76026433D01*
X189855483Y-76217510D01*
X190022490Y-76384517D01*
X190057127Y-76409683D01*
X190099792Y-76465013D01*
X190105771Y-76534626D01*
X190073165Y-76596421D01*
X190057130Y-76610315D01*
X190039365Y-76623222D01*
X190022488Y-76635484D01*
X189855485Y-76802487D01*
X189855485Y-76802488D01*
X189855483Y-76802490D01*
X189811938Y-76862425D01*
X189716657Y-76993566D01*
X189609433Y-77204003D01*
X189536446Y-77428631D01*
X189499500Y-77661902D01*
X189499500Y-77898097D01*
X189536447Y-78131369D01*
X189536447Y-78131372D01*
X189542768Y-78150824D01*
X189544763Y-78220665D01*
X189512518Y-78276823D01*
X188786476Y-79002867D01*
X188725153Y-79036352D01*
X188698795Y-79039186D01*
X176507732Y-79039186D01*
X176440693Y-79019501D01*
X176394938Y-78966697D01*
X176384994Y-78897539D01*
X176414019Y-78833983D01*
X176434846Y-78814868D01*
X176466894Y-78791582D01*
X176466895Y-78791582D01*
X176611582Y-78646895D01*
X176611582Y-78646894D01*
X176731859Y-78481349D01*
X176824755Y-78299031D01*
X176887990Y-78104417D01*
X176920000Y-77902317D01*
X176920000Y-77850000D01*
X176053012Y-77850000D01*
X176085925Y-77792993D01*
X176120000Y-77665826D01*
X176120000Y-77534174D01*
X176085925Y-77407007D01*
X176053012Y-77350000D01*
X176920000Y-77350000D01*
X176920000Y-77297682D01*
X176887990Y-77095582D01*
X176824755Y-76900968D01*
X176731859Y-76718650D01*
X176611582Y-76553105D01*
X176611582Y-76553104D01*
X176466895Y-76408417D01*
X176301349Y-76288140D01*
X176119029Y-76195244D01*
X175924413Y-76132009D01*
X175870000Y-76123390D01*
X175870000Y-77166988D01*
X175812993Y-77134075D01*
X175685826Y-77100000D01*
X175554174Y-77100000D01*
X175427007Y-77134075D01*
X175370000Y-77166988D01*
X175370000Y-76123390D01*
X175315586Y-76132009D01*
X175120970Y-76195244D01*
X174938650Y-76288140D01*
X174773105Y-76408417D01*
X174773104Y-76408417D01*
X174628417Y-76553104D01*
X174628417Y-76553105D01*
X174508140Y-76718650D01*
X174460765Y-76811629D01*
X174412790Y-76862425D01*
X174344969Y-76879220D01*
X174278834Y-76856682D01*
X174239795Y-76811629D01*
X174228990Y-76790424D01*
X174192287Y-76718390D01*
X174113769Y-76610318D01*
X174104182Y-76597122D01*
X174080702Y-76531316D01*
X174080500Y-76524237D01*
X174080500Y-70765781D01*
X174100185Y-70698742D01*
X174116814Y-70678105D01*
X189390601Y-55404317D01*
X189451922Y-55370834D01*
X189521614Y-55375818D01*
X189577547Y-55417690D01*
X189596211Y-55453681D01*
X189609897Y-55495804D01*
X189717087Y-55706174D01*
X189777338Y-55789104D01*
X189777340Y-55789105D01*
X190508871Y-55057574D01*
X190524755Y-55116853D01*
G37*
%TD.AperFunction*%
%TA.AperFunction,Conductor*%
G36*
X217622658Y-55789105D02*
G01*
X217622658Y-55789104D01*
X217682914Y-55706169D01*
X217682918Y-55706163D01*
X217790103Y-55495800D01*
X217803788Y-55453684D01*
X217843225Y-55396008D01*
X217907583Y-55368809D01*
X217976430Y-55380723D01*
X218009400Y-55404320D01*
X218963181Y-56358101D01*
X218996666Y-56419424D01*
X218999500Y-56445782D01*
X218999500Y-64098541D01*
X218999500Y-64098543D01*
X218999499Y-64098543D01*
X219037947Y-64291829D01*
X219037950Y-64291839D01*
X219113364Y-64473907D01*
X219113371Y-64473920D01*
X219222860Y-64637781D01*
X219222863Y-64637785D01*
X219362214Y-64777136D01*
X219362218Y-64777139D01*
X219526079Y-64886628D01*
X219526092Y-64886635D01*
X219707805Y-64961902D01*
X219708165Y-64962051D01*
X219708169Y-64962051D01*
X219708170Y-64962052D01*
X219901456Y-65000500D01*
X219901459Y-65000500D01*
X227138543Y-65000500D01*
X227197845Y-64988703D01*
X227239217Y-64980474D01*
X227331836Y-64962051D01*
X227385165Y-64939961D01*
X227513914Y-64886632D01*
X227677782Y-64777139D01*
X227817139Y-64637782D01*
X227817140Y-64637779D01*
X227824206Y-64630714D01*
X227824208Y-64630710D01*
X228028497Y-64426421D01*
X228089819Y-64392938D01*
X228105279Y-64390659D01*
X228106283Y-64390500D01*
X228106287Y-64390500D01*
X228316243Y-64357246D01*
X228518412Y-64291557D01*
X228707816Y-64195051D01*
X228777123Y-64144697D01*
X228879786Y-64070109D01*
X228879788Y-64070106D01*
X228879792Y-64070104D01*
X229030104Y-63919792D01*
X229075181Y-63857747D01*
X229130511Y-63815082D01*
X229200124Y-63809103D01*
X229261920Y-63841708D01*
X229296277Y-63902547D01*
X229299500Y-63930633D01*
X229299500Y-64658481D01*
X229279815Y-64725520D01*
X229263181Y-64746162D01*
X227746162Y-66263181D01*
X227684839Y-66296666D01*
X227658481Y-66299500D01*
X221931005Y-66299500D01*
X221795677Y-66326418D01*
X221795667Y-66326421D01*
X221668195Y-66379221D01*
X221668182Y-66379228D01*
X221553458Y-66455885D01*
X221553454Y-66455888D01*
X221455888Y-66553454D01*
X221455885Y-66553458D01*
X221379228Y-66668182D01*
X221379221Y-66668195D01*
X221326421Y-66795667D01*
X221326418Y-66795677D01*
X221299500Y-66931004D01*
X221299500Y-71838481D01*
X221279815Y-71905520D01*
X221263181Y-71926162D01*
X218095409Y-75093933D01*
X218034086Y-75127418D01*
X217964394Y-75122434D01*
X217908461Y-75080562D01*
X217885255Y-75025650D01*
X217863553Y-74888631D01*
X217829689Y-74784412D01*
X217790568Y-74664008D01*
X217790566Y-74664005D01*
X217790566Y-74664003D01*
X217734002Y-74552991D01*
X217683343Y-74453567D01*
X217544517Y-74262490D01*
X217377510Y-74095483D01*
X217342872Y-74070317D01*
X217300207Y-74014989D01*
X217294228Y-73945375D01*
X217326833Y-73883580D01*
X217342873Y-73869682D01*
X217377510Y-73844517D01*
X217544517Y-73677510D01*
X217683343Y-73486433D01*
X217790568Y-73275992D01*
X217863553Y-73051368D01*
X217890729Y-72879786D01*
X217900500Y-72818097D01*
X217900500Y-72581902D01*
X217863553Y-72348631D01*
X217790566Y-72124003D01*
X217683342Y-71913566D01*
X217666106Y-71889843D01*
X217544517Y-71722490D01*
X217377510Y-71555483D01*
X217342872Y-71530317D01*
X217300207Y-71474989D01*
X217294228Y-71405375D01*
X217326833Y-71343580D01*
X217342873Y-71329682D01*
X217377510Y-71304517D01*
X217544517Y-71137510D01*
X217683343Y-70946433D01*
X217790568Y-70735992D01*
X217863553Y-70511368D01*
X217878423Y-70417482D01*
X217900500Y-70278097D01*
X217900500Y-70041902D01*
X217863553Y-69808631D01*
X217790566Y-69584003D01*
X217683342Y-69373566D01*
X217544517Y-69182490D01*
X217377510Y-69015483D01*
X217342872Y-68990317D01*
X217300207Y-68934989D01*
X217294228Y-68865375D01*
X217326833Y-68803580D01*
X217342873Y-68789682D01*
X217377510Y-68764517D01*
X217544517Y-68597510D01*
X217683343Y-68406433D01*
X217790568Y-68195992D01*
X217863553Y-67971368D01*
X217900500Y-67738097D01*
X217900500Y-67501902D01*
X217863553Y-67268631D01*
X217829689Y-67164412D01*
X217790568Y-67044008D01*
X217790566Y-67044005D01*
X217790566Y-67044003D01*
X217717936Y-66901459D01*
X217683343Y-66833567D01*
X217544517Y-66642490D01*
X217377510Y-66475483D01*
X217342872Y-66450317D01*
X217300207Y-66394989D01*
X217294228Y-66325375D01*
X217326833Y-66263580D01*
X217342873Y-66249682D01*
X217377510Y-66224517D01*
X217544517Y-66057510D01*
X217683343Y-65866433D01*
X217790568Y-65655992D01*
X217863553Y-65431368D01*
X217899512Y-65204333D01*
X217900500Y-65198097D01*
X217900500Y-64961902D01*
X217863553Y-64728631D01*
X217829689Y-64624412D01*
X217790568Y-64504008D01*
X217790566Y-64504005D01*
X217790566Y-64504003D01*
X217683342Y-64293566D01*
X217544517Y-64102490D01*
X217377510Y-63935483D01*
X217342872Y-63910317D01*
X217300207Y-63854989D01*
X217294228Y-63785375D01*
X217326833Y-63723580D01*
X217342873Y-63709682D01*
X217377510Y-63684517D01*
X217544517Y-63517510D01*
X217683343Y-63326433D01*
X217790568Y-63115992D01*
X217863553Y-62891368D01*
X217866066Y-62875500D01*
X217900500Y-62658097D01*
X217900500Y-62421902D01*
X217863553Y-62188631D01*
X217805476Y-62009890D01*
X217790568Y-61964008D01*
X217790566Y-61964005D01*
X217790566Y-61964003D01*
X217701113Y-61788443D01*
X217683343Y-61753567D01*
X217544517Y-61562490D01*
X217377510Y-61395483D01*
X217342872Y-61370317D01*
X217300207Y-61314989D01*
X217294228Y-61245375D01*
X217326833Y-61183580D01*
X217342873Y-61169682D01*
X217377510Y-61144517D01*
X217544517Y-60977510D01*
X217683343Y-60786433D01*
X217790568Y-60575992D01*
X217863553Y-60351368D01*
X217900500Y-60118097D01*
X217900500Y-59881902D01*
X217863553Y-59648631D01*
X217805476Y-59469890D01*
X217790568Y-59424008D01*
X217790566Y-59424005D01*
X217790566Y-59424003D01*
X217683342Y-59213566D01*
X217544517Y-59022490D01*
X217377510Y-58855483D01*
X217342872Y-58830317D01*
X217300207Y-58774989D01*
X217294228Y-58705375D01*
X217326833Y-58643580D01*
X217342873Y-58629682D01*
X217377510Y-58604517D01*
X217544517Y-58437510D01*
X217683343Y-58246433D01*
X217790568Y-58035992D01*
X217863553Y-57811368D01*
X217887478Y-57660311D01*
X217900500Y-57578097D01*
X217900500Y-57341902D01*
X217863553Y-57108631D01*
X217829689Y-57004412D01*
X217790568Y-56884008D01*
X217790566Y-56884005D01*
X217790566Y-56884003D01*
X217728793Y-56762767D01*
X217683343Y-56673567D01*
X217544517Y-56482490D01*
X217377510Y-56315483D01*
X217318282Y-56272451D01*
X217275617Y-56217122D01*
X217267550Y-56162404D01*
X217269104Y-56142657D01*
X216537574Y-55411128D01*
X216596853Y-55395245D01*
X216713147Y-55328102D01*
X216808102Y-55233147D01*
X216875245Y-55116853D01*
X216891128Y-55057575D01*
X217622658Y-55789105D01*
G37*
%TD.AperFunction*%
%TA.AperFunction,Conductor*%
G36*
X230942539Y-39020185D02*
G01*
X230988294Y-39072989D01*
X230999500Y-39124500D01*
X230999500Y-47878234D01*
X230990554Y-47908697D01*
X230983254Y-47939594D01*
X230980782Y-47941979D01*
X230979815Y-47945273D01*
X230955826Y-47966058D01*
X230932975Y-47988109D01*
X230928597Y-47989653D01*
X230927011Y-47991028D01*
X230899692Y-47999851D01*
X230832901Y-48013136D01*
X230804812Y-48018724D01*
X230708170Y-48037947D01*
X230708162Y-48037949D01*
X230679321Y-48049895D01*
X230679322Y-48049896D01*
X230630637Y-48070061D01*
X230583187Y-48079500D01*
X228960200Y-48079500D01*
X228893161Y-48059815D01*
X228880634Y-48050506D01*
X228707820Y-47924951D01*
X228707115Y-47924591D01*
X228699054Y-47920485D01*
X228648259Y-47872512D01*
X228631463Y-47804692D01*
X228653999Y-47738556D01*
X228699054Y-47699515D01*
X228707816Y-47695051D01*
X228729789Y-47679086D01*
X228879786Y-47570109D01*
X228879788Y-47570106D01*
X228879792Y-47570104D01*
X229030104Y-47419792D01*
X229030106Y-47419788D01*
X229030109Y-47419786D01*
X229155048Y-47247820D01*
X229155047Y-47247820D01*
X229155051Y-47247816D01*
X229251557Y-47058412D01*
X229317246Y-46856243D01*
X229350500Y-46646287D01*
X229350500Y-46433713D01*
X229317246Y-46223757D01*
X229251557Y-46021588D01*
X229155051Y-45832184D01*
X229155049Y-45832181D01*
X229155048Y-45832179D01*
X229030109Y-45660213D01*
X228879786Y-45509890D01*
X228707820Y-45384951D01*
X228707115Y-45384591D01*
X228699054Y-45380485D01*
X228648259Y-45332512D01*
X228631463Y-45264692D01*
X228653999Y-45198556D01*
X228699054Y-45159515D01*
X228707816Y-45155051D01*
X228729789Y-45139086D01*
X228879786Y-45030109D01*
X228879788Y-45030106D01*
X228879792Y-45030104D01*
X229030104Y-44879792D01*
X229030106Y-44879788D01*
X229030109Y-44879786D01*
X229155048Y-44707820D01*
X229155047Y-44707820D01*
X229155051Y-44707816D01*
X229251557Y-44518412D01*
X229317246Y-44316243D01*
X229350500Y-44106287D01*
X229350500Y-43893713D01*
X229317246Y-43683757D01*
X229251557Y-43481588D01*
X229155051Y-43292184D01*
X229155049Y-43292181D01*
X229155048Y-43292179D01*
X229030109Y-43120213D01*
X228916181Y-43006285D01*
X228882696Y-42944962D01*
X228887680Y-42875270D01*
X228929552Y-42819337D01*
X228960529Y-42802422D01*
X229092086Y-42753354D01*
X229092093Y-42753350D01*
X229207187Y-42667190D01*
X229207190Y-42667187D01*
X229293350Y-42552093D01*
X229293354Y-42552086D01*
X229343596Y-42417379D01*
X229343598Y-42417372D01*
X229349999Y-42357844D01*
X229350000Y-42357827D01*
X229350000Y-41710000D01*
X228433012Y-41710000D01*
X228465925Y-41652993D01*
X228500000Y-41525826D01*
X228500000Y-41394174D01*
X228465925Y-41267007D01*
X228433012Y-41210000D01*
X229350000Y-41210000D01*
X229350000Y-40562172D01*
X229349999Y-40562155D01*
X229343598Y-40502627D01*
X229343596Y-40502620D01*
X229293354Y-40367913D01*
X229293350Y-40367906D01*
X229207190Y-40252812D01*
X229207187Y-40252809D01*
X229092093Y-40166649D01*
X229092086Y-40166645D01*
X228957379Y-40116403D01*
X228957372Y-40116401D01*
X228897844Y-40110000D01*
X228250000Y-40110000D01*
X228250000Y-41026988D01*
X228192993Y-40994075D01*
X228065826Y-40960000D01*
X227934174Y-40960000D01*
X227807007Y-40994075D01*
X227750000Y-41026988D01*
X227750000Y-40110000D01*
X227102155Y-40110000D01*
X227042627Y-40116401D01*
X227042620Y-40116403D01*
X226907913Y-40166645D01*
X226907906Y-40166649D01*
X226792812Y-40252809D01*
X226792809Y-40252812D01*
X226706649Y-40367906D01*
X226706645Y-40367913D01*
X226656403Y-40502620D01*
X226656401Y-40502627D01*
X226650000Y-40562155D01*
X226650000Y-41210000D01*
X227566988Y-41210000D01*
X227534075Y-41267007D01*
X227500000Y-41394174D01*
X227500000Y-41525826D01*
X227534075Y-41652993D01*
X227566988Y-41710000D01*
X226650000Y-41710000D01*
X226650000Y-42357844D01*
X226656401Y-42417372D01*
X226656403Y-42417379D01*
X226706645Y-42552086D01*
X226706649Y-42552093D01*
X226792809Y-42667187D01*
X226792812Y-42667190D01*
X226907906Y-42753350D01*
X226907913Y-42753354D01*
X227039470Y-42802422D01*
X227095404Y-42844293D01*
X227119821Y-42909758D01*
X227104969Y-42978031D01*
X227083819Y-43006285D01*
X226969889Y-43120215D01*
X226844951Y-43292179D01*
X226748444Y-43481585D01*
X226682753Y-43683760D01*
X226649500Y-43893713D01*
X226649500Y-44106287D01*
X226649499Y-44106287D01*
X226674284Y-44262771D01*
X226665329Y-44332064D01*
X226639492Y-44369849D01*
X225455887Y-45553454D01*
X225379222Y-45668192D01*
X225326421Y-45795667D01*
X225326418Y-45795679D01*
X225305227Y-45902216D01*
X225305227Y-45902218D01*
X225299500Y-45931007D01*
X225299500Y-53068993D01*
X225299500Y-53068995D01*
X225299499Y-53068995D01*
X225326418Y-53204322D01*
X225326421Y-53204332D01*
X225379221Y-53331804D01*
X225379228Y-53331817D01*
X225455885Y-53446541D01*
X225455888Y-53446545D01*
X225553454Y-53544111D01*
X225553458Y-53544114D01*
X225668182Y-53620771D01*
X225668195Y-53620778D01*
X225795667Y-53673578D01*
X225795672Y-53673580D01*
X225795676Y-53673580D01*
X225795677Y-53673581D01*
X225931004Y-53700500D01*
X225931007Y-53700500D01*
X226068993Y-53700500D01*
X229175500Y-53700500D01*
X229242539Y-53720185D01*
X229288294Y-53772989D01*
X229299500Y-53824500D01*
X229299500Y-54034192D01*
X229279815Y-54101231D01*
X229227011Y-54146986D01*
X229157853Y-54156930D01*
X229101190Y-54133460D01*
X229092088Y-54126646D01*
X229092086Y-54126645D01*
X228957379Y-54076403D01*
X228957372Y-54076401D01*
X228897844Y-54070000D01*
X228250000Y-54070000D01*
X228250000Y-54986988D01*
X228192993Y-54954075D01*
X228065826Y-54920000D01*
X227934174Y-54920000D01*
X227807007Y-54954075D01*
X227750000Y-54986988D01*
X227750000Y-54070000D01*
X227102155Y-54070000D01*
X227042627Y-54076401D01*
X227042620Y-54076403D01*
X226907913Y-54126645D01*
X226907906Y-54126649D01*
X226792812Y-54212809D01*
X226792809Y-54212812D01*
X226706649Y-54327906D01*
X226706645Y-54327913D01*
X226656403Y-54462620D01*
X226656401Y-54462627D01*
X226650000Y-54522155D01*
X226650000Y-55170000D01*
X227566988Y-55170000D01*
X227534075Y-55227007D01*
X227500000Y-55354174D01*
X227500000Y-55485826D01*
X227534075Y-55612993D01*
X227566988Y-55670000D01*
X226752019Y-55670000D01*
X226684980Y-55650315D01*
X226664338Y-55633681D01*
X225637189Y-54606532D01*
X219486546Y-48455888D01*
X219486545Y-48455887D01*
X219371807Y-48379222D01*
X219244332Y-48326421D01*
X219244322Y-48326418D01*
X219108996Y-48299500D01*
X219108994Y-48299500D01*
X219108993Y-48299500D01*
X204608994Y-48299500D01*
X204471006Y-48299500D01*
X204471004Y-48299500D01*
X204335677Y-48326418D01*
X204335667Y-48326421D01*
X204208192Y-48379222D01*
X204093454Y-48455887D01*
X204093453Y-48455888D01*
X192695409Y-59853933D01*
X192634086Y-59887418D01*
X192564394Y-59882434D01*
X192508461Y-59840562D01*
X192485255Y-59785650D01*
X192463553Y-59648631D01*
X192405476Y-59469890D01*
X192390568Y-59424008D01*
X192390566Y-59424005D01*
X192390566Y-59424003D01*
X192283342Y-59213566D01*
X192144517Y-59022490D01*
X191977510Y-58855483D01*
X191942872Y-58830317D01*
X191900207Y-58774989D01*
X191894228Y-58705375D01*
X191926833Y-58643580D01*
X191942873Y-58629682D01*
X191977510Y-58604517D01*
X192144517Y-58437510D01*
X192283343Y-58246433D01*
X192390568Y-58035992D01*
X192463553Y-57811368D01*
X192487478Y-57660311D01*
X192500500Y-57578097D01*
X192500500Y-57341902D01*
X192463553Y-57108631D01*
X192429689Y-57004412D01*
X192390568Y-56884008D01*
X192390566Y-56884005D01*
X192390566Y-56884003D01*
X192328793Y-56762767D01*
X192283343Y-56673567D01*
X192144517Y-56482490D01*
X191977510Y-56315483D01*
X191918282Y-56272451D01*
X191875617Y-56217122D01*
X191867550Y-56162404D01*
X191869104Y-56142657D01*
X191137574Y-55411128D01*
X191196853Y-55395245D01*
X191313147Y-55328102D01*
X191408102Y-55233147D01*
X191475245Y-55116853D01*
X191491128Y-55057575D01*
X192222658Y-55789105D01*
X192222658Y-55789104D01*
X192282914Y-55706169D01*
X192282918Y-55706163D01*
X192390102Y-55495802D01*
X192463065Y-55271247D01*
X192500000Y-55038052D01*
X192500000Y-54801947D01*
X192463065Y-54568752D01*
X192390102Y-54344197D01*
X192282914Y-54133828D01*
X192192964Y-54010023D01*
X192169484Y-53944216D01*
X192185309Y-53876162D01*
X192234640Y-53828220D01*
X192234546Y-53828047D01*
X192235169Y-53827706D01*
X192235415Y-53827468D01*
X192236480Y-53826990D01*
X192242326Y-53823797D01*
X192242331Y-53823796D01*
X192357546Y-53737546D01*
X192443796Y-53622331D01*
X192494091Y-53487483D01*
X192500500Y-53427873D01*
X192500499Y-52345780D01*
X192520184Y-52278742D01*
X192536813Y-52258105D01*
X196758101Y-48036819D01*
X196819424Y-48003334D01*
X196845782Y-48000500D01*
X224098543Y-48000500D01*
X224228582Y-47974632D01*
X224291835Y-47962051D01*
X224473914Y-47886632D01*
X224637782Y-47777139D01*
X224777139Y-47637782D01*
X224886632Y-47473914D01*
X224962051Y-47291835D01*
X225000500Y-47098541D01*
X225000500Y-41465782D01*
X225020185Y-41398743D01*
X225036819Y-41378101D01*
X225943750Y-40471170D01*
X226248272Y-40166649D01*
X227378102Y-39036819D01*
X227439425Y-39003334D01*
X227465783Y-39000500D01*
X230875500Y-39000500D01*
X230942539Y-39020185D01*
G37*
%TD.AperFunction*%
%TA.AperFunction,Conductor*%
G36*
X215924755Y-55116853D02*
G01*
X215991898Y-55233147D01*
X216086853Y-55328102D01*
X216203147Y-55395245D01*
X216262425Y-55411128D01*
X215530893Y-56142658D01*
X215532448Y-56162405D01*
X215518084Y-56230783D01*
X215481717Y-56272451D01*
X215422490Y-56315482D01*
X215255484Y-56482488D01*
X215224818Y-56524697D01*
X215169487Y-56567362D01*
X215099874Y-56573341D01*
X215038079Y-56540735D01*
X215003722Y-56479896D01*
X215000500Y-56451811D01*
X215000500Y-55909330D01*
X215020185Y-55842291D01*
X215072989Y-55796536D01*
X215134229Y-55785712D01*
X215177341Y-55789104D01*
X215908871Y-55057574D01*
X215924755Y-55116853D01*
G37*
%TD.AperFunction*%
%TA.AperFunction,Conductor*%
G36*
X239442539Y-35520185D02*
G01*
X239488294Y-35572989D01*
X239499500Y-35624500D01*
X239499500Y-127375500D01*
X239479815Y-127442539D01*
X239427011Y-127488294D01*
X239375500Y-127499500D01*
X150624500Y-127499500D01*
X150557461Y-127479815D01*
X150511706Y-127427011D01*
X150500500Y-127375500D01*
X150500500Y-123840341D01*
X150750000Y-123840341D01*
X150750000Y-124159658D01*
X150781298Y-124477438D01*
X150781301Y-124477455D01*
X150843591Y-124790617D01*
X150843594Y-124790628D01*
X150936292Y-125096213D01*
X151058493Y-125391232D01*
X151058495Y-125391237D01*
X151209014Y-125672837D01*
X151209025Y-125672855D01*
X151386422Y-125938348D01*
X151386432Y-125938362D01*
X151531418Y-126115027D01*
X152705747Y-124940697D01*
X152779588Y-125042330D01*
X152957670Y-125220412D01*
X153059301Y-125294251D01*
X151884971Y-126468580D01*
X151884972Y-126468581D01*
X152061637Y-126613567D01*
X152061651Y-126613577D01*
X152327144Y-126790974D01*
X152327162Y-126790985D01*
X152608762Y-126941504D01*
X152608767Y-126941506D01*
X152903786Y-127063707D01*
X153209371Y-127156405D01*
X153209382Y-127156408D01*
X153522544Y-127218698D01*
X153522561Y-127218701D01*
X153840341Y-127250000D01*
X154159659Y-127250000D01*
X154477438Y-127218701D01*
X154477455Y-127218698D01*
X154790617Y-127156408D01*
X154790628Y-127156405D01*
X155096213Y-127063707D01*
X155391232Y-126941506D01*
X155391237Y-126941504D01*
X155672837Y-126790985D01*
X155672855Y-126790974D01*
X155938348Y-126613577D01*
X155938361Y-126613567D01*
X156115026Y-126468581D01*
X156115027Y-126468580D01*
X154940698Y-125294251D01*
X155042330Y-125220412D01*
X155220412Y-125042330D01*
X155294251Y-124940698D01*
X156468580Y-126115027D01*
X156468581Y-126115026D01*
X156613567Y-125938361D01*
X156613577Y-125938348D01*
X156790974Y-125672855D01*
X156790985Y-125672837D01*
X156941504Y-125391237D01*
X156941506Y-125391232D01*
X157063707Y-125096213D01*
X157156405Y-124790628D01*
X157156408Y-124790617D01*
X157218698Y-124477455D01*
X157218701Y-124477438D01*
X157250000Y-124159658D01*
X157250000Y-123840341D01*
X232750000Y-123840341D01*
X232750000Y-124159658D01*
X232781298Y-124477438D01*
X232781301Y-124477455D01*
X232843591Y-124790617D01*
X232843594Y-124790628D01*
X232936292Y-125096213D01*
X233058493Y-125391232D01*
X233058495Y-125391237D01*
X233209014Y-125672837D01*
X233209025Y-125672855D01*
X233386422Y-125938348D01*
X233386432Y-125938362D01*
X233531418Y-126115027D01*
X234705747Y-124940697D01*
X234779588Y-125042330D01*
X234957670Y-125220412D01*
X235059301Y-125294251D01*
X233884971Y-126468580D01*
X233884972Y-126468581D01*
X234061637Y-126613567D01*
X234061651Y-126613577D01*
X234327144Y-126790974D01*
X234327162Y-126790985D01*
X234608762Y-126941504D01*
X234608767Y-126941506D01*
X234903786Y-127063707D01*
X235209371Y-127156405D01*
X235209382Y-127156408D01*
X235522544Y-127218698D01*
X235522561Y-127218701D01*
X235840341Y-127250000D01*
X236159659Y-127250000D01*
X236477438Y-127218701D01*
X236477455Y-127218698D01*
X236790617Y-127156408D01*
X236790628Y-127156405D01*
X237096213Y-127063707D01*
X237391232Y-126941506D01*
X237391237Y-126941504D01*
X237672837Y-126790985D01*
X237672855Y-126790974D01*
X237938348Y-126613577D01*
X237938361Y-126613567D01*
X238115026Y-126468581D01*
X238115027Y-126468580D01*
X236940698Y-125294251D01*
X237042330Y-125220412D01*
X237220412Y-125042330D01*
X237294251Y-124940698D01*
X238468580Y-126115027D01*
X238468581Y-126115026D01*
X238613567Y-125938361D01*
X238613577Y-125938348D01*
X238790974Y-125672855D01*
X238790985Y-125672837D01*
X238941504Y-125391237D01*
X238941506Y-125391232D01*
X239063707Y-125096213D01*
X239156405Y-124790628D01*
X239156408Y-124790617D01*
X239218698Y-124477455D01*
X239218701Y-124477438D01*
X239250000Y-124159658D01*
X239250000Y-123840341D01*
X239218701Y-123522561D01*
X239218698Y-123522544D01*
X239156408Y-123209382D01*
X239156405Y-123209371D01*
X239063707Y-122903786D01*
X238941506Y-122608767D01*
X238941504Y-122608762D01*
X238790985Y-122327162D01*
X238790974Y-122327144D01*
X238613577Y-122061651D01*
X238613567Y-122061637D01*
X238468581Y-121884972D01*
X238468580Y-121884971D01*
X237294251Y-123059300D01*
X237220412Y-122957670D01*
X237042330Y-122779588D01*
X236940698Y-122705748D01*
X238115027Y-121531418D01*
X237938362Y-121386432D01*
X237938348Y-121386422D01*
X237672855Y-121209025D01*
X237672837Y-121209014D01*
X237391237Y-121058495D01*
X237391232Y-121058493D01*
X237096213Y-120936292D01*
X236790628Y-120843594D01*
X236790617Y-120843591D01*
X236477455Y-120781301D01*
X236477438Y-120781298D01*
X236159659Y-120750000D01*
X235840341Y-120750000D01*
X235522561Y-120781298D01*
X235522544Y-120781301D01*
X235209382Y-120843591D01*
X235209371Y-120843594D01*
X234903786Y-120936292D01*
X234608767Y-121058493D01*
X234608762Y-121058495D01*
X234327162Y-121209014D01*
X234327144Y-121209025D01*
X234061651Y-121386422D01*
X234061650Y-121386423D01*
X233884971Y-121531418D01*
X235059301Y-122705748D01*
X234957670Y-122779588D01*
X234779588Y-122957670D01*
X234705748Y-123059301D01*
X233531418Y-121884971D01*
X233386423Y-122061650D01*
X233386422Y-122061651D01*
X233209025Y-122327144D01*
X233209014Y-122327162D01*
X233058495Y-122608762D01*
X233058493Y-122608767D01*
X232936292Y-122903786D01*
X232843594Y-123209371D01*
X232843591Y-123209382D01*
X232781301Y-123522544D01*
X232781298Y-123522561D01*
X232750000Y-123840341D01*
X157250000Y-123840341D01*
X157218701Y-123522561D01*
X157218698Y-123522544D01*
X157156408Y-123209382D01*
X157156405Y-123209371D01*
X157063707Y-122903786D01*
X156941506Y-122608767D01*
X156941504Y-122608762D01*
X156790985Y-122327162D01*
X156790974Y-122327144D01*
X156613577Y-122061651D01*
X156613567Y-122061637D01*
X156468581Y-121884972D01*
X156468580Y-121884971D01*
X155294251Y-123059300D01*
X155220412Y-122957670D01*
X155042330Y-122779588D01*
X154940698Y-122705748D01*
X156115027Y-121531418D01*
X155938362Y-121386432D01*
X155938348Y-121386422D01*
X155672855Y-121209025D01*
X155672837Y-121209014D01*
X155391237Y-121058495D01*
X155391232Y-121058493D01*
X155096213Y-120936292D01*
X154790628Y-120843594D01*
X154790617Y-120843591D01*
X154477455Y-120781301D01*
X154477438Y-120781298D01*
X154159659Y-120750000D01*
X153840341Y-120750000D01*
X153522561Y-120781298D01*
X153522544Y-120781301D01*
X153209382Y-120843591D01*
X153209371Y-120843594D01*
X152903786Y-120936292D01*
X152608767Y-121058493D01*
X152608762Y-121058495D01*
X152327162Y-121209014D01*
X152327144Y-121209025D01*
X152061651Y-121386422D01*
X152061650Y-121386423D01*
X151884971Y-121531418D01*
X153059301Y-122705748D01*
X152957670Y-122779588D01*
X152779588Y-122957670D01*
X152705748Y-123059301D01*
X151531418Y-121884971D01*
X151386423Y-122061650D01*
X151386422Y-122061651D01*
X151209025Y-122327144D01*
X151209014Y-122327162D01*
X151058495Y-122608762D01*
X151058493Y-122608767D01*
X150936292Y-122903786D01*
X150843594Y-123209371D01*
X150843591Y-123209382D01*
X150781301Y-123522544D01*
X150781298Y-123522561D01*
X150750000Y-123840341D01*
X150500500Y-123840341D01*
X150500500Y-94885837D01*
X160599500Y-94885837D01*
X160599500Y-95114162D01*
X160635215Y-95339660D01*
X160705770Y-95556803D01*
X160809421Y-95760228D01*
X160943621Y-95944937D01*
X161105063Y-96106379D01*
X161289772Y-96240579D01*
X161357828Y-96275255D01*
X161493196Y-96344229D01*
X161493198Y-96344229D01*
X161493201Y-96344231D01*
X161609592Y-96382049D01*
X161710339Y-96414784D01*
X161935838Y-96450500D01*
X161935843Y-96450500D01*
X164064162Y-96450500D01*
X164289660Y-96414784D01*
X164308095Y-96408794D01*
X164506799Y-96344231D01*
X164710228Y-96240579D01*
X164894937Y-96106379D01*
X165056379Y-95944937D01*
X165190579Y-95760228D01*
X165290425Y-95564268D01*
X165294229Y-95556803D01*
X165294229Y-95556802D01*
X165294231Y-95556799D01*
X165364784Y-95339660D01*
X165400500Y-95114162D01*
X165400500Y-94885837D01*
X165364784Y-94660339D01*
X165294229Y-94443196D01*
X165190578Y-94239771D01*
X165056379Y-94055063D01*
X164894937Y-93893621D01*
X164710228Y-93759421D01*
X164506803Y-93655770D01*
X164289660Y-93585215D01*
X164064162Y-93549500D01*
X164064157Y-93549500D01*
X161935843Y-93549500D01*
X161935838Y-93549500D01*
X161710339Y-93585215D01*
X161493196Y-93655770D01*
X161289771Y-93759421D01*
X161105061Y-93893622D01*
X160943622Y-94055061D01*
X160809421Y-94239771D01*
X160705770Y-94443196D01*
X160635215Y-94660339D01*
X160599500Y-94885837D01*
X150500500Y-94885837D01*
X150500500Y-89205883D01*
X159220000Y-89205883D01*
X159220000Y-90020000D01*
X160290000Y-90020000D01*
X160290000Y-90520000D01*
X159220000Y-90520000D01*
X159220000Y-91334116D01*
X159255704Y-91559544D01*
X159326230Y-91776604D01*
X159429849Y-91979966D01*
X159564004Y-92164614D01*
X159725385Y-92325995D01*
X159910033Y-92460150D01*
X160113395Y-92563769D01*
X160330455Y-92634295D01*
X160420000Y-92648478D01*
X160420000Y-91702401D01*
X160436675Y-91719076D01*
X160523325Y-91769104D01*
X160619972Y-91795000D01*
X160720028Y-91795000D01*
X160816675Y-91769104D01*
X160903325Y-91719076D01*
X160920000Y-91702401D01*
X160920000Y-92648477D01*
X161009544Y-92634295D01*
X161226604Y-92563769D01*
X161429966Y-92460150D01*
X161614614Y-92325995D01*
X161775995Y-92164614D01*
X161910150Y-91979966D01*
X162013769Y-91776604D01*
X162084295Y-91559544D01*
X162120000Y-91334116D01*
X162120000Y-90520000D01*
X161050000Y-90520000D01*
X161050000Y-90020000D01*
X162120000Y-90020000D01*
X162120000Y-89205883D01*
X162084295Y-88980455D01*
X162013769Y-88763395D01*
X161910150Y-88560033D01*
X161775995Y-88375385D01*
X161614614Y-88214004D01*
X161429966Y-88079849D01*
X161226602Y-87976229D01*
X161009541Y-87905703D01*
X160920000Y-87891521D01*
X160920000Y-88837599D01*
X160903325Y-88820924D01*
X160816675Y-88770896D01*
X160720028Y-88745000D01*
X160619972Y-88745000D01*
X160523325Y-88770896D01*
X160436675Y-88820924D01*
X160420000Y-88837599D01*
X160420000Y-87891521D01*
X160419999Y-87891521D01*
X160330458Y-87905703D01*
X160113397Y-87976229D01*
X159910033Y-88079849D01*
X159725385Y-88214004D01*
X159564004Y-88375385D01*
X159429849Y-88560033D01*
X159326230Y-88763395D01*
X159255704Y-88980455D01*
X159220000Y-89205883D01*
X150500500Y-89205883D01*
X150500500Y-84068996D01*
X164299499Y-84068996D01*
X164326418Y-84204322D01*
X164326421Y-84204332D01*
X164379222Y-84331807D01*
X164455887Y-84446545D01*
X165953454Y-85944112D01*
X166068192Y-86020777D01*
X166195667Y-86073578D01*
X166195672Y-86073580D01*
X166195676Y-86073580D01*
X166195677Y-86073581D01*
X166331003Y-86100500D01*
X166331006Y-86100500D01*
X166331007Y-86100500D01*
X189596884Y-86100500D01*
X189663923Y-86120185D01*
X189707368Y-86168203D01*
X189716657Y-86186433D01*
X189855483Y-86377510D01*
X190022490Y-86544517D01*
X190057127Y-86569683D01*
X190099792Y-86625013D01*
X190105771Y-86694626D01*
X190073165Y-86756421D01*
X190057130Y-86770315D01*
X190044987Y-86779138D01*
X190022488Y-86795484D01*
X189855485Y-86962487D01*
X189855485Y-86962488D01*
X189855483Y-86962490D01*
X189795862Y-87044550D01*
X189716657Y-87153566D01*
X189707368Y-87171797D01*
X189659392Y-87222592D01*
X189596884Y-87239500D01*
X186991004Y-87239500D01*
X186855677Y-87266418D01*
X186855667Y-87266421D01*
X186728192Y-87319222D01*
X186613454Y-87395887D01*
X186455887Y-87553454D01*
X186379223Y-87668192D01*
X186326421Y-87795668D01*
X186326418Y-87795679D01*
X186311735Y-87869499D01*
X186311735Y-87869501D01*
X186299500Y-87931005D01*
X186299500Y-97658481D01*
X186279815Y-97725520D01*
X186263181Y-97746162D01*
X181971181Y-102038162D01*
X181909858Y-102071647D01*
X181840166Y-102066663D01*
X181784233Y-102024791D01*
X181759816Y-101959327D01*
X181759500Y-101950481D01*
X181759500Y-96706782D01*
X181779185Y-96639743D01*
X181795819Y-96619101D01*
X184777136Y-93637784D01*
X184777139Y-93637781D01*
X184886631Y-93473914D01*
X184962051Y-93291836D01*
X185000500Y-93098540D01*
X185000500Y-92901460D01*
X185000500Y-92901457D01*
X185000499Y-92901455D01*
X184986009Y-92828611D01*
X184962051Y-92708164D01*
X184886631Y-92526086D01*
X184886629Y-92526083D01*
X184886627Y-92526079D01*
X184777140Y-92362220D01*
X184740915Y-92325995D01*
X184637781Y-92222861D01*
X182051479Y-89636559D01*
X182051459Y-89636537D01*
X181907785Y-89492863D01*
X181907781Y-89492860D01*
X181743920Y-89383371D01*
X181743911Y-89383366D01*
X181671315Y-89353296D01*
X181615165Y-89330038D01*
X181561836Y-89307949D01*
X181561832Y-89307948D01*
X181561828Y-89307946D01*
X181465188Y-89288724D01*
X181368544Y-89269500D01*
X181368541Y-89269500D01*
X168166489Y-89269500D01*
X168099450Y-89249815D01*
X168053695Y-89197011D01*
X168044016Y-89164898D01*
X168014784Y-88980339D01*
X167944229Y-88763196D01*
X167849282Y-88576853D01*
X167840579Y-88559772D01*
X167706379Y-88375063D01*
X167544937Y-88213621D01*
X167360228Y-88079421D01*
X167156803Y-87975770D01*
X166939660Y-87905215D01*
X166714162Y-87869500D01*
X166714157Y-87869500D01*
X166485843Y-87869500D01*
X166485838Y-87869500D01*
X166260339Y-87905215D01*
X166043196Y-87975770D01*
X165839771Y-88079421D01*
X165655061Y-88213622D01*
X165493622Y-88375061D01*
X165359421Y-88559771D01*
X165255770Y-88763196D01*
X165185215Y-88980339D01*
X165149500Y-89205837D01*
X165149500Y-91334162D01*
X165185215Y-91559660D01*
X165255770Y-91776803D01*
X165335809Y-91933887D01*
X165359421Y-91980228D01*
X165493621Y-92164937D01*
X165655063Y-92326379D01*
X165839772Y-92460579D01*
X165935884Y-92509550D01*
X166043196Y-92564229D01*
X166043198Y-92564229D01*
X166043201Y-92564231D01*
X166138144Y-92595080D01*
X166260339Y-92634784D01*
X166485838Y-92670500D01*
X166485843Y-92670500D01*
X166714162Y-92670500D01*
X166939660Y-92634784D01*
X166941165Y-92634295D01*
X167156799Y-92564231D01*
X167360228Y-92460579D01*
X167544937Y-92326379D01*
X167706379Y-92164937D01*
X167840579Y-91980228D01*
X167944231Y-91776799D01*
X168014784Y-91559660D01*
X168015893Y-91552661D01*
X168044016Y-91375102D01*
X168073945Y-91311967D01*
X168133257Y-91275036D01*
X168166489Y-91270500D01*
X180804218Y-91270500D01*
X180871257Y-91290185D01*
X180891899Y-91306819D01*
X182497398Y-92912318D01*
X182530883Y-92973641D01*
X182525899Y-93043333D01*
X182497398Y-93087680D01*
X181141883Y-94443196D01*
X180121221Y-95463858D01*
X180121218Y-95463861D01*
X180073427Y-95511652D01*
X180040077Y-95545002D01*
X179978753Y-95578486D01*
X179909062Y-95573501D01*
X179883506Y-95560423D01*
X179810516Y-95511654D01*
X179623983Y-95434390D01*
X179623974Y-95434387D01*
X179425958Y-95395000D01*
X179350000Y-95395000D01*
X179350000Y-96139670D01*
X179330255Y-96119925D01*
X179244745Y-96070556D01*
X179149370Y-96045000D01*
X179050630Y-96045000D01*
X178955255Y-96070556D01*
X178869745Y-96119925D01*
X178850000Y-96139670D01*
X178850000Y-95395000D01*
X178774041Y-95395000D01*
X178576025Y-95434387D01*
X178576016Y-95434390D01*
X178389486Y-95511652D01*
X178389473Y-95511659D01*
X178221600Y-95623829D01*
X178221596Y-95623832D01*
X178078832Y-95766596D01*
X178078829Y-95766600D01*
X177966659Y-95934473D01*
X177966652Y-95934486D01*
X177889390Y-96121016D01*
X177889387Y-96121025D01*
X177879647Y-96170000D01*
X178819670Y-96170000D01*
X178799925Y-96189745D01*
X178750556Y-96275255D01*
X178725000Y-96370630D01*
X178725000Y-96469370D01*
X178750556Y-96564745D01*
X178799925Y-96650255D01*
X178814170Y-96664500D01*
X178773997Y-96664500D01*
X178747740Y-96669722D01*
X178736953Y-96669968D01*
X178736284Y-96669788D01*
X178734134Y-96670000D01*
X177879647Y-96670000D01*
X177889388Y-96718974D01*
X177934453Y-96827774D01*
X177941921Y-96897244D01*
X177910645Y-96959723D01*
X177850556Y-96995375D01*
X177844084Y-96996843D01*
X177745676Y-97016418D01*
X177745667Y-97016421D01*
X177618192Y-97069222D01*
X177503454Y-97145887D01*
X176455887Y-98193454D01*
X176379222Y-98308192D01*
X176326421Y-98435667D01*
X176326418Y-98435677D01*
X176299500Y-98571004D01*
X176299500Y-101658480D01*
X176279815Y-101725519D01*
X176263181Y-101746161D01*
X171555888Y-106453453D01*
X171555887Y-106453454D01*
X171529049Y-106493621D01*
X171502331Y-106533608D01*
X171494598Y-106545182D01*
X171479223Y-106568191D01*
X171426421Y-106695667D01*
X171426418Y-106695677D01*
X171399500Y-106831004D01*
X171399500Y-107258255D01*
X171379815Y-107325294D01*
X171348385Y-107358573D01*
X171252787Y-107428028D01*
X171252782Y-107428032D01*
X171108028Y-107572786D01*
X170987715Y-107738386D01*
X170894781Y-107920776D01*
X170831522Y-108115465D01*
X170799500Y-108317648D01*
X170799500Y-108522351D01*
X170831522Y-108724534D01*
X170894781Y-108919223D01*
X170987715Y-109101613D01*
X171108028Y-109267213D01*
X171252786Y-109411971D01*
X171407749Y-109524556D01*
X171418390Y-109532287D01*
X171534607Y-109591503D01*
X171600776Y-109625218D01*
X171600778Y-109625218D01*
X171600781Y-109625220D01*
X171705137Y-109659127D01*
X171795465Y-109688477D01*
X171896557Y-109704488D01*
X171997648Y-109720500D01*
X171997649Y-109720500D01*
X172202351Y-109720500D01*
X172202352Y-109720500D01*
X172404534Y-109688477D01*
X172599219Y-109625220D01*
X172781610Y-109532287D01*
X172874590Y-109464732D01*
X172947213Y-109411971D01*
X172947215Y-109411968D01*
X172947219Y-109411966D01*
X173091966Y-109267219D01*
X173091968Y-109267215D01*
X173091971Y-109267213D01*
X173178593Y-109147986D01*
X173212287Y-109101610D01*
X173302872Y-108923827D01*
X173305218Y-108919223D01*
X173305218Y-108919222D01*
X173305220Y-108919219D01*
X173368477Y-108724534D01*
X173400500Y-108522352D01*
X173400500Y-108317648D01*
X173368477Y-108115466D01*
X173352369Y-108065892D01*
X173330871Y-107999727D01*
X173305220Y-107920781D01*
X173305218Y-107920778D01*
X173305218Y-107920776D01*
X173261566Y-107835106D01*
X173212287Y-107738390D01*
X173195477Y-107715253D01*
X173091971Y-107572786D01*
X172947217Y-107428032D01*
X172947212Y-107428028D01*
X172851615Y-107358573D01*
X172848274Y-107354241D01*
X172843297Y-107351968D01*
X172827164Y-107326865D01*
X172808949Y-107303243D01*
X172807696Y-107296571D01*
X172805523Y-107293190D01*
X172800500Y-107258255D01*
X172800500Y-107241518D01*
X172820185Y-107174479D01*
X172836819Y-107153837D01*
X175189355Y-104801301D01*
X177544113Y-102446543D01*
X177556870Y-102427452D01*
X177620775Y-102331811D01*
X177673580Y-102204328D01*
X177685339Y-102145210D01*
X177700500Y-102068995D01*
X177700500Y-99825102D01*
X177720185Y-99758063D01*
X177772989Y-99712308D01*
X177842147Y-99702364D01*
X177905703Y-99731389D01*
X177923762Y-99750786D01*
X177992454Y-99842546D01*
X178038643Y-99877123D01*
X178107664Y-99928793D01*
X178107671Y-99928797D01*
X178242516Y-99979091D01*
X178288757Y-99984063D01*
X178353307Y-100010801D01*
X178393155Y-100068194D01*
X178399500Y-100107352D01*
X178399500Y-113871006D01*
X178399500Y-114008994D01*
X178399500Y-114008996D01*
X178399499Y-114008996D01*
X178426418Y-114144322D01*
X178426421Y-114144332D01*
X178479222Y-114271807D01*
X178555887Y-114386545D01*
X179133454Y-114964112D01*
X179248192Y-115040777D01*
X179375667Y-115093578D01*
X179375672Y-115093580D01*
X179375676Y-115093580D01*
X179375677Y-115093581D01*
X179511004Y-115120500D01*
X179511007Y-115120500D01*
X179648994Y-115120500D01*
X188584652Y-115120500D01*
X188651691Y-115140185D01*
X188695137Y-115188205D01*
X188731132Y-115258848D01*
X188879201Y-115462649D01*
X188879205Y-115462654D01*
X189057345Y-115640794D01*
X189057350Y-115640798D01*
X189261153Y-115788869D01*
X189331794Y-115824862D01*
X189382590Y-115872836D01*
X189399500Y-115935347D01*
X189399500Y-118444300D01*
X189379815Y-118511339D01*
X189327011Y-118557094D01*
X189257853Y-118567038D01*
X189194297Y-118538013D01*
X189175184Y-118517188D01*
X189168247Y-118507640D01*
X189012363Y-118351756D01*
X189012358Y-118351752D01*
X188834025Y-118222187D01*
X188834024Y-118222186D01*
X188834022Y-118222185D01*
X188771096Y-118190122D01*
X188637606Y-118122104D01*
X188637603Y-118122103D01*
X188427952Y-118053985D01*
X188319086Y-118036742D01*
X188210222Y-118019500D01*
X187989778Y-118019500D01*
X187917201Y-118030995D01*
X187772047Y-118053985D01*
X187562396Y-118122103D01*
X187562393Y-118122104D01*
X187365974Y-118222187D01*
X187187641Y-118351752D01*
X187187636Y-118351756D01*
X187031758Y-118507634D01*
X187024817Y-118517188D01*
X186914965Y-118668386D01*
X186859638Y-118711051D01*
X186814649Y-118719500D01*
X182511004Y-118719500D01*
X182375677Y-118746418D01*
X182375667Y-118746421D01*
X182248192Y-118799222D01*
X182133454Y-118875887D01*
X182087679Y-118921662D01*
X182026356Y-118955146D01*
X181956664Y-118950161D01*
X181912318Y-118921661D01*
X174866546Y-111875888D01*
X174866545Y-111875887D01*
X174751807Y-111799222D01*
X174624332Y-111746421D01*
X174624322Y-111746418D01*
X174488996Y-111719500D01*
X174488994Y-111719500D01*
X174488993Y-111719500D01*
X173261744Y-111719500D01*
X173194705Y-111699815D01*
X173161425Y-111668384D01*
X173091969Y-111572784D01*
X172947213Y-111428028D01*
X172781613Y-111307715D01*
X172781612Y-111307714D01*
X172781610Y-111307713D01*
X172706992Y-111269693D01*
X172599223Y-111214781D01*
X172404534Y-111151522D01*
X172229995Y-111123878D01*
X172202352Y-111119500D01*
X171997648Y-111119500D01*
X171973329Y-111123351D01*
X171795465Y-111151522D01*
X171600776Y-111214781D01*
X171418386Y-111307715D01*
X171252786Y-111428028D01*
X171108028Y-111572786D01*
X170987715Y-111738386D01*
X170894781Y-111920776D01*
X170831522Y-112115465D01*
X170799500Y-112317648D01*
X170799500Y-112522351D01*
X170831522Y-112724534D01*
X170894781Y-112919223D01*
X170958691Y-113044653D01*
X170967196Y-113061344D01*
X170987715Y-113101613D01*
X171108028Y-113267213D01*
X171252786Y-113411971D01*
X171393629Y-113514297D01*
X171418390Y-113532287D01*
X171514291Y-113581151D01*
X171600776Y-113625218D01*
X171600778Y-113625218D01*
X171600781Y-113625220D01*
X171705137Y-113659127D01*
X171795465Y-113688477D01*
X171867050Y-113699815D01*
X171997648Y-113720500D01*
X171997649Y-113720500D01*
X172202351Y-113720500D01*
X172202352Y-113720500D01*
X172404534Y-113688477D01*
X172599219Y-113625220D01*
X172781610Y-113532287D01*
X172874590Y-113464732D01*
X172947213Y-113411971D01*
X172947215Y-113411968D01*
X172947219Y-113411966D01*
X173091966Y-113267219D01*
X173161425Y-113171615D01*
X173216755Y-113128949D01*
X173261744Y-113120500D01*
X174078481Y-113120500D01*
X174145520Y-113140185D01*
X174166162Y-113156819D01*
X181553453Y-120544111D01*
X181553454Y-120544112D01*
X181668192Y-120620777D01*
X181795667Y-120673578D01*
X181795672Y-120673580D01*
X181795676Y-120673580D01*
X181795677Y-120673581D01*
X181931003Y-120700500D01*
X181931006Y-120700500D01*
X182068996Y-120700500D01*
X182160042Y-120682389D01*
X182204329Y-120673580D01*
X182331811Y-120620775D01*
X182446543Y-120544114D01*
X182544114Y-120446543D01*
X182833838Y-120156819D01*
X182895161Y-120123334D01*
X182921519Y-120120500D01*
X186814649Y-120120500D01*
X186881688Y-120140185D01*
X186914964Y-120171611D01*
X187002291Y-120291807D01*
X187031758Y-120332365D01*
X187081928Y-120382535D01*
X187115413Y-120443858D01*
X187110429Y-120513550D01*
X187068557Y-120569483D01*
X187037581Y-120586398D01*
X186957669Y-120616203D01*
X186957664Y-120616206D01*
X186842455Y-120702452D01*
X186842452Y-120702455D01*
X186756206Y-120817664D01*
X186756202Y-120817671D01*
X186705908Y-120952517D01*
X186699501Y-121012116D01*
X186699500Y-121012135D01*
X186699500Y-122907870D01*
X186699501Y-122907876D01*
X186705908Y-122967483D01*
X186756202Y-123102328D01*
X186756206Y-123102335D01*
X186842452Y-123217544D01*
X186842455Y-123217547D01*
X186957664Y-123303793D01*
X186957671Y-123303797D01*
X187092517Y-123354091D01*
X187092516Y-123354091D01*
X187099444Y-123354835D01*
X187152127Y-123360500D01*
X189047872Y-123360499D01*
X189107483Y-123354091D01*
X189242331Y-123303796D01*
X189357546Y-123217546D01*
X189443796Y-123102331D01*
X189494091Y-122967483D01*
X189500500Y-122907873D01*
X189500499Y-121601518D01*
X189509143Y-121572078D01*
X189515667Y-121542092D01*
X189519421Y-121537076D01*
X189520184Y-121534480D01*
X189536818Y-121513838D01*
X189558104Y-121492552D01*
X190098140Y-120952517D01*
X190644114Y-120406543D01*
X190720775Y-120291811D01*
X190773580Y-120164328D01*
X190782298Y-120120500D01*
X190800500Y-120028993D01*
X190800500Y-116531622D01*
X190820185Y-116464583D01*
X190872989Y-116418828D01*
X190942147Y-116408884D01*
X190948692Y-116410005D01*
X191001457Y-116420501D01*
X191001460Y-116420501D01*
X191204655Y-116420501D01*
X191204675Y-116420500D01*
X199841252Y-116420500D01*
X199908291Y-116440185D01*
X199928933Y-116456819D01*
X200029005Y-116556891D01*
X200029010Y-116556895D01*
X200194558Y-116677171D01*
X200218808Y-116694790D01*
X200427847Y-116801301D01*
X200427849Y-116801302D01*
X200539410Y-116837550D01*
X200650974Y-116873799D01*
X200882695Y-116910500D01*
X200882696Y-116910500D01*
X201117304Y-116910500D01*
X201117305Y-116910500D01*
X201349026Y-116873799D01*
X201572153Y-116801301D01*
X201781192Y-116694790D01*
X201970996Y-116556890D01*
X202136890Y-116390996D01*
X202274790Y-116201192D01*
X202381301Y-115992153D01*
X202453799Y-115769026D01*
X202490500Y-115537305D01*
X202490500Y-115302695D01*
X211709500Y-115302695D01*
X211709500Y-115537304D01*
X211746201Y-115769027D01*
X211818697Y-115992150D01*
X211925212Y-116201195D01*
X212063104Y-116390989D01*
X212063108Y-116390994D01*
X212229005Y-116556891D01*
X212229010Y-116556895D01*
X212394558Y-116677171D01*
X212418808Y-116694790D01*
X212627847Y-116801301D01*
X212627849Y-116801302D01*
X212739410Y-116837550D01*
X212850974Y-116873799D01*
X213082695Y-116910500D01*
X213082696Y-116910500D01*
X213317304Y-116910500D01*
X213317305Y-116910500D01*
X213549026Y-116873799D01*
X213772153Y-116801301D01*
X213981192Y-116694790D01*
X214170996Y-116556890D01*
X214271067Y-116456819D01*
X214332390Y-116423334D01*
X214358748Y-116420500D01*
X225358543Y-116420500D01*
X225417871Y-116408698D01*
X225506866Y-116390996D01*
X225547665Y-116382880D01*
X225571851Y-116380499D01*
X227200002Y-116380499D01*
X227200008Y-116380499D01*
X227302797Y-116369999D01*
X227469334Y-116314814D01*
X227618656Y-116222712D01*
X227742712Y-116098656D01*
X227834814Y-115949334D01*
X227889999Y-115782797D01*
X227900500Y-115680009D01*
X227900499Y-113479992D01*
X227889999Y-113377203D01*
X227834814Y-113210666D01*
X227742712Y-113061344D01*
X227618656Y-112937288D01*
X227525888Y-112880069D01*
X227469336Y-112845187D01*
X227469331Y-112845185D01*
X227467862Y-112844698D01*
X227302797Y-112790001D01*
X227302795Y-112790000D01*
X227200010Y-112779500D01*
X224999998Y-112779500D01*
X224999981Y-112779501D01*
X224897203Y-112790000D01*
X224897200Y-112790001D01*
X224730668Y-112845185D01*
X224730663Y-112845187D01*
X224581342Y-112937289D01*
X224457289Y-113061342D01*
X224365187Y-113210663D01*
X224365186Y-113210666D01*
X224310001Y-113377203D01*
X224310001Y-113377204D01*
X224310000Y-113377204D01*
X224299500Y-113479983D01*
X224299500Y-114295500D01*
X224279815Y-114362539D01*
X224227011Y-114408294D01*
X224175500Y-114419500D01*
X214358748Y-114419500D01*
X214291709Y-114399815D01*
X214271067Y-114383181D01*
X214170994Y-114283108D01*
X214170989Y-114283104D01*
X213981195Y-114145212D01*
X213981194Y-114145211D01*
X213981192Y-114145210D01*
X213876672Y-114091954D01*
X213772150Y-114038697D01*
X213549027Y-113966201D01*
X213433165Y-113947850D01*
X213317305Y-113929500D01*
X213082695Y-113929500D01*
X213005454Y-113941733D01*
X212850972Y-113966201D01*
X212627849Y-114038697D01*
X212418804Y-114145212D01*
X212229010Y-114283104D01*
X212229005Y-114283108D01*
X212063108Y-114449005D01*
X212063104Y-114449010D01*
X211925212Y-114638804D01*
X211818697Y-114847849D01*
X211746201Y-115070972D01*
X211709500Y-115302695D01*
X202490500Y-115302695D01*
X202453799Y-115070974D01*
X202381301Y-114847847D01*
X202274790Y-114638808D01*
X202257171Y-114614558D01*
X202136895Y-114449010D01*
X202136891Y-114449005D01*
X201970994Y-114283108D01*
X201970989Y-114283104D01*
X201781195Y-114145212D01*
X201781194Y-114145211D01*
X201781192Y-114145210D01*
X201676672Y-114091954D01*
X201572150Y-114038697D01*
X201349027Y-113966201D01*
X201233165Y-113947850D01*
X201117305Y-113929500D01*
X200882695Y-113929500D01*
X200805454Y-113941733D01*
X200650972Y-113966201D01*
X200427849Y-114038697D01*
X200218804Y-114145212D01*
X200029010Y-114283104D01*
X200029005Y-114283108D01*
X199928933Y-114383181D01*
X199867610Y-114416666D01*
X199841252Y-114419500D01*
X191824500Y-114419500D01*
X191757461Y-114399815D01*
X191711706Y-114347011D01*
X191701233Y-114298873D01*
X191700883Y-114298901D01*
X191700680Y-114296329D01*
X191700500Y-114295500D01*
X191700500Y-114294038D01*
X191698768Y-114283104D01*
X191661090Y-114045215D01*
X191583241Y-113805621D01*
X191583239Y-113805618D01*
X191583239Y-113805616D01*
X191520212Y-113681920D01*
X191468870Y-113581155D01*
X191420295Y-113514297D01*
X191320798Y-113377350D01*
X191320794Y-113377345D01*
X191142654Y-113199205D01*
X191142649Y-113199201D01*
X190938848Y-113051132D01*
X190938847Y-113051131D01*
X190938845Y-113051130D01*
X190868747Y-113015413D01*
X190714383Y-112936760D01*
X190474785Y-112858910D01*
X190388142Y-112845187D01*
X190225962Y-112819500D01*
X189974038Y-112819500D01*
X189849626Y-112839205D01*
X189725214Y-112858910D01*
X189485616Y-112936760D01*
X189261151Y-113051132D01*
X189057350Y-113199201D01*
X189057345Y-113199205D01*
X188879205Y-113377345D01*
X188879201Y-113377350D01*
X188731132Y-113581151D01*
X188695137Y-113651795D01*
X188647162Y-113702591D01*
X188584652Y-113719500D01*
X183065567Y-113719500D01*
X182998528Y-113699815D01*
X182952773Y-113647011D01*
X182942829Y-113577853D01*
X182971854Y-113514297D01*
X182992682Y-113495181D01*
X183013588Y-113479992D01*
X183107219Y-113411966D01*
X183251966Y-113267219D01*
X183251968Y-113267215D01*
X183251971Y-113267213D01*
X183321425Y-113171616D01*
X183372287Y-113101610D01*
X183465220Y-112919219D01*
X183528477Y-112724534D01*
X183551925Y-112576483D01*
X183581854Y-112513350D01*
X183586699Y-112508219D01*
X185059131Y-111035787D01*
X195496450Y-111035787D01*
X195496981Y-111038377D01*
X195499500Y-111063242D01*
X195499500Y-111065892D01*
X195512669Y-111115041D01*
X195522871Y-111164894D01*
X195529671Y-111178495D01*
X195532920Y-111190619D01*
X195533608Y-111193186D01*
X195557200Y-111234050D01*
X195557199Y-111234050D01*
X195559060Y-111237274D01*
X195581807Y-111282766D01*
X195591892Y-111294138D01*
X195598169Y-111305010D01*
X195598171Y-111305013D01*
X195599498Y-111307311D01*
X195599500Y-111307314D01*
X195599503Y-111307317D01*
X195632849Y-111340663D01*
X195637930Y-111346057D01*
X195669242Y-111381368D01*
X195669244Y-111381369D01*
X195671456Y-111382830D01*
X195681934Y-111389748D01*
X195692686Y-111400500D01*
X195736736Y-111425932D01*
X195739836Y-111427979D01*
X195739845Y-111427984D01*
X195739912Y-111428028D01*
X195779217Y-111453979D01*
X195793642Y-111458787D01*
X195806814Y-111466392D01*
X195855967Y-111479562D01*
X198781729Y-112454816D01*
X198804518Y-112465066D01*
X198806814Y-112466392D01*
X198855967Y-112479562D01*
X198904239Y-112495653D01*
X198919419Y-112496564D01*
X198934108Y-112500500D01*
X198981275Y-112500500D01*
X198988705Y-112500723D01*
X199035787Y-112503549D01*
X199038387Y-112503017D01*
X199063245Y-112500500D01*
X201065890Y-112500500D01*
X201065892Y-112500500D01*
X201193186Y-112466392D01*
X201307314Y-112400500D01*
X201400500Y-112307314D01*
X201466392Y-112193186D01*
X201500500Y-112065892D01*
X201500500Y-110934108D01*
X201466392Y-110806814D01*
X201400500Y-110692686D01*
X201339995Y-110632181D01*
X201306510Y-110570858D01*
X201311494Y-110501166D01*
X201353366Y-110445233D01*
X201418830Y-110420816D01*
X201427676Y-110420500D01*
X224480822Y-110420500D01*
X224547861Y-110440185D01*
X224588208Y-110482499D01*
X224599727Y-110502450D01*
X224599730Y-110502454D01*
X224599733Y-110502458D01*
X224743406Y-110689697D01*
X224743412Y-110689704D01*
X224910295Y-110856587D01*
X224910301Y-110856592D01*
X225097550Y-111000273D01*
X225228918Y-111076118D01*
X225301943Y-111118280D01*
X225301948Y-111118282D01*
X225301951Y-111118284D01*
X225520007Y-111208606D01*
X225747986Y-111269693D01*
X225981989Y-111300500D01*
X225981996Y-111300500D01*
X226218004Y-111300500D01*
X226218011Y-111300500D01*
X226452014Y-111269693D01*
X226679993Y-111208606D01*
X226898049Y-111118284D01*
X227102450Y-111000273D01*
X227289699Y-110856592D01*
X227456592Y-110689699D01*
X227600273Y-110502450D01*
X227718284Y-110298049D01*
X227808606Y-110079993D01*
X227869693Y-109852014D01*
X227900500Y-109618011D01*
X227900500Y-109381989D01*
X227869693Y-109147986D01*
X227808606Y-108920007D01*
X227718284Y-108701951D01*
X227718282Y-108701948D01*
X227718280Y-108701943D01*
X227614592Y-108522352D01*
X227600273Y-108497550D01*
X227456592Y-108310301D01*
X227456587Y-108310295D01*
X227289704Y-108143412D01*
X227289697Y-108143406D01*
X227102454Y-107999730D01*
X227102453Y-107999729D01*
X227102450Y-107999727D01*
X227015132Y-107949314D01*
X226898056Y-107881719D01*
X226898045Y-107881714D01*
X226679993Y-107791394D01*
X226452010Y-107730306D01*
X226218020Y-107699501D01*
X226218017Y-107699500D01*
X226218011Y-107699500D01*
X225981989Y-107699500D01*
X225981983Y-107699500D01*
X225981979Y-107699501D01*
X225747989Y-107730306D01*
X225520006Y-107791394D01*
X225301954Y-107881714D01*
X225301943Y-107881719D01*
X225097545Y-107999730D01*
X224910302Y-108143406D01*
X224910295Y-108143412D01*
X224743412Y-108310295D01*
X224743406Y-108310302D01*
X224696843Y-108370986D01*
X224640416Y-108412189D01*
X224598467Y-108419500D01*
X201550504Y-108419500D01*
X201483465Y-108399815D01*
X201437710Y-108347011D01*
X201427766Y-108277853D01*
X201443117Y-108233499D01*
X201466391Y-108193187D01*
X201466392Y-108193186D01*
X201500500Y-108065892D01*
X201500500Y-106934108D01*
X201466392Y-106806814D01*
X201400500Y-106692686D01*
X201307314Y-106599500D01*
X201213233Y-106545182D01*
X201193187Y-106533608D01*
X201083981Y-106504347D01*
X201065892Y-106499500D01*
X201065891Y-106499500D01*
X199050687Y-106499500D01*
X199035787Y-106496451D01*
X198984990Y-106499500D01*
X198934108Y-106499500D01*
X198934107Y-106499500D01*
X198931534Y-106500189D01*
X198931533Y-106500188D01*
X198919413Y-106503435D01*
X198904239Y-106504347D01*
X198855995Y-106520427D01*
X198852407Y-106521389D01*
X198852389Y-106521395D01*
X198806810Y-106533609D01*
X198804513Y-106534936D01*
X198781731Y-106545182D01*
X195859498Y-107519259D01*
X195859497Y-107519258D01*
X195855932Y-107520446D01*
X195806814Y-107533608D01*
X195793646Y-107541209D01*
X195781738Y-107545179D01*
X195781738Y-107545180D01*
X195779220Y-107546019D01*
X195779218Y-107546020D01*
X195739848Y-107572013D01*
X195739847Y-107572012D01*
X195736727Y-107574072D01*
X195692686Y-107599500D01*
X195681937Y-107610247D01*
X195671474Y-107617156D01*
X195671471Y-107617159D01*
X195669244Y-107618629D01*
X195637947Y-107653921D01*
X195635480Y-107656705D01*
X195599500Y-107692686D01*
X195591896Y-107705855D01*
X195583564Y-107715252D01*
X195583562Y-107715253D01*
X195581809Y-107717229D01*
X195581804Y-107717237D01*
X195560713Y-107759419D01*
X195557193Y-107765961D01*
X195533607Y-107806813D01*
X195533606Y-107806816D01*
X195532917Y-107809389D01*
X195529671Y-107821504D01*
X195522871Y-107835106D01*
X195512669Y-107884956D01*
X195511707Y-107888548D01*
X195499500Y-107934104D01*
X195499500Y-107936755D01*
X195498463Y-107946988D01*
X195498562Y-107951981D01*
X195497961Y-107956830D01*
X195496451Y-107964214D01*
X195496646Y-107967464D01*
X195496646Y-107967465D01*
X195499277Y-108011294D01*
X195499500Y-108018724D01*
X195499500Y-110981274D01*
X195499277Y-110988703D01*
X195496450Y-111035787D01*
X185059131Y-111035787D01*
X190198102Y-105896818D01*
X190259425Y-105863333D01*
X190285783Y-105860499D01*
X191247871Y-105860499D01*
X191247872Y-105860499D01*
X191307483Y-105854091D01*
X191442331Y-105803796D01*
X191557546Y-105717546D01*
X191643796Y-105602331D01*
X191694091Y-105467483D01*
X191700500Y-105407873D01*
X191700500Y-105384500D01*
X191720185Y-105317461D01*
X191772989Y-105271706D01*
X191824500Y-105260500D01*
X200258542Y-105260500D01*
X200296474Y-105252954D01*
X200355188Y-105241275D01*
X200451836Y-105222051D01*
X200511976Y-105197140D01*
X200633914Y-105146632D01*
X200797782Y-105037139D01*
X200888102Y-104946817D01*
X200949425Y-104913333D01*
X200975784Y-104910499D01*
X202037871Y-104910499D01*
X202037872Y-104910499D01*
X202097483Y-104904091D01*
X202232331Y-104853796D01*
X202347546Y-104767546D01*
X202433796Y-104652331D01*
X202484091Y-104517483D01*
X202484091Y-104517477D01*
X202484445Y-104515985D01*
X202485039Y-104514941D01*
X202486802Y-104510215D01*
X202487567Y-104510500D01*
X202519019Y-104455269D01*
X202580930Y-104422883D01*
X202605122Y-104420500D01*
X203237065Y-104420500D01*
X203273796Y-104413193D01*
X203385388Y-104390996D01*
X203430358Y-104382051D01*
X203487118Y-104358540D01*
X203612436Y-104306632D01*
X203776304Y-104197139D01*
X203915661Y-104057782D01*
X203915662Y-104057780D01*
X203922728Y-104050714D01*
X203922731Y-104050710D01*
X204670746Y-103302695D01*
X211709500Y-103302695D01*
X211709500Y-103537304D01*
X211746201Y-103769027D01*
X211818697Y-103992150D01*
X211818699Y-103992153D01*
X211923145Y-104197140D01*
X211925212Y-104201195D01*
X212063104Y-104390989D01*
X212063108Y-104390994D01*
X212229005Y-104556891D01*
X212229010Y-104556895D01*
X212360364Y-104652328D01*
X212418808Y-104694790D01*
X212588505Y-104781255D01*
X212627849Y-104801302D01*
X212739410Y-104837550D01*
X212850974Y-104873799D01*
X213082695Y-104910500D01*
X213082696Y-104910500D01*
X213317304Y-104910500D01*
X213317305Y-104910500D01*
X213549026Y-104873799D01*
X213772153Y-104801301D01*
X213981192Y-104694790D01*
X214170996Y-104556890D01*
X214271067Y-104456819D01*
X214332390Y-104423334D01*
X214358748Y-104420500D01*
X224175659Y-104420500D01*
X224242698Y-104440185D01*
X224288453Y-104492989D01*
X224298794Y-104534010D01*
X224298970Y-104533987D01*
X224299168Y-104535494D01*
X224299393Y-104536385D01*
X224299499Y-104538009D01*
X224330306Y-104772010D01*
X224330307Y-104772014D01*
X224352221Y-104853797D01*
X224391394Y-104999993D01*
X224481714Y-105218045D01*
X224481719Y-105218056D01*
X224552677Y-105340957D01*
X224599727Y-105422450D01*
X224599729Y-105422453D01*
X224599730Y-105422454D01*
X224743406Y-105609697D01*
X224743412Y-105609704D01*
X224910295Y-105776587D01*
X224910301Y-105776592D01*
X225097550Y-105920273D01*
X225228918Y-105996118D01*
X225301943Y-106038280D01*
X225301948Y-106038282D01*
X225301951Y-106038284D01*
X225520007Y-106128606D01*
X225747986Y-106189693D01*
X225981989Y-106220500D01*
X225981996Y-106220500D01*
X226218004Y-106220500D01*
X226218011Y-106220500D01*
X226452014Y-106189693D01*
X226679993Y-106128606D01*
X226898049Y-106038284D01*
X227102450Y-105920273D01*
X227289699Y-105776592D01*
X227456592Y-105609699D01*
X227600273Y-105422450D01*
X227718284Y-105218049D01*
X227808606Y-104999993D01*
X227869693Y-104772014D01*
X227900500Y-104538011D01*
X227900500Y-104301989D01*
X227869693Y-104067986D01*
X227808606Y-103840007D01*
X227718284Y-103621951D01*
X227718282Y-103621948D01*
X227718280Y-103621943D01*
X227676118Y-103548918D01*
X227600273Y-103417550D01*
X227478997Y-103259500D01*
X227456593Y-103230302D01*
X227456587Y-103230295D01*
X227289704Y-103063412D01*
X227289697Y-103063406D01*
X227102454Y-102919730D01*
X227102453Y-102919729D01*
X227102450Y-102919727D01*
X226977954Y-102847849D01*
X226898056Y-102801719D01*
X226898045Y-102801714D01*
X226679993Y-102711394D01*
X226510241Y-102665909D01*
X226452014Y-102650307D01*
X226452013Y-102650306D01*
X226452010Y-102650306D01*
X226218020Y-102619501D01*
X226218017Y-102619500D01*
X226218011Y-102619500D01*
X225981989Y-102619500D01*
X225981983Y-102619500D01*
X225981978Y-102619501D01*
X225795042Y-102644111D01*
X225726007Y-102633345D01*
X225709966Y-102624274D01*
X225573920Y-102533371D01*
X225573911Y-102533366D01*
X225501315Y-102503296D01*
X225445165Y-102480038D01*
X225391836Y-102457949D01*
X225391832Y-102457948D01*
X225391828Y-102457946D01*
X225295188Y-102438724D01*
X225198544Y-102419500D01*
X225198541Y-102419500D01*
X214358748Y-102419500D01*
X214291709Y-102399815D01*
X214271067Y-102383181D01*
X214170994Y-102283108D01*
X214170989Y-102283104D01*
X213981195Y-102145212D01*
X213981194Y-102145211D01*
X213981192Y-102145210D01*
X213831612Y-102068995D01*
X213772150Y-102038697D01*
X213549027Y-101966201D01*
X213433165Y-101947850D01*
X213317305Y-101929500D01*
X213082695Y-101929500D01*
X213005454Y-101941733D01*
X212850972Y-101966201D01*
X212627849Y-102038697D01*
X212418804Y-102145212D01*
X212229010Y-102283104D01*
X212229005Y-102283108D01*
X212063108Y-102449005D01*
X212063104Y-102449010D01*
X211925212Y-102638804D01*
X211818697Y-102847849D01*
X211746201Y-103070972D01*
X211709500Y-103302695D01*
X204670746Y-103302695D01*
X214316778Y-93656663D01*
X214316782Y-93656661D01*
X214456139Y-93517304D01*
X214565632Y-93353436D01*
X214641051Y-93171357D01*
X214657125Y-93090548D01*
X214679500Y-92978065D01*
X214679500Y-92868361D01*
X214699185Y-92801322D01*
X214751989Y-92755567D01*
X214821147Y-92745623D01*
X214878987Y-92769986D01*
X214955382Y-92828607D01*
X214955385Y-92828608D01*
X214955388Y-92828611D01*
X215154112Y-92943344D01*
X215154117Y-92943346D01*
X215154123Y-92943349D01*
X215227255Y-92973641D01*
X215366113Y-93031158D01*
X215587762Y-93090548D01*
X215815266Y-93120500D01*
X215815273Y-93120500D01*
X216044727Y-93120500D01*
X216044734Y-93120500D01*
X216272238Y-93090548D01*
X216493887Y-93031158D01*
X216705888Y-92943344D01*
X216904612Y-92828611D01*
X217086661Y-92688919D01*
X217086665Y-92688914D01*
X217086670Y-92688911D01*
X217248910Y-92526670D01*
X217248919Y-92526661D01*
X217388611Y-92344612D01*
X217503344Y-92145888D01*
X217591158Y-91933887D01*
X217650548Y-91712238D01*
X217680500Y-91484734D01*
X217680500Y-91255266D01*
X217650548Y-91027762D01*
X217591158Y-90806113D01*
X217503344Y-90594112D01*
X217388611Y-90395388D01*
X217388608Y-90395385D01*
X217388607Y-90395382D01*
X217329986Y-90318987D01*
X217304791Y-90253818D01*
X217318829Y-90185373D01*
X217367643Y-90135383D01*
X217428361Y-90119500D01*
X225069996Y-90119500D01*
X225161040Y-90101389D01*
X225205328Y-90092580D01*
X225269069Y-90066177D01*
X225332807Y-90039777D01*
X225332808Y-90039776D01*
X225332811Y-90039775D01*
X225447543Y-89963114D01*
X226537819Y-88872836D01*
X226599142Y-88839352D01*
X226668833Y-88844336D01*
X226724767Y-88886207D01*
X226749184Y-88951672D01*
X226749500Y-88960518D01*
X226749500Y-89058422D01*
X226780290Y-89252826D01*
X226841117Y-89440029D01*
X226930476Y-89615405D01*
X227046172Y-89774646D01*
X227185354Y-89913828D01*
X227253190Y-89963114D01*
X227344596Y-90029525D01*
X227521763Y-90119795D01*
X227572560Y-90167769D01*
X227589355Y-90235590D01*
X227566818Y-90301725D01*
X227521764Y-90340765D01*
X227344859Y-90430902D01*
X227309873Y-90456320D01*
X227309872Y-90456320D01*
X227953554Y-91100000D01*
X227947339Y-91100000D01*
X227845606Y-91127259D01*
X227754394Y-91179920D01*
X227679920Y-91254394D01*
X227627259Y-91345606D01*
X227600000Y-91447339D01*
X227600000Y-91453552D01*
X226956320Y-90809872D01*
X226956320Y-90809873D01*
X226930902Y-90844859D01*
X226930899Y-90844863D01*
X226841582Y-91020161D01*
X226780778Y-91207294D01*
X226750000Y-91401617D01*
X226750000Y-91598382D01*
X226780778Y-91792705D01*
X226841581Y-91979835D01*
X226930905Y-92155145D01*
X226956319Y-92190125D01*
X226956320Y-92190125D01*
X227600000Y-91546445D01*
X227600000Y-91552661D01*
X227627259Y-91654394D01*
X227679920Y-91745606D01*
X227754394Y-91820080D01*
X227845606Y-91872741D01*
X227947339Y-91900000D01*
X227953553Y-91900000D01*
X227309873Y-92543677D01*
X227309873Y-92543678D01*
X227344858Y-92569096D01*
X227520164Y-92658418D01*
X227707294Y-92719221D01*
X227901618Y-92750000D01*
X228098382Y-92750000D01*
X228292705Y-92719221D01*
X228479835Y-92658418D01*
X228655143Y-92569095D01*
X228690125Y-92543678D01*
X228690126Y-92543678D01*
X228046448Y-91900000D01*
X228052661Y-91900000D01*
X228154394Y-91872741D01*
X228245606Y-91820080D01*
X228320080Y-91745606D01*
X228372741Y-91654394D01*
X228400000Y-91552661D01*
X228400000Y-91546447D01*
X229043678Y-92190126D01*
X229043678Y-92190125D01*
X229069095Y-92155143D01*
X229158418Y-91979835D01*
X229219221Y-91792705D01*
X229250000Y-91598382D01*
X229250000Y-91401617D01*
X229219221Y-91207294D01*
X229158418Y-91020164D01*
X229069096Y-90844858D01*
X229043678Y-90809873D01*
X229043677Y-90809873D01*
X228400000Y-91453551D01*
X228400000Y-91447339D01*
X228372741Y-91345606D01*
X228320080Y-91254394D01*
X228245606Y-91179920D01*
X228154394Y-91127259D01*
X228052661Y-91100000D01*
X228046447Y-91100000D01*
X228690125Y-90456320D01*
X228690125Y-90456319D01*
X228655145Y-90430905D01*
X228478235Y-90340765D01*
X228427439Y-90292790D01*
X228410644Y-90224969D01*
X228433182Y-90158834D01*
X228478236Y-90119795D01*
X228480022Y-90118884D01*
X228480025Y-90118884D01*
X228655405Y-90029524D01*
X228814646Y-89913828D01*
X228953828Y-89774646D01*
X229069524Y-89615405D01*
X229158884Y-89440025D01*
X229219709Y-89252826D01*
X229229427Y-89191471D01*
X229250500Y-89058422D01*
X229250500Y-88861577D01*
X229219709Y-88667173D01*
X229190362Y-88576853D01*
X229158884Y-88479975D01*
X229158882Y-88479972D01*
X229158882Y-88479970D01*
X229069523Y-88304594D01*
X229059914Y-88291368D01*
X228953828Y-88145354D01*
X228814646Y-88006172D01*
X228711188Y-87931005D01*
X228655403Y-87890474D01*
X228478787Y-87800485D01*
X228427990Y-87752511D01*
X228411195Y-87684690D01*
X228433732Y-87618555D01*
X228478787Y-87579515D01*
X228655403Y-87489525D01*
X228655402Y-87489525D01*
X228655405Y-87489524D01*
X228814646Y-87373828D01*
X228953828Y-87234646D01*
X229069524Y-87075405D01*
X229158884Y-86900025D01*
X229219709Y-86712826D01*
X229226492Y-86670000D01*
X229250500Y-86518422D01*
X229250500Y-86321577D01*
X229219709Y-86127173D01*
X229170588Y-85975996D01*
X229158884Y-85939975D01*
X229158882Y-85939972D01*
X229158882Y-85939970D01*
X229069523Y-85764594D01*
X229059914Y-85751368D01*
X228953828Y-85605354D01*
X228814646Y-85466172D01*
X228661377Y-85354815D01*
X228618714Y-85299487D01*
X228612735Y-85229873D01*
X228645341Y-85168078D01*
X228706180Y-85133721D01*
X228734264Y-85130499D01*
X228797872Y-85130499D01*
X228857483Y-85124091D01*
X228992331Y-85073796D01*
X229107546Y-84987546D01*
X229134227Y-84951903D01*
X229150485Y-84930188D01*
X229206419Y-84888318D01*
X229249751Y-84880500D01*
X231486616Y-84880500D01*
X231534069Y-84889939D01*
X231631239Y-84930188D01*
X231708165Y-84962052D01*
X231869389Y-84994121D01*
X231901457Y-85000499D01*
X231901458Y-85000500D01*
X231901459Y-85000500D01*
X232098542Y-85000500D01*
X232098543Y-85000499D01*
X232291836Y-84962052D01*
X232473915Y-84886632D01*
X232637782Y-84777140D01*
X232777140Y-84637782D01*
X232886632Y-84473915D01*
X232962052Y-84291836D01*
X233000500Y-84098541D01*
X233000500Y-83901460D01*
X233000500Y-71901459D01*
X233000500Y-48901459D01*
X233000500Y-40769548D01*
X233020185Y-40702509D01*
X233072989Y-40656754D01*
X233142147Y-40646810D01*
X233205703Y-40675835D01*
X233227602Y-40700657D01*
X233386422Y-40938348D01*
X233386432Y-40938362D01*
X233531418Y-41115027D01*
X234705747Y-39940697D01*
X234779588Y-40042330D01*
X234957670Y-40220412D01*
X235059301Y-40294251D01*
X233884971Y-41468580D01*
X233884972Y-41468581D01*
X234061637Y-41613567D01*
X234061651Y-41613577D01*
X234327144Y-41790974D01*
X234327162Y-41790985D01*
X234608762Y-41941504D01*
X234608767Y-41941506D01*
X234903786Y-42063707D01*
X235209371Y-42156405D01*
X235209382Y-42156408D01*
X235522544Y-42218698D01*
X235522561Y-42218701D01*
X235840341Y-42250000D01*
X236159659Y-42250000D01*
X236477438Y-42218701D01*
X236477455Y-42218698D01*
X236790617Y-42156408D01*
X236790628Y-42156405D01*
X237096213Y-42063707D01*
X237391232Y-41941506D01*
X237391237Y-41941504D01*
X237672837Y-41790985D01*
X237672855Y-41790974D01*
X237938348Y-41613577D01*
X237938361Y-41613567D01*
X238115026Y-41468581D01*
X238115027Y-41468580D01*
X236940698Y-40294251D01*
X237042330Y-40220412D01*
X237220412Y-40042330D01*
X237294251Y-39940698D01*
X238468580Y-41115027D01*
X238468581Y-41115026D01*
X238613567Y-40938361D01*
X238613577Y-40938348D01*
X238790974Y-40672855D01*
X238790985Y-40672837D01*
X238941504Y-40391237D01*
X238941506Y-40391232D01*
X239063707Y-40096213D01*
X239156405Y-39790628D01*
X239156408Y-39790617D01*
X239218698Y-39477455D01*
X239218701Y-39477438D01*
X239250000Y-39159658D01*
X239250000Y-38840341D01*
X239218701Y-38522561D01*
X239218698Y-38522544D01*
X239156408Y-38209382D01*
X239156405Y-38209371D01*
X239063707Y-37903786D01*
X238941506Y-37608767D01*
X238941504Y-37608762D01*
X238790985Y-37327162D01*
X238790974Y-37327144D01*
X238613577Y-37061651D01*
X238613567Y-37061637D01*
X238468581Y-36884972D01*
X238468580Y-36884971D01*
X237294251Y-38059300D01*
X237220412Y-37957670D01*
X237042330Y-37779588D01*
X236940698Y-37705748D01*
X238115027Y-36531418D01*
X237938362Y-36386432D01*
X237938348Y-36386422D01*
X237672855Y-36209025D01*
X237672837Y-36209014D01*
X237391237Y-36058495D01*
X237391232Y-36058493D01*
X237096213Y-35936292D01*
X236790628Y-35843594D01*
X236790617Y-35843591D01*
X236477455Y-35781301D01*
X236477438Y-35781298D01*
X236159659Y-35750000D01*
X235840341Y-35750000D01*
X235522561Y-35781298D01*
X235522544Y-35781301D01*
X235209382Y-35843591D01*
X235209371Y-35843594D01*
X234903786Y-35936292D01*
X234608767Y-36058493D01*
X234608762Y-36058495D01*
X234327162Y-36209014D01*
X234327144Y-36209025D01*
X234061651Y-36386422D01*
X234061650Y-36386423D01*
X233884971Y-36531418D01*
X235059301Y-37705748D01*
X234957670Y-37779588D01*
X234779588Y-37957670D01*
X234705748Y-38059301D01*
X233531418Y-36884971D01*
X233386423Y-37061650D01*
X233386422Y-37061651D01*
X233209025Y-37327144D01*
X233209019Y-37327154D01*
X233104018Y-37523597D01*
X233055055Y-37573441D01*
X232986918Y-37588901D01*
X232921238Y-37565069D01*
X232891176Y-37530376D01*
X232890017Y-37531151D01*
X232777139Y-37362218D01*
X232777136Y-37362214D01*
X232637785Y-37222863D01*
X232637781Y-37222860D01*
X232473920Y-37113371D01*
X232473907Y-37113364D01*
X232291839Y-37037950D01*
X232291829Y-37037947D01*
X232098543Y-36999500D01*
X232098541Y-36999500D01*
X226901459Y-36999500D01*
X226901454Y-36999500D01*
X226869391Y-37005876D01*
X226869392Y-37005877D01*
X226708170Y-37037946D01*
X226708164Y-37037948D01*
X226526088Y-37113366D01*
X226526079Y-37113371D01*
X226362219Y-37222859D01*
X226362215Y-37222862D01*
X224107641Y-39477438D01*
X223362220Y-40222859D01*
X223362218Y-40222861D01*
X223292538Y-40292540D01*
X223222859Y-40362219D01*
X223113371Y-40526079D01*
X223113364Y-40526092D01*
X223037950Y-40708160D01*
X223037947Y-40708170D01*
X222999500Y-40901456D01*
X222999500Y-45875500D01*
X222979815Y-45942539D01*
X222927011Y-45988294D01*
X222875500Y-45999500D01*
X217112357Y-45999500D01*
X217045318Y-45979815D01*
X216999563Y-45927011D01*
X216989619Y-45857853D01*
X217018644Y-45794297D01*
X217036863Y-45777130D01*
X217086661Y-45738919D01*
X217165372Y-45660208D01*
X217248911Y-45576670D01*
X217248914Y-45576665D01*
X217248919Y-45576661D01*
X217388611Y-45394612D01*
X217503344Y-45195888D01*
X217591158Y-44983887D01*
X217650548Y-44762238D01*
X217680500Y-44534734D01*
X217680500Y-44305266D01*
X217650548Y-44077762D01*
X217591158Y-43856113D01*
X217503344Y-43644112D01*
X217388611Y-43445388D01*
X217388608Y-43445385D01*
X217388607Y-43445382D01*
X217248918Y-43263338D01*
X217248911Y-43263330D01*
X217086670Y-43101089D01*
X217086661Y-43101081D01*
X216904617Y-42961392D01*
X216876159Y-42944962D01*
X216705888Y-42846656D01*
X216705876Y-42846650D01*
X216493887Y-42758842D01*
X216455077Y-42748443D01*
X216272238Y-42699452D01*
X216234215Y-42694446D01*
X216044741Y-42669500D01*
X216044734Y-42669500D01*
X215815266Y-42669500D01*
X215815258Y-42669500D01*
X215598715Y-42698009D01*
X215587762Y-42699452D01*
X215494076Y-42724554D01*
X215366112Y-42758842D01*
X215154123Y-42846650D01*
X215154109Y-42846657D01*
X214955382Y-42961392D01*
X214773338Y-43101081D01*
X214611081Y-43263338D01*
X214471392Y-43445382D01*
X214356657Y-43644109D01*
X214356650Y-43644123D01*
X214268842Y-43856112D01*
X214209453Y-44077759D01*
X214209451Y-44077770D01*
X214179500Y-44305258D01*
X214179500Y-44534741D01*
X214202287Y-44707816D01*
X214209452Y-44762238D01*
X214209453Y-44762240D01*
X214268842Y-44983887D01*
X214356650Y-45195876D01*
X214356657Y-45195890D01*
X214471392Y-45394617D01*
X214611081Y-45576661D01*
X214611089Y-45576670D01*
X214773329Y-45738910D01*
X214773333Y-45738913D01*
X214773339Y-45738919D01*
X214823132Y-45777126D01*
X214864332Y-45833552D01*
X214868487Y-45903298D01*
X214834274Y-45964219D01*
X214772557Y-45996971D01*
X214747643Y-45999500D01*
X196281455Y-45999500D01*
X196184812Y-46018724D01*
X196088167Y-46037947D01*
X196088161Y-46037949D01*
X196034834Y-46060037D01*
X196034834Y-46060038D01*
X195989315Y-46078892D01*
X195906089Y-46113366D01*
X195906079Y-46113371D01*
X195742219Y-46222859D01*
X195672540Y-46292538D01*
X195602861Y-46362218D01*
X195602858Y-46362221D01*
X191121897Y-50843181D01*
X191060574Y-50876666D01*
X191034216Y-50879500D01*
X189952129Y-50879500D01*
X189952123Y-50879501D01*
X189892516Y-50885908D01*
X189757671Y-50936202D01*
X189757664Y-50936206D01*
X189642455Y-51022452D01*
X189642452Y-51022455D01*
X189556206Y-51137664D01*
X189556202Y-51137671D01*
X189505908Y-51272517D01*
X189499501Y-51332116D01*
X189499500Y-51332135D01*
X189499500Y-52414217D01*
X189479815Y-52481256D01*
X189463181Y-52501898D01*
X172442221Y-69522858D01*
X172442218Y-69522861D01*
X172381076Y-69584003D01*
X172302859Y-69662219D01*
X172193371Y-69826079D01*
X172193364Y-69826092D01*
X172117950Y-70008160D01*
X172117947Y-70008170D01*
X172079500Y-70201456D01*
X172079500Y-76524237D01*
X172059815Y-76591276D01*
X172055818Y-76597122D01*
X171967715Y-76718386D01*
X171920485Y-76811080D01*
X171872510Y-76861876D01*
X171804689Y-76878671D01*
X171738554Y-76856134D01*
X171699515Y-76811080D01*
X171695137Y-76802487D01*
X171652287Y-76718390D01*
X171639289Y-76700500D01*
X171531971Y-76552786D01*
X171387213Y-76408028D01*
X171221613Y-76287715D01*
X171221612Y-76287714D01*
X171221610Y-76287713D01*
X171164653Y-76258691D01*
X171039223Y-76194781D01*
X170844534Y-76131522D01*
X170669995Y-76103878D01*
X170642352Y-76099500D01*
X170437648Y-76099500D01*
X170370254Y-76110174D01*
X170235464Y-76131523D01*
X170235457Y-76131524D01*
X170176942Y-76150537D01*
X170107101Y-76152532D01*
X170050944Y-76120287D01*
X169386546Y-75455888D01*
X169386545Y-75455887D01*
X169271807Y-75379222D01*
X169144332Y-75326421D01*
X169144322Y-75326418D01*
X169008996Y-75299500D01*
X169008994Y-75299500D01*
X169008993Y-75299500D01*
X165068993Y-75299500D01*
X164931007Y-75299500D01*
X164931005Y-75299500D01*
X164795677Y-75326418D01*
X164795667Y-75326421D01*
X164668195Y-75379221D01*
X164668182Y-75379228D01*
X164553458Y-75455885D01*
X164553454Y-75455888D01*
X164455888Y-75553454D01*
X164455885Y-75553458D01*
X164379228Y-75668182D01*
X164379221Y-75668195D01*
X164326421Y-75795667D01*
X164326418Y-75795677D01*
X164299500Y-75931004D01*
X164299500Y-75931007D01*
X164299500Y-83931006D01*
X164299500Y-84068994D01*
X164299500Y-84068996D01*
X164299499Y-84068996D01*
X150500500Y-84068996D01*
X150500500Y-44305258D01*
X189669500Y-44305258D01*
X189669500Y-44534741D01*
X189692287Y-44707816D01*
X189699452Y-44762238D01*
X189699453Y-44762240D01*
X189758842Y-44983887D01*
X189846650Y-45195876D01*
X189846657Y-45195890D01*
X189961392Y-45394617D01*
X190101081Y-45576661D01*
X190101089Y-45576670D01*
X190263330Y-45738911D01*
X190263338Y-45738918D01*
X190445382Y-45878607D01*
X190445385Y-45878608D01*
X190445388Y-45878611D01*
X190644112Y-45993344D01*
X190644117Y-45993346D01*
X190644123Y-45993349D01*
X190712299Y-46021588D01*
X190856113Y-46081158D01*
X191077762Y-46140548D01*
X191305266Y-46170500D01*
X191305273Y-46170500D01*
X191534727Y-46170500D01*
X191534734Y-46170500D01*
X191762238Y-46140548D01*
X191983887Y-46081158D01*
X192195888Y-45993344D01*
X192394612Y-45878611D01*
X192576661Y-45738919D01*
X192576665Y-45738914D01*
X192576670Y-45738911D01*
X192738911Y-45576670D01*
X192738914Y-45576665D01*
X192738919Y-45576661D01*
X192878611Y-45394612D01*
X192993344Y-45195888D01*
X193081158Y-44983887D01*
X193140548Y-44762238D01*
X193170500Y-44534734D01*
X193170500Y-44305266D01*
X193140548Y-44077762D01*
X193081158Y-43856113D01*
X192993344Y-43644112D01*
X192878611Y-43445388D01*
X192878608Y-43445385D01*
X192878607Y-43445382D01*
X192738918Y-43263338D01*
X192738911Y-43263330D01*
X192576670Y-43101089D01*
X192576661Y-43101081D01*
X192394617Y-42961392D01*
X192366159Y-42944962D01*
X192195888Y-42846656D01*
X192195876Y-42846650D01*
X191983887Y-42758842D01*
X191945077Y-42748443D01*
X191762238Y-42699452D01*
X191724215Y-42694446D01*
X191534741Y-42669500D01*
X191534734Y-42669500D01*
X191305266Y-42669500D01*
X191305258Y-42669500D01*
X191088715Y-42698009D01*
X191077762Y-42699452D01*
X190984076Y-42724554D01*
X190856112Y-42758842D01*
X190644123Y-42846650D01*
X190644109Y-42846657D01*
X190445382Y-42961392D01*
X190263338Y-43101081D01*
X190101081Y-43263338D01*
X189961392Y-43445382D01*
X189846657Y-43644109D01*
X189846650Y-43644123D01*
X189758842Y-43856112D01*
X189699453Y-44077759D01*
X189699451Y-44077770D01*
X189669500Y-44305258D01*
X150500500Y-44305258D01*
X150500500Y-38840341D01*
X150750000Y-38840341D01*
X150750000Y-39159658D01*
X150781298Y-39477438D01*
X150781301Y-39477455D01*
X150843591Y-39790617D01*
X150843594Y-39790628D01*
X150936292Y-40096213D01*
X151058493Y-40391232D01*
X151058495Y-40391237D01*
X151209014Y-40672837D01*
X151209025Y-40672855D01*
X151386422Y-40938348D01*
X151386432Y-40938362D01*
X151531418Y-41115027D01*
X152705747Y-39940697D01*
X152779588Y-40042330D01*
X152957670Y-40220412D01*
X153059301Y-40294251D01*
X151884971Y-41468580D01*
X151884972Y-41468581D01*
X152061637Y-41613567D01*
X152061651Y-41613577D01*
X152327144Y-41790974D01*
X152327162Y-41790985D01*
X152608762Y-41941504D01*
X152608767Y-41941506D01*
X152903786Y-42063707D01*
X153209371Y-42156405D01*
X153209382Y-42156408D01*
X153522544Y-42218698D01*
X153522561Y-42218701D01*
X153840341Y-42250000D01*
X154159659Y-42250000D01*
X154477438Y-42218701D01*
X154477455Y-42218698D01*
X154790617Y-42156408D01*
X154790628Y-42156405D01*
X155096213Y-42063707D01*
X155391232Y-41941506D01*
X155391237Y-41941504D01*
X155672837Y-41790985D01*
X155672855Y-41790974D01*
X155938348Y-41613577D01*
X155938361Y-41613567D01*
X156115026Y-41468581D01*
X156115027Y-41468580D01*
X154940698Y-40294251D01*
X155042330Y-40220412D01*
X155220412Y-40042330D01*
X155294251Y-39940698D01*
X156468580Y-41115027D01*
X156468581Y-41115026D01*
X156613567Y-40938361D01*
X156613577Y-40938348D01*
X156790974Y-40672855D01*
X156790985Y-40672837D01*
X156941504Y-40391237D01*
X156941506Y-40391232D01*
X157063707Y-40096213D01*
X157156405Y-39790628D01*
X157156408Y-39790617D01*
X157218698Y-39477455D01*
X157218701Y-39477438D01*
X157250000Y-39159658D01*
X157250000Y-38840341D01*
X157218701Y-38522561D01*
X157218698Y-38522544D01*
X157156408Y-38209382D01*
X157156405Y-38209371D01*
X157063707Y-37903786D01*
X156941506Y-37608767D01*
X156941504Y-37608762D01*
X156790985Y-37327162D01*
X156790974Y-37327144D01*
X156613577Y-37061651D01*
X156613567Y-37061637D01*
X156468581Y-36884972D01*
X156468580Y-36884971D01*
X155294251Y-38059300D01*
X155220412Y-37957670D01*
X155042330Y-37779588D01*
X154940698Y-37705748D01*
X156115027Y-36531418D01*
X155938362Y-36386432D01*
X155938348Y-36386422D01*
X155672855Y-36209025D01*
X155672837Y-36209014D01*
X155391237Y-36058495D01*
X155391232Y-36058493D01*
X155096213Y-35936292D01*
X154790628Y-35843594D01*
X154790617Y-35843591D01*
X154477455Y-35781301D01*
X154477438Y-35781298D01*
X154159659Y-35750000D01*
X153840341Y-35750000D01*
X153522561Y-35781298D01*
X153522544Y-35781301D01*
X153209382Y-35843591D01*
X153209371Y-35843594D01*
X152903786Y-35936292D01*
X152608767Y-36058493D01*
X152608762Y-36058495D01*
X152327162Y-36209014D01*
X152327144Y-36209025D01*
X152061651Y-36386422D01*
X152061650Y-36386423D01*
X151884971Y-36531418D01*
X153059301Y-37705748D01*
X152957670Y-37779588D01*
X152779588Y-37957670D01*
X152705748Y-38059301D01*
X151531418Y-36884971D01*
X151386423Y-37061650D01*
X151386422Y-37061651D01*
X151209025Y-37327144D01*
X151209014Y-37327162D01*
X151058495Y-37608762D01*
X151058493Y-37608767D01*
X150936292Y-37903786D01*
X150843594Y-38209371D01*
X150843591Y-38209382D01*
X150781301Y-38522544D01*
X150781298Y-38522561D01*
X150750000Y-38840341D01*
X150500500Y-38840341D01*
X150500500Y-35624500D01*
X150520185Y-35557461D01*
X150572989Y-35511706D01*
X150624500Y-35500500D01*
X239375500Y-35500500D01*
X239442539Y-35520185D01*
G37*
%TD.AperFunction*%
%TD*%
M02*
