%TF.GenerationSoftware,KiCad,Pcbnew,9.0.0*%
%TF.CreationDate,2025-04-08T16:44:02+07:00*%
%TF.ProjectId,Final_Project_PCB,46696e61-6c5f-4507-926f-6a6563745f50,rev?*%
%TF.SameCoordinates,Original*%
%TF.FileFunction,Copper,L2,Bot*%
%TF.FilePolarity,Positive*%
%FSLAX46Y46*%
G04 Gerber Fmt 4.6, Leading zero omitted, Abs format (unit mm)*
G04 Created by KiCad (PCBNEW 9.0.0) date 2025-04-08 16:44:02*
%MOMM*%
%LPD*%
G01*
G04 APERTURE LIST*
G04 Aperture macros list*
%AMRoundRect*
0 Rectangle with rounded corners*
0 $1 Rounding radius*
0 $2 $3 $4 $5 $6 $7 $8 $9 X,Y pos of 4 corners*
0 Add a 4 corners polygon primitive as box body*
4,1,4,$2,$3,$4,$5,$6,$7,$8,$9,$2,$3,0*
0 Add four circle primitives for the rounded corners*
1,1,$1+$1,$2,$3*
1,1,$1+$1,$4,$5*
1,1,$1+$1,$6,$7*
1,1,$1+$1,$8,$9*
0 Add four rect primitives between the rounded corners*
20,1,$1+$1,$2,$3,$4,$5,0*
20,1,$1+$1,$4,$5,$6,$7,0*
20,1,$1+$1,$6,$7,$8,$9,0*
20,1,$1+$1,$8,$9,$2,$3,0*%
G04 Aperture macros list end*
%TA.AperFunction,ComponentPad*%
%ADD10C,5.500000*%
%TD*%
%TA.AperFunction,ComponentPad*%
%ADD11R,1.500000X1.050000*%
%TD*%
%TA.AperFunction,ComponentPad*%
%ADD12O,1.500000X1.050000*%
%TD*%
%TA.AperFunction,ComponentPad*%
%ADD13R,2.200000X2.200000*%
%TD*%
%TA.AperFunction,ComponentPad*%
%ADD14O,2.200000X2.200000*%
%TD*%
%TA.AperFunction,ComponentPad*%
%ADD15R,1.800000X1.800000*%
%TD*%
%TA.AperFunction,ComponentPad*%
%ADD16C,1.800000*%
%TD*%
%TA.AperFunction,ComponentPad*%
%ADD17R,2.000000X2.000000*%
%TD*%
%TA.AperFunction,ComponentPad*%
%ADD18C,2.000000*%
%TD*%
%TA.AperFunction,ComponentPad*%
%ADD19RoundRect,0.250000X1.050000X-1.050000X1.050000X1.050000X-1.050000X1.050000X-1.050000X-1.050000X0*%
%TD*%
%TA.AperFunction,ComponentPad*%
%ADD20C,2.600000*%
%TD*%
%TA.AperFunction,ComponentPad*%
%ADD21R,1.700000X1.700000*%
%TD*%
%TA.AperFunction,ComponentPad*%
%ADD22O,1.700000X1.700000*%
%TD*%
%TA.AperFunction,ComponentPad*%
%ADD23R,1.980000X1.980000*%
%TD*%
%TA.AperFunction,ComponentPad*%
%ADD24C,1.980000*%
%TD*%
%TA.AperFunction,ComponentPad*%
%ADD25C,1.935000*%
%TD*%
%TA.AperFunction,ComponentPad*%
%ADD26C,1.600000*%
%TD*%
%TA.AperFunction,ComponentPad*%
%ADD27O,1.600000X1.600000*%
%TD*%
%TA.AperFunction,ComponentPad*%
%ADD28R,1.500000X1.500000*%
%TD*%
%TA.AperFunction,ComponentPad*%
%ADD29C,1.500000*%
%TD*%
%TA.AperFunction,ComponentPad*%
%ADD30O,1.600000X2.000000*%
%TD*%
%TA.AperFunction,Conductor*%
%ADD31C,1.000000*%
%TD*%
%TA.AperFunction,Conductor*%
%ADD32C,0.400000*%
%TD*%
G04 APERTURE END LIST*
D10*
%TO.P,H3,1,1*%
%TO.N,GND*%
X154000000Y-124000000D03*
%TD*%
D11*
%TO.P,Q1,1,C*%
%TO.N,Net-(D1-A)*%
X179100000Y-98960000D03*
D12*
%TO.P,Q1,2,B*%
%TO.N,Net-(Q1-B)*%
X179100000Y-97690000D03*
%TO.P,Q1,3,E*%
%TO.N,GND*%
X179100000Y-96420000D03*
%TD*%
D13*
%TO.P,D1,1,K*%
%TO.N,+5V*%
X190100000Y-104260000D03*
D14*
%TO.P,D1,2,A*%
%TO.N,Net-(D1-A)*%
X190100000Y-114420000D03*
%TD*%
D15*
%TO.P,D2,1,K*%
%TO.N,Net-(D1-A)*%
X188100000Y-121960000D03*
D16*
%TO.P,D2,2,A*%
%TO.N,Net-(D2-A)*%
X188100000Y-119420000D03*
%TD*%
D10*
%TO.P,H4,1,1*%
%TO.N,GND*%
X154000000Y-39000000D03*
%TD*%
D17*
%TO.P,U1,1,3V3*%
%TO.N,+3.3V*%
X191000000Y-52380000D03*
D18*
%TO.P,U1,2,GND*%
%TO.N,GND*%
X191000000Y-54920000D03*
%TO.P,U1,3,D15*%
%TO.N,unconnected-(U1-D15-Pad3)*%
X191000000Y-57460000D03*
%TO.P,U1,4,D2*%
%TO.N,unconnected-(U1-D2-Pad4)*%
X191000000Y-60000000D03*
%TO.P,U1,5,D4*%
%TO.N,/ECHO*%
X191000000Y-62540000D03*
%TO.P,U1,6,RX2*%
%TO.N,unconnected-(U1-RX2-Pad6)*%
X191000000Y-65080000D03*
%TO.P,U1,7,TX2*%
%TO.N,unconnected-(U1-TX2-Pad7)*%
X191000000Y-67620000D03*
%TO.P,U1,8,D5*%
%TO.N,/TRIG*%
X191000000Y-70160000D03*
%TO.P,U1,9,D18*%
%TO.N,unconnected-(U1-D18-Pad9)*%
X191000000Y-72700000D03*
%TO.P,U1,10,D19*%
%TO.N,unconnected-(U1-D19-Pad10)*%
X191000000Y-75240000D03*
%TO.P,U1,11,D21*%
%TO.N,/SDA*%
X191000000Y-77780000D03*
%TO.P,U1,12,RX0*%
%TO.N,unconnected-(U1-RX0-Pad12)*%
X191000000Y-80320000D03*
%TO.P,U1,13,TX0*%
%TO.N,unconnected-(U1-TX0-Pad13)*%
X191000000Y-82860000D03*
%TO.P,U1,14,D22*%
%TO.N,/SCL*%
X191000000Y-85400000D03*
%TO.P,U1,15,D23*%
%TO.N,/RELAY*%
X191000000Y-87940000D03*
%TO.P,U1,16,EN*%
%TO.N,unconnected-(U1-EN-Pad16)*%
X216400000Y-87940000D03*
%TO.P,U1,17,VP*%
%TO.N,unconnected-(U1-VP-Pad17)*%
X216400000Y-85400000D03*
%TO.P,U1,18,VN*%
%TO.N,unconnected-(U1-VN-Pad18)*%
X216400000Y-82860000D03*
%TO.P,U1,19,D34*%
%TO.N,/AO_SOIL*%
X216400000Y-80320000D03*
%TO.P,U1,20,D35*%
%TO.N,/AO_LDR*%
X216400000Y-77780000D03*
%TO.P,U1,21,D32*%
%TO.N,unconnected-(U1-D32-Pad21)*%
X216400000Y-75240000D03*
%TO.P,U1,22,D33*%
%TO.N,unconnected-(U1-D33-Pad22)*%
X216400000Y-72700000D03*
%TO.P,U1,23,D25*%
%TO.N,/DHT*%
X216400000Y-70160000D03*
%TO.P,U1,24,D26*%
%TO.N,unconnected-(U1-D26-Pad24)*%
X216400000Y-67620000D03*
%TO.P,U1,25,D27*%
%TO.N,unconnected-(U1-D27-Pad25)*%
X216400000Y-65080000D03*
%TO.P,U1,26,D14*%
%TO.N,unconnected-(U1-D14-Pad26)*%
X216400000Y-62540000D03*
%TO.P,U1,27,D12*%
%TO.N,unconnected-(U1-D12-Pad27)*%
X216400000Y-60000000D03*
%TO.P,U1,28,D13*%
%TO.N,unconnected-(U1-D13-Pad28)*%
X216400000Y-57460000D03*
%TO.P,U1,29,GND*%
%TO.N,GND*%
X216400000Y-54920000D03*
%TO.P,U1,30,VIN*%
%TO.N,+5V*%
X216400000Y-52380000D03*
%TD*%
D10*
%TO.P,H1,1,1*%
%TO.N,GND*%
X236000000Y-39000000D03*
%TD*%
D19*
%TO.P,J1,1,Pin_1*%
%TO.N,Net-(J1-Pin_1)*%
X226100000Y-114580000D03*
D20*
%TO.P,J1,2,Pin_2*%
%TO.N,Net-(J1-Pin_2)*%
X226100000Y-109500000D03*
%TO.P,J1,3,Pin_3*%
%TO.N,Net-(J1-Pin_3)*%
X226100000Y-104420000D03*
%TD*%
D21*
%TO.P,J3,1,Pin_1*%
%TO.N,GND*%
X228000000Y-68880000D03*
D22*
%TO.P,J3,2,Pin_2*%
%TO.N,/AO_LDR*%
X228000000Y-71420000D03*
%TO.P,J3,3,Pin_3*%
%TO.N,unconnected-(J3-Pin_3-Pad3)*%
X228000000Y-73960000D03*
%TO.P,J3,4,Pin_4*%
%TO.N,+3.3V*%
X228000000Y-76500000D03*
%TD*%
D23*
%TO.P,K1,A1*%
%TO.N,+5V*%
X201000000Y-103420000D03*
D24*
%TO.P,K1,A2*%
%TO.N,Net-(D1-A)*%
X201000000Y-115420000D03*
D25*
%TO.P,K1,COM*%
%TO.N,Net-(J1-Pin_2)*%
X199000000Y-109420000D03*
D24*
%TO.P,K1,NC*%
%TO.N,Net-(J1-Pin_3)*%
X213200000Y-103420000D03*
%TO.P,K1,NO*%
%TO.N,Net-(J1-Pin_1)*%
X213200000Y-115420000D03*
%TD*%
D21*
%TO.P,J4,1,Pin_1*%
%TO.N,/AO_SOIL*%
X228000000Y-44420000D03*
D22*
%TO.P,J4,2,Pin_2*%
%TO.N,+3.3V*%
X228000000Y-46960000D03*
%TO.P,J4,3,Pin_3*%
%TO.N,GND*%
X228000000Y-49500000D03*
%TD*%
D26*
%TO.P,R1,1*%
%TO.N,/RELAY*%
X182260000Y-108420000D03*
D27*
%TO.P,R1,2*%
%TO.N,Net-(Q1-B)*%
X172100000Y-108420000D03*
%TD*%
D28*
%TO.P,U2,1,VDD*%
%TO.N,+3.3V*%
X228000000Y-83880000D03*
D29*
%TO.P,U2,2,DATA*%
%TO.N,/DHT*%
X228000000Y-86420000D03*
%TO.P,U2,3,NC*%
%TO.N,unconnected-(U2-NC-Pad3)*%
X228000000Y-88960000D03*
%TO.P,U2,4,GND*%
%TO.N,GND*%
X228000000Y-91500000D03*
%TD*%
D10*
%TO.P,H2,1,1*%
%TO.N,GND*%
X236000000Y-124000000D03*
%TD*%
D26*
%TO.P,R2,1*%
%TO.N,Net-(D2-A)*%
X172100000Y-112420000D03*
D27*
%TO.P,R2,2*%
%TO.N,+5V*%
X182260000Y-112420000D03*
%TD*%
D21*
%TO.P,J2,1,Pin_1*%
%TO.N,GND*%
X228000000Y-55420000D03*
D22*
%TO.P,J2,2,Pin_2*%
%TO.N,/ECHO*%
X228000000Y-57960000D03*
%TO.P,J2,3,Pin_3*%
%TO.N,/TRIG*%
X228000000Y-60500000D03*
%TO.P,J2,4,Pin_4*%
%TO.N,+5V*%
X228000000Y-63040000D03*
%TD*%
D30*
%TO.P,Brd1,1,GND*%
%TO.N,GND*%
X175620000Y-77600000D03*
%TO.P,Brd1,2,VCC*%
%TO.N,+3.3V*%
X173080000Y-77600000D03*
%TO.P,Brd1,3,SCL*%
%TO.N,/SCL*%
X170540000Y-77600000D03*
%TO.P,Brd1,4,SDA*%
%TO.N,/SDA*%
X168000000Y-77600000D03*
%TD*%
D31*
%TO.N,+3.3V*%
X231880000Y-83880000D02*
X228000000Y-83880000D01*
X230500000Y-76500000D02*
X228000000Y-76500000D01*
X196380000Y-47000000D02*
X224000000Y-47000000D01*
X173080000Y-77600000D02*
X173080000Y-70300000D01*
X231000000Y-77000000D02*
X230500000Y-76500000D01*
X232000000Y-77000000D02*
X232000000Y-84000000D01*
X224000000Y-42000000D02*
X232000000Y-42000000D01*
X224000000Y-47000000D02*
X224040000Y-46960000D01*
X224000000Y-47000000D02*
X224000000Y-42000000D01*
X232000000Y-42000000D02*
X232000000Y-77000000D01*
X224040000Y-46960000D02*
X228000000Y-46960000D01*
X232000000Y-84000000D02*
X231880000Y-83880000D01*
X191000000Y-52380000D02*
X196380000Y-47000000D01*
X173080000Y-70300000D02*
X191000000Y-52380000D01*
X232000000Y-77000000D02*
X231000000Y-77000000D01*
%TO.N,+5V*%
X190100000Y-104580000D02*
X190100000Y-104260000D01*
X201000000Y-103420000D02*
X203138522Y-103420000D01*
X220000000Y-64000000D02*
X227040000Y-64000000D01*
X214000000Y-54780000D02*
X216400000Y-52380000D01*
X203138522Y-103420000D02*
X213679000Y-92879522D01*
X216400000Y-52380000D02*
X220000000Y-55980000D01*
X214000000Y-67000000D02*
X214000000Y-54780000D01*
X213679000Y-92879522D02*
X213679000Y-67321000D01*
X213679000Y-67321000D02*
X214000000Y-67000000D01*
X220000000Y-55980000D02*
X220000000Y-64000000D01*
X227040000Y-64000000D02*
X228000000Y-63040000D01*
X182260000Y-112420000D02*
X190100000Y-104580000D01*
D32*
%TO.N,Net-(D1-A)*%
X190100000Y-119960000D02*
X190100000Y-114420000D01*
X179580000Y-114420000D02*
X190100000Y-114420000D01*
X188100000Y-121960000D02*
X190100000Y-119960000D01*
X179100000Y-113940000D02*
X179580000Y-114420000D01*
X179100000Y-98960000D02*
X179100000Y-113940000D01*
%TO.N,Net-(D2-A)*%
X182000000Y-120000000D02*
X182580000Y-119420000D01*
X182580000Y-119420000D02*
X188100000Y-119420000D01*
X174420000Y-112420000D02*
X182000000Y-120000000D01*
X172100000Y-112420000D02*
X174420000Y-112420000D01*
%TO.N,/AO_LDR*%
X224000000Y-82321314D02*
X224000000Y-74000000D01*
X226000000Y-74000000D02*
X226000000Y-72000000D01*
X227420000Y-72000000D02*
X228000000Y-71420000D01*
X216400000Y-77780000D02*
X214999000Y-79181000D01*
X214999000Y-79181000D02*
X214999000Y-88520314D01*
X215819686Y-89341000D02*
X216980314Y-89341000D01*
X214999000Y-88520314D02*
X215819686Y-89341000D01*
X224000000Y-74000000D02*
X226000000Y-74000000D01*
X226000000Y-72000000D02*
X227420000Y-72000000D01*
X216980314Y-89341000D02*
X224000000Y-82321314D01*
%TO.N,/AO_SOIL*%
X229251000Y-64749000D02*
X226749000Y-67251000D01*
X226749000Y-67251000D02*
X226749000Y-69971000D01*
X226749000Y-69971000D02*
X216400000Y-80320000D01*
X228000000Y-44420000D02*
X229251000Y-45671000D01*
X229251000Y-45671000D02*
X229251000Y-64749000D01*
%TO.N,Net-(Q1-B)*%
X177000000Y-98640000D02*
X177000000Y-102000000D01*
X177950000Y-97690000D02*
X177000000Y-98640000D01*
X172100000Y-106900000D02*
X172100000Y-108420000D01*
X179100000Y-97690000D02*
X177950000Y-97690000D01*
X177000000Y-102000000D02*
X172100000Y-106900000D01*
%TO.N,/RELAY*%
X182260000Y-102740000D02*
X187000000Y-98000000D01*
X187060000Y-87940000D02*
X191000000Y-87940000D01*
X187000000Y-98000000D02*
X187000000Y-88000000D01*
X182260000Y-108420000D02*
X182260000Y-102740000D01*
X187000000Y-88000000D02*
X187060000Y-87940000D01*
%TD*%
%TA.AperFunction,Conductor*%
%TO.N,GND*%
G36*
X217622658Y-55789105D02*
G01*
X217622658Y-55789104D01*
X217682914Y-55706169D01*
X217682918Y-55706163D01*
X217790103Y-55495800D01*
X217803788Y-55453684D01*
X217843225Y-55396008D01*
X217907583Y-55368809D01*
X217976430Y-55380723D01*
X218009400Y-55404320D01*
X218963181Y-56358101D01*
X218996666Y-56419424D01*
X218999500Y-56445782D01*
X218999500Y-64098541D01*
X218999500Y-64098543D01*
X218999499Y-64098543D01*
X219037947Y-64291829D01*
X219037950Y-64291839D01*
X219113364Y-64473907D01*
X219113371Y-64473920D01*
X219222860Y-64637781D01*
X219222863Y-64637785D01*
X219362214Y-64777136D01*
X219362218Y-64777139D01*
X219526079Y-64886628D01*
X219526092Y-64886635D01*
X219687115Y-64953332D01*
X219708165Y-64962051D01*
X219708169Y-64962051D01*
X219708170Y-64962052D01*
X219901456Y-65000500D01*
X219901459Y-65000500D01*
X227138543Y-65000500D01*
X227197845Y-64988703D01*
X227239217Y-64980474D01*
X227331836Y-64962051D01*
X227385165Y-64939961D01*
X227513914Y-64886632D01*
X227677782Y-64777139D01*
X227817139Y-64637782D01*
X227817140Y-64637779D01*
X227824206Y-64630714D01*
X227824208Y-64630710D01*
X228028497Y-64426421D01*
X228046707Y-64416478D01*
X228062073Y-64402530D01*
X228082307Y-64397039D01*
X228089819Y-64392938D01*
X228095698Y-64391807D01*
X228103503Y-64390500D01*
X228106287Y-64390500D01*
X228316243Y-64357246D01*
X228331289Y-64352356D01*
X228340367Y-64350837D01*
X228366276Y-64353952D01*
X228392364Y-64353206D01*
X228400409Y-64358057D01*
X228409737Y-64359179D01*
X228429848Y-64375807D01*
X228452198Y-64389284D01*
X228456344Y-64397715D01*
X228463584Y-64403702D01*
X228471512Y-64428564D01*
X228483029Y-64451984D01*
X228481958Y-64461317D01*
X228484813Y-64470268D01*
X228478040Y-64495473D01*
X228475067Y-64521399D01*
X228468424Y-64531264D01*
X228466683Y-64537745D01*
X228459937Y-64543868D01*
X228448527Y-64560815D01*
X226204888Y-66804453D01*
X226204887Y-66804454D01*
X226128223Y-66919192D01*
X226075421Y-67046668D01*
X226075418Y-67046680D01*
X226065102Y-67098542D01*
X226065102Y-67098543D01*
X226048500Y-67182004D01*
X226048500Y-69629481D01*
X226028815Y-69696520D01*
X226012181Y-69717162D01*
X218095409Y-77633933D01*
X218034086Y-77667418D01*
X217964394Y-77662434D01*
X217908461Y-77620562D01*
X217885255Y-77565650D01*
X217863553Y-77428631D01*
X217821005Y-77297682D01*
X217790568Y-77204008D01*
X217790566Y-77204005D01*
X217790566Y-77204003D01*
X217683342Y-76993566D01*
X217616422Y-76901459D01*
X217544517Y-76802490D01*
X217377510Y-76635483D01*
X217342872Y-76610317D01*
X217300207Y-76554989D01*
X217294228Y-76485375D01*
X217326833Y-76423580D01*
X217342873Y-76409682D01*
X217377510Y-76384517D01*
X217544517Y-76217510D01*
X217683343Y-76026433D01*
X217790568Y-75815992D01*
X217863553Y-75591368D01*
X217869918Y-75551181D01*
X217900500Y-75358097D01*
X217900500Y-75121902D01*
X217863553Y-74888631D01*
X217793677Y-74673578D01*
X217790568Y-74664008D01*
X217790566Y-74664005D01*
X217790566Y-74664003D01*
X217683342Y-74453566D01*
X217678239Y-74446542D01*
X217544517Y-74262490D01*
X217377510Y-74095483D01*
X217342872Y-74070317D01*
X217300207Y-74014989D01*
X217294228Y-73945375D01*
X217326833Y-73883580D01*
X217342873Y-73869682D01*
X217377510Y-73844517D01*
X217544517Y-73677510D01*
X217683343Y-73486433D01*
X217790568Y-73275992D01*
X217863553Y-73051368D01*
X217900500Y-72818097D01*
X217900500Y-72581902D01*
X217863553Y-72348631D01*
X217829689Y-72244412D01*
X217790568Y-72124008D01*
X217790566Y-72124005D01*
X217790566Y-72124003D01*
X217683342Y-71913566D01*
X217544517Y-71722490D01*
X217377510Y-71555483D01*
X217342872Y-71530317D01*
X217300207Y-71474989D01*
X217294228Y-71405375D01*
X217326833Y-71343580D01*
X217342873Y-71329682D01*
X217377510Y-71304517D01*
X217544517Y-71137510D01*
X217683343Y-70946433D01*
X217790568Y-70735992D01*
X217863553Y-70511368D01*
X217900500Y-70278097D01*
X217900500Y-70041902D01*
X217863553Y-69808631D01*
X217790566Y-69584003D01*
X217734002Y-69472991D01*
X217683343Y-69373567D01*
X217544517Y-69182490D01*
X217377510Y-69015483D01*
X217342872Y-68990317D01*
X217300207Y-68934989D01*
X217294228Y-68865375D01*
X217326833Y-68803580D01*
X217342873Y-68789682D01*
X217377510Y-68764517D01*
X217544517Y-68597510D01*
X217683343Y-68406433D01*
X217790568Y-68195992D01*
X217863553Y-67971368D01*
X217900500Y-67738097D01*
X217900500Y-67501902D01*
X217863553Y-67268631D01*
X217829689Y-67164412D01*
X217790568Y-67044008D01*
X217790566Y-67044005D01*
X217790566Y-67044003D01*
X217717936Y-66901459D01*
X217683343Y-66833567D01*
X217544517Y-66642490D01*
X217377510Y-66475483D01*
X217342872Y-66450317D01*
X217300207Y-66394989D01*
X217294228Y-66325375D01*
X217326833Y-66263580D01*
X217342873Y-66249682D01*
X217377510Y-66224517D01*
X217544517Y-66057510D01*
X217683343Y-65866433D01*
X217790568Y-65655992D01*
X217863553Y-65431368D01*
X217900500Y-65198097D01*
X217900500Y-64961902D01*
X217863553Y-64728631D01*
X217801530Y-64537745D01*
X217790568Y-64504008D01*
X217790566Y-64504005D01*
X217790566Y-64504003D01*
X217715789Y-64357246D01*
X217683343Y-64293567D01*
X217544517Y-64102490D01*
X217377510Y-63935483D01*
X217342872Y-63910317D01*
X217300207Y-63854989D01*
X217294228Y-63785375D01*
X217326833Y-63723580D01*
X217342873Y-63709682D01*
X217377510Y-63684517D01*
X217544517Y-63517510D01*
X217683343Y-63326433D01*
X217790568Y-63115992D01*
X217863553Y-62891368D01*
X217866066Y-62875500D01*
X217900500Y-62658097D01*
X217900500Y-62421902D01*
X217863553Y-62188631D01*
X217805476Y-62009890D01*
X217790568Y-61964008D01*
X217790566Y-61964005D01*
X217790566Y-61964003D01*
X217701113Y-61788443D01*
X217683343Y-61753567D01*
X217544517Y-61562490D01*
X217377510Y-61395483D01*
X217342872Y-61370317D01*
X217300207Y-61314989D01*
X217294228Y-61245375D01*
X217326833Y-61183580D01*
X217342873Y-61169682D01*
X217377510Y-61144517D01*
X217544517Y-60977510D01*
X217683343Y-60786433D01*
X217790568Y-60575992D01*
X217863553Y-60351368D01*
X217900500Y-60118097D01*
X217900500Y-59881902D01*
X217863553Y-59648631D01*
X217805476Y-59469890D01*
X217790568Y-59424008D01*
X217790566Y-59424005D01*
X217790566Y-59424003D01*
X217701113Y-59248443D01*
X217683343Y-59213567D01*
X217544517Y-59022490D01*
X217377510Y-58855483D01*
X217342872Y-58830317D01*
X217300207Y-58774989D01*
X217294228Y-58705375D01*
X217326833Y-58643580D01*
X217342873Y-58629682D01*
X217377510Y-58604517D01*
X217544517Y-58437510D01*
X217683343Y-58246433D01*
X217790568Y-58035992D01*
X217863553Y-57811368D01*
X217900500Y-57578097D01*
X217900500Y-57341902D01*
X217863553Y-57108631D01*
X217829689Y-57004412D01*
X217790568Y-56884008D01*
X217790566Y-56884005D01*
X217790566Y-56884003D01*
X217683342Y-56673566D01*
X217544517Y-56482490D01*
X217377510Y-56315483D01*
X217318282Y-56272451D01*
X217275617Y-56217122D01*
X217267550Y-56162404D01*
X217269104Y-56142657D01*
X216537574Y-55411128D01*
X216596853Y-55395245D01*
X216713147Y-55328102D01*
X216808102Y-55233147D01*
X216875245Y-55116853D01*
X216891128Y-55057575D01*
X217622658Y-55789105D01*
G37*
%TD.AperFunction*%
%TA.AperFunction,Conductor*%
G36*
X230942539Y-43020185D02*
G01*
X230988294Y-43072989D01*
X230999500Y-43124500D01*
X230999500Y-75438387D01*
X230992512Y-75462183D01*
X230989649Y-75486823D01*
X230982839Y-75495125D01*
X230979815Y-75505426D01*
X230961072Y-75521666D01*
X230945342Y-75540847D01*
X230935124Y-75544150D01*
X230927011Y-75551181D01*
X230902460Y-75554711D01*
X230878861Y-75562341D01*
X230862565Y-75560447D01*
X230857853Y-75561125D01*
X230850104Y-75558999D01*
X230843802Y-75558267D01*
X230835747Y-75556137D01*
X230791836Y-75537949D01*
X230695188Y-75518724D01*
X230681514Y-75516004D01*
X230598544Y-75499500D01*
X230598541Y-75499500D01*
X228960200Y-75499500D01*
X228893161Y-75479815D01*
X228880634Y-75470506D01*
X228707820Y-75344951D01*
X228707115Y-75344591D01*
X228699054Y-75340485D01*
X228648259Y-75292512D01*
X228631463Y-75224692D01*
X228653999Y-75158556D01*
X228699054Y-75119515D01*
X228707816Y-75115051D01*
X228729789Y-75099086D01*
X228879786Y-74990109D01*
X228879788Y-74990106D01*
X228879792Y-74990104D01*
X229030104Y-74839792D01*
X229030106Y-74839788D01*
X229030109Y-74839786D01*
X229139086Y-74689789D01*
X229155051Y-74667816D01*
X229251557Y-74478412D01*
X229317246Y-74276243D01*
X229350500Y-74066287D01*
X229350500Y-73853713D01*
X229317246Y-73643757D01*
X229251557Y-73441588D01*
X229155051Y-73252184D01*
X229155049Y-73252181D01*
X229155048Y-73252179D01*
X229030109Y-73080213D01*
X228879786Y-72929890D01*
X228707820Y-72804951D01*
X228707115Y-72804591D01*
X228699054Y-72800485D01*
X228648259Y-72752512D01*
X228631463Y-72684692D01*
X228653999Y-72618556D01*
X228699054Y-72579515D01*
X228707816Y-72575051D01*
X228729789Y-72559086D01*
X228879786Y-72450109D01*
X228879788Y-72450106D01*
X228879792Y-72450104D01*
X229030104Y-72299792D01*
X229030106Y-72299788D01*
X229030109Y-72299786D01*
X229155048Y-72127820D01*
X229155047Y-72127820D01*
X229155051Y-72127816D01*
X229251557Y-71938412D01*
X229317246Y-71736243D01*
X229350500Y-71526287D01*
X229350500Y-71313713D01*
X229317246Y-71103757D01*
X229251557Y-70901588D01*
X229155051Y-70712184D01*
X229155049Y-70712181D01*
X229155048Y-70712179D01*
X229030109Y-70540213D01*
X228916181Y-70426285D01*
X228882696Y-70364962D01*
X228887680Y-70295270D01*
X228929552Y-70239337D01*
X228960529Y-70222422D01*
X229092086Y-70173354D01*
X229092093Y-70173350D01*
X229207187Y-70087190D01*
X229207190Y-70087187D01*
X229293350Y-69972093D01*
X229293354Y-69972086D01*
X229343596Y-69837379D01*
X229343598Y-69837372D01*
X229349999Y-69777844D01*
X229350000Y-69777827D01*
X229350000Y-69130000D01*
X228433012Y-69130000D01*
X228465925Y-69072993D01*
X228500000Y-68945826D01*
X228500000Y-68814174D01*
X228465925Y-68687007D01*
X228433012Y-68630000D01*
X229350000Y-68630000D01*
X229350000Y-67982172D01*
X229349999Y-67982155D01*
X229343598Y-67922627D01*
X229343596Y-67922620D01*
X229293354Y-67787913D01*
X229293350Y-67787906D01*
X229207190Y-67672812D01*
X229207187Y-67672809D01*
X229092093Y-67586649D01*
X229092086Y-67586645D01*
X228957379Y-67536403D01*
X228957372Y-67536401D01*
X228897844Y-67530000D01*
X228250000Y-67530000D01*
X228250000Y-68446988D01*
X228192993Y-68414075D01*
X228065826Y-68380000D01*
X227934174Y-68380000D01*
X227807007Y-68414075D01*
X227750000Y-68446988D01*
X227750000Y-67546654D01*
X227693378Y-67510571D01*
X227693214Y-67510384D01*
X227692979Y-67510315D01*
X227670353Y-67484203D01*
X227647421Y-67457942D01*
X227647384Y-67457696D01*
X227647224Y-67457511D01*
X227642287Y-67423177D01*
X227637214Y-67388822D01*
X227637315Y-67388598D01*
X227637280Y-67388353D01*
X227651758Y-67356648D01*
X227665996Y-67325156D01*
X227666202Y-67325022D01*
X227666305Y-67324797D01*
X227672337Y-67318319D01*
X228727076Y-66263580D01*
X229795113Y-65195543D01*
X229805816Y-65179526D01*
X229871775Y-65080811D01*
X229924580Y-64953328D01*
X229951500Y-64817993D01*
X229951500Y-45602007D01*
X229951500Y-45602004D01*
X229924581Y-45466677D01*
X229924580Y-45466676D01*
X229924580Y-45466672D01*
X229871775Y-45339189D01*
X229857532Y-45317873D01*
X229795114Y-45224457D01*
X229795112Y-45224454D01*
X229386818Y-44816160D01*
X229353333Y-44754837D01*
X229350499Y-44728479D01*
X229350499Y-43522129D01*
X229350498Y-43522123D01*
X229350497Y-43522116D01*
X229344091Y-43462517D01*
X229337702Y-43445388D01*
X229293797Y-43327671D01*
X229293793Y-43327664D01*
X229207547Y-43212455D01*
X229207273Y-43212181D01*
X229207087Y-43211840D01*
X229202232Y-43205355D01*
X229203164Y-43204656D01*
X229173788Y-43150858D01*
X229178772Y-43081166D01*
X229220644Y-43025233D01*
X229286108Y-43000816D01*
X229294954Y-43000500D01*
X230875500Y-43000500D01*
X230942539Y-43020185D01*
G37*
%TD.AperFunction*%
%TA.AperFunction,Conductor*%
G36*
X215924755Y-55116853D02*
G01*
X215991898Y-55233147D01*
X216086853Y-55328102D01*
X216203147Y-55395245D01*
X216262425Y-55411128D01*
X215530893Y-56142658D01*
X215532448Y-56162405D01*
X215518084Y-56230783D01*
X215481717Y-56272451D01*
X215422490Y-56315482D01*
X215255484Y-56482488D01*
X215224818Y-56524697D01*
X215169487Y-56567362D01*
X215099874Y-56573341D01*
X215038079Y-56540735D01*
X215003722Y-56479896D01*
X215000500Y-56451811D01*
X215000500Y-55909330D01*
X215020185Y-55842291D01*
X215072989Y-55796536D01*
X215134229Y-55785712D01*
X215177341Y-55789104D01*
X215908871Y-55057574D01*
X215924755Y-55116853D01*
G37*
%TD.AperFunction*%
%TA.AperFunction,Conductor*%
G36*
X239442539Y-35520185D02*
G01*
X239488294Y-35572989D01*
X239499500Y-35624500D01*
X239499500Y-127375500D01*
X239479815Y-127442539D01*
X239427011Y-127488294D01*
X239375500Y-127499500D01*
X150624500Y-127499500D01*
X150557461Y-127479815D01*
X150511706Y-127427011D01*
X150500500Y-127375500D01*
X150500500Y-123840341D01*
X150750000Y-123840341D01*
X150750000Y-124159658D01*
X150781298Y-124477438D01*
X150781301Y-124477455D01*
X150843591Y-124790617D01*
X150843594Y-124790628D01*
X150936292Y-125096213D01*
X151058493Y-125391232D01*
X151058495Y-125391237D01*
X151209014Y-125672837D01*
X151209025Y-125672855D01*
X151386422Y-125938348D01*
X151386432Y-125938362D01*
X151531418Y-126115027D01*
X152705747Y-124940697D01*
X152779588Y-125042330D01*
X152957670Y-125220412D01*
X153059301Y-125294251D01*
X151884971Y-126468580D01*
X151884972Y-126468581D01*
X152061637Y-126613567D01*
X152061651Y-126613577D01*
X152327144Y-126790974D01*
X152327162Y-126790985D01*
X152608762Y-126941504D01*
X152608767Y-126941506D01*
X152903786Y-127063707D01*
X153209371Y-127156405D01*
X153209382Y-127156408D01*
X153522544Y-127218698D01*
X153522561Y-127218701D01*
X153840341Y-127250000D01*
X154159659Y-127250000D01*
X154477438Y-127218701D01*
X154477455Y-127218698D01*
X154790617Y-127156408D01*
X154790628Y-127156405D01*
X155096213Y-127063707D01*
X155391232Y-126941506D01*
X155391237Y-126941504D01*
X155672837Y-126790985D01*
X155672855Y-126790974D01*
X155938348Y-126613577D01*
X155938361Y-126613567D01*
X156115026Y-126468581D01*
X156115027Y-126468580D01*
X154940698Y-125294251D01*
X155042330Y-125220412D01*
X155220412Y-125042330D01*
X155294251Y-124940698D01*
X156468580Y-126115027D01*
X156468581Y-126115026D01*
X156613567Y-125938361D01*
X156613577Y-125938348D01*
X156790974Y-125672855D01*
X156790985Y-125672837D01*
X156941504Y-125391237D01*
X156941506Y-125391232D01*
X157063707Y-125096213D01*
X157156405Y-124790628D01*
X157156408Y-124790617D01*
X157218698Y-124477455D01*
X157218701Y-124477438D01*
X157250000Y-124159658D01*
X157250000Y-123840341D01*
X232750000Y-123840341D01*
X232750000Y-124159658D01*
X232781298Y-124477438D01*
X232781301Y-124477455D01*
X232843591Y-124790617D01*
X232843594Y-124790628D01*
X232936292Y-125096213D01*
X233058493Y-125391232D01*
X233058495Y-125391237D01*
X233209014Y-125672837D01*
X233209025Y-125672855D01*
X233386422Y-125938348D01*
X233386432Y-125938362D01*
X233531418Y-126115027D01*
X234705747Y-124940697D01*
X234779588Y-125042330D01*
X234957670Y-125220412D01*
X235059301Y-125294251D01*
X233884971Y-126468580D01*
X233884972Y-126468581D01*
X234061637Y-126613567D01*
X234061651Y-126613577D01*
X234327144Y-126790974D01*
X234327162Y-126790985D01*
X234608762Y-126941504D01*
X234608767Y-126941506D01*
X234903786Y-127063707D01*
X235209371Y-127156405D01*
X235209382Y-127156408D01*
X235522544Y-127218698D01*
X235522561Y-127218701D01*
X235840341Y-127250000D01*
X236159659Y-127250000D01*
X236477438Y-127218701D01*
X236477455Y-127218698D01*
X236790617Y-127156408D01*
X236790628Y-127156405D01*
X237096213Y-127063707D01*
X237391232Y-126941506D01*
X237391237Y-126941504D01*
X237672837Y-126790985D01*
X237672855Y-126790974D01*
X237938348Y-126613577D01*
X237938361Y-126613567D01*
X238115026Y-126468581D01*
X238115027Y-126468580D01*
X236940698Y-125294251D01*
X237042330Y-125220412D01*
X237220412Y-125042330D01*
X237294251Y-124940698D01*
X238468580Y-126115027D01*
X238468581Y-126115026D01*
X238613567Y-125938361D01*
X238613577Y-125938348D01*
X238790974Y-125672855D01*
X238790985Y-125672837D01*
X238941504Y-125391237D01*
X238941506Y-125391232D01*
X239063707Y-125096213D01*
X239156405Y-124790628D01*
X239156408Y-124790617D01*
X239218698Y-124477455D01*
X239218701Y-124477438D01*
X239250000Y-124159658D01*
X239250000Y-123840341D01*
X239218701Y-123522561D01*
X239218698Y-123522544D01*
X239156408Y-123209382D01*
X239156405Y-123209371D01*
X239063707Y-122903786D01*
X238941506Y-122608767D01*
X238941504Y-122608762D01*
X238790985Y-122327162D01*
X238790974Y-122327144D01*
X238613577Y-122061651D01*
X238613567Y-122061637D01*
X238468581Y-121884972D01*
X238468580Y-121884971D01*
X237294251Y-123059300D01*
X237220412Y-122957670D01*
X237042330Y-122779588D01*
X236940698Y-122705748D01*
X238115027Y-121531418D01*
X237938362Y-121386432D01*
X237938348Y-121386422D01*
X237672855Y-121209025D01*
X237672837Y-121209014D01*
X237391237Y-121058495D01*
X237391232Y-121058493D01*
X237096213Y-120936292D01*
X236790628Y-120843594D01*
X236790617Y-120843591D01*
X236477455Y-120781301D01*
X236477438Y-120781298D01*
X236159659Y-120750000D01*
X235840341Y-120750000D01*
X235522561Y-120781298D01*
X235522544Y-120781301D01*
X235209382Y-120843591D01*
X235209371Y-120843594D01*
X234903786Y-120936292D01*
X234608767Y-121058493D01*
X234608762Y-121058495D01*
X234327162Y-121209014D01*
X234327144Y-121209025D01*
X234061651Y-121386422D01*
X234061650Y-121386423D01*
X233884971Y-121531418D01*
X235059301Y-122705748D01*
X234957670Y-122779588D01*
X234779588Y-122957670D01*
X234705748Y-123059301D01*
X233531418Y-121884971D01*
X233386423Y-122061650D01*
X233386422Y-122061651D01*
X233209025Y-122327144D01*
X233209014Y-122327162D01*
X233058495Y-122608762D01*
X233058493Y-122608767D01*
X232936292Y-122903786D01*
X232843594Y-123209371D01*
X232843591Y-123209382D01*
X232781301Y-123522544D01*
X232781298Y-123522561D01*
X232750000Y-123840341D01*
X157250000Y-123840341D01*
X157218701Y-123522561D01*
X157218698Y-123522544D01*
X157156408Y-123209382D01*
X157156405Y-123209371D01*
X157063707Y-122903786D01*
X156941506Y-122608767D01*
X156941504Y-122608762D01*
X156790985Y-122327162D01*
X156790974Y-122327144D01*
X156613577Y-122061651D01*
X156613567Y-122061637D01*
X156468581Y-121884972D01*
X156468580Y-121884971D01*
X155294251Y-123059300D01*
X155220412Y-122957670D01*
X155042330Y-122779588D01*
X154940698Y-122705748D01*
X156115027Y-121531418D01*
X155938362Y-121386432D01*
X155938348Y-121386422D01*
X155672855Y-121209025D01*
X155672837Y-121209014D01*
X155391237Y-121058495D01*
X155391232Y-121058493D01*
X155096213Y-120936292D01*
X154790628Y-120843594D01*
X154790617Y-120843591D01*
X154477455Y-120781301D01*
X154477438Y-120781298D01*
X154159659Y-120750000D01*
X153840341Y-120750000D01*
X153522561Y-120781298D01*
X153522544Y-120781301D01*
X153209382Y-120843591D01*
X153209371Y-120843594D01*
X152903786Y-120936292D01*
X152608767Y-121058493D01*
X152608762Y-121058495D01*
X152327162Y-121209014D01*
X152327144Y-121209025D01*
X152061651Y-121386422D01*
X152061650Y-121386423D01*
X151884971Y-121531418D01*
X153059301Y-122705748D01*
X152957670Y-122779588D01*
X152779588Y-122957670D01*
X152705748Y-123059301D01*
X151531418Y-121884971D01*
X151386423Y-122061650D01*
X151386422Y-122061651D01*
X151209025Y-122327144D01*
X151209014Y-122327162D01*
X151058495Y-122608762D01*
X151058493Y-122608767D01*
X150936292Y-122903786D01*
X150843594Y-123209371D01*
X150843591Y-123209382D01*
X150781301Y-123522544D01*
X150781298Y-123522561D01*
X150750000Y-123840341D01*
X150500500Y-123840341D01*
X150500500Y-108317648D01*
X170799500Y-108317648D01*
X170799500Y-108522351D01*
X170831522Y-108724534D01*
X170894781Y-108919223D01*
X170958691Y-109044653D01*
X170974787Y-109076242D01*
X170987715Y-109101613D01*
X171108028Y-109267213D01*
X171252786Y-109411971D01*
X171407749Y-109524556D01*
X171418390Y-109532287D01*
X171534607Y-109591503D01*
X171600776Y-109625218D01*
X171600778Y-109625218D01*
X171600781Y-109625220D01*
X171705137Y-109659127D01*
X171795465Y-109688477D01*
X171896557Y-109704488D01*
X171997648Y-109720500D01*
X171997649Y-109720500D01*
X172202351Y-109720500D01*
X172202352Y-109720500D01*
X172404534Y-109688477D01*
X172599219Y-109625220D01*
X172781610Y-109532287D01*
X172874590Y-109464732D01*
X172947213Y-109411971D01*
X172947215Y-109411968D01*
X172947219Y-109411966D01*
X173091966Y-109267219D01*
X173091968Y-109267215D01*
X173091971Y-109267213D01*
X173178593Y-109147986D01*
X173212287Y-109101610D01*
X173302872Y-108923827D01*
X173305218Y-108919223D01*
X173305218Y-108919222D01*
X173305220Y-108919219D01*
X173368477Y-108724534D01*
X173400500Y-108522352D01*
X173400500Y-108317648D01*
X173368477Y-108115466D01*
X173352369Y-108065892D01*
X173330871Y-107999727D01*
X173305220Y-107920781D01*
X173305218Y-107920778D01*
X173305218Y-107920776D01*
X173261566Y-107835106D01*
X173212287Y-107738390D01*
X173195477Y-107715253D01*
X173091971Y-107572786D01*
X172947217Y-107428032D01*
X172947212Y-107428028D01*
X172851615Y-107358573D01*
X172848274Y-107354241D01*
X172843297Y-107351968D01*
X172827164Y-107326865D01*
X172808949Y-107303243D01*
X172807696Y-107296571D01*
X172805523Y-107293190D01*
X172800500Y-107258255D01*
X172800500Y-107241518D01*
X172820185Y-107174479D01*
X172836819Y-107153837D01*
X175189355Y-104801301D01*
X177544113Y-102446543D01*
X177556870Y-102427452D01*
X177620775Y-102331811D01*
X177673580Y-102204328D01*
X177685339Y-102145210D01*
X177700500Y-102068995D01*
X177700500Y-99825102D01*
X177720185Y-99758063D01*
X177772989Y-99712308D01*
X177842147Y-99702364D01*
X177905703Y-99731389D01*
X177923762Y-99750786D01*
X177992454Y-99842546D01*
X178038643Y-99877123D01*
X178107664Y-99928793D01*
X178107671Y-99928797D01*
X178242516Y-99979091D01*
X178288757Y-99984063D01*
X178353307Y-100010801D01*
X178393155Y-100068194D01*
X178399500Y-100107351D01*
X178399500Y-113871006D01*
X178399500Y-114008994D01*
X178399500Y-114008996D01*
X178399499Y-114008996D01*
X178426418Y-114144322D01*
X178426421Y-114144332D01*
X178479222Y-114271807D01*
X178555887Y-114386545D01*
X179133454Y-114964112D01*
X179248192Y-115040777D01*
X179375667Y-115093578D01*
X179375672Y-115093580D01*
X179375676Y-115093580D01*
X179375677Y-115093581D01*
X179511004Y-115120500D01*
X179511007Y-115120500D01*
X179648994Y-115120500D01*
X188584652Y-115120500D01*
X188651691Y-115140185D01*
X188695137Y-115188205D01*
X188731132Y-115258848D01*
X188879201Y-115462649D01*
X188879205Y-115462654D01*
X189057345Y-115640794D01*
X189057350Y-115640798D01*
X189261153Y-115788869D01*
X189331794Y-115824862D01*
X189382590Y-115872836D01*
X189399500Y-115935347D01*
X189399500Y-118444300D01*
X189379815Y-118511339D01*
X189327011Y-118557094D01*
X189257853Y-118567038D01*
X189194297Y-118538013D01*
X189175184Y-118517188D01*
X189168247Y-118507640D01*
X189012363Y-118351756D01*
X189012358Y-118351752D01*
X188834025Y-118222187D01*
X188834024Y-118222186D01*
X188834022Y-118222185D01*
X188771096Y-118190122D01*
X188637606Y-118122104D01*
X188637603Y-118122103D01*
X188427952Y-118053985D01*
X188319086Y-118036742D01*
X188210222Y-118019500D01*
X187989778Y-118019500D01*
X187917201Y-118030995D01*
X187772047Y-118053985D01*
X187562396Y-118122103D01*
X187562393Y-118122104D01*
X187365974Y-118222187D01*
X187187641Y-118351752D01*
X187187636Y-118351756D01*
X187031758Y-118507634D01*
X187024817Y-118517188D01*
X186914965Y-118668386D01*
X186859638Y-118711051D01*
X186814649Y-118719500D01*
X182511004Y-118719500D01*
X182375677Y-118746418D01*
X182375667Y-118746421D01*
X182248192Y-118799222D01*
X182133454Y-118875887D01*
X182087679Y-118921662D01*
X182026356Y-118955146D01*
X181956664Y-118950161D01*
X181912318Y-118921661D01*
X174866546Y-111875888D01*
X174866545Y-111875887D01*
X174751807Y-111799222D01*
X174624332Y-111746421D01*
X174624322Y-111746418D01*
X174488996Y-111719500D01*
X174488994Y-111719500D01*
X174488993Y-111719500D01*
X173261744Y-111719500D01*
X173194705Y-111699815D01*
X173161425Y-111668384D01*
X173091969Y-111572784D01*
X172947213Y-111428028D01*
X172781613Y-111307715D01*
X172781612Y-111307714D01*
X172781610Y-111307713D01*
X172706992Y-111269693D01*
X172599223Y-111214781D01*
X172404534Y-111151522D01*
X172216690Y-111121771D01*
X172202352Y-111119500D01*
X171997648Y-111119500D01*
X171983310Y-111121771D01*
X171795465Y-111151522D01*
X171600776Y-111214781D01*
X171418386Y-111307715D01*
X171252786Y-111428028D01*
X171108028Y-111572786D01*
X170987715Y-111738386D01*
X170894781Y-111920776D01*
X170831522Y-112115465D01*
X170799500Y-112317648D01*
X170799500Y-112522351D01*
X170831522Y-112724534D01*
X170894781Y-112919223D01*
X170958691Y-113044653D01*
X170967196Y-113061344D01*
X170987715Y-113101613D01*
X171108028Y-113267213D01*
X171252786Y-113411971D01*
X171393629Y-113514297D01*
X171418390Y-113532287D01*
X171514291Y-113581151D01*
X171600776Y-113625218D01*
X171600778Y-113625218D01*
X171600781Y-113625220D01*
X171705137Y-113659127D01*
X171795465Y-113688477D01*
X171867050Y-113699815D01*
X171997648Y-113720500D01*
X171997649Y-113720500D01*
X172202351Y-113720500D01*
X172202352Y-113720500D01*
X172404534Y-113688477D01*
X172599219Y-113625220D01*
X172781610Y-113532287D01*
X172874590Y-113464732D01*
X172947213Y-113411971D01*
X172947215Y-113411968D01*
X172947219Y-113411966D01*
X173091966Y-113267219D01*
X173161425Y-113171615D01*
X173216755Y-113128949D01*
X173261744Y-113120500D01*
X174078481Y-113120500D01*
X174145520Y-113140185D01*
X174166162Y-113156819D01*
X181553453Y-120544111D01*
X181553454Y-120544112D01*
X181668192Y-120620777D01*
X181795667Y-120673578D01*
X181795672Y-120673580D01*
X181795676Y-120673580D01*
X181795677Y-120673581D01*
X181931003Y-120700500D01*
X181931006Y-120700500D01*
X182068996Y-120700500D01*
X182160042Y-120682389D01*
X182204329Y-120673580D01*
X182331811Y-120620775D01*
X182446543Y-120544114D01*
X182544114Y-120446543D01*
X182833838Y-120156819D01*
X182895161Y-120123334D01*
X182921519Y-120120500D01*
X186814649Y-120120500D01*
X186881688Y-120140185D01*
X186914964Y-120171611D01*
X187002291Y-120291807D01*
X187031758Y-120332365D01*
X187081928Y-120382535D01*
X187115413Y-120443858D01*
X187110429Y-120513550D01*
X187068557Y-120569483D01*
X187037581Y-120586398D01*
X186957669Y-120616203D01*
X186957664Y-120616206D01*
X186842455Y-120702452D01*
X186842452Y-120702455D01*
X186756206Y-120817664D01*
X186756202Y-120817671D01*
X186705908Y-120952517D01*
X186699501Y-121012116D01*
X186699500Y-121012135D01*
X186699500Y-122907870D01*
X186699501Y-122907876D01*
X186705908Y-122967483D01*
X186756202Y-123102328D01*
X186756206Y-123102335D01*
X186842452Y-123217544D01*
X186842455Y-123217547D01*
X186957664Y-123303793D01*
X186957671Y-123303797D01*
X187092517Y-123354091D01*
X187092516Y-123354091D01*
X187099444Y-123354835D01*
X187152127Y-123360500D01*
X189047872Y-123360499D01*
X189107483Y-123354091D01*
X189242331Y-123303796D01*
X189357546Y-123217546D01*
X189443796Y-123102331D01*
X189494091Y-122967483D01*
X189500500Y-122907873D01*
X189500499Y-121601518D01*
X189509143Y-121572078D01*
X189515667Y-121542092D01*
X189519421Y-121537076D01*
X189520184Y-121534480D01*
X189536818Y-121513838D01*
X189558104Y-121492552D01*
X190098140Y-120952517D01*
X190644114Y-120406543D01*
X190720775Y-120291811D01*
X190773580Y-120164328D01*
X190782298Y-120120500D01*
X190800500Y-120028993D01*
X190800500Y-115935347D01*
X190820185Y-115868308D01*
X190868206Y-115824862D01*
X190938845Y-115788870D01*
X191142656Y-115640793D01*
X191320793Y-115462656D01*
X191437011Y-115302695D01*
X199509500Y-115302695D01*
X199509500Y-115537304D01*
X199546201Y-115769027D01*
X199618697Y-115992150D01*
X199725212Y-116201195D01*
X199863104Y-116390989D01*
X199863108Y-116390994D01*
X200029005Y-116556891D01*
X200029010Y-116556895D01*
X200194558Y-116677171D01*
X200218808Y-116694790D01*
X200427847Y-116801301D01*
X200427849Y-116801302D01*
X200539410Y-116837550D01*
X200650974Y-116873799D01*
X200882695Y-116910500D01*
X200882696Y-116910500D01*
X201117304Y-116910500D01*
X201117305Y-116910500D01*
X201349026Y-116873799D01*
X201572153Y-116801301D01*
X201781192Y-116694790D01*
X201970996Y-116556890D01*
X202136890Y-116390996D01*
X202274790Y-116201192D01*
X202381301Y-115992153D01*
X202453799Y-115769026D01*
X202490500Y-115537305D01*
X202490500Y-115302695D01*
X211709500Y-115302695D01*
X211709500Y-115537304D01*
X211746201Y-115769027D01*
X211818697Y-115992150D01*
X211925212Y-116201195D01*
X212063104Y-116390989D01*
X212063108Y-116390994D01*
X212229005Y-116556891D01*
X212229010Y-116556895D01*
X212394558Y-116677171D01*
X212418808Y-116694790D01*
X212627847Y-116801301D01*
X212627849Y-116801302D01*
X212739410Y-116837550D01*
X212850974Y-116873799D01*
X213082695Y-116910500D01*
X213082696Y-116910500D01*
X213317304Y-116910500D01*
X213317305Y-116910500D01*
X213549026Y-116873799D01*
X213772153Y-116801301D01*
X213981192Y-116694790D01*
X214170996Y-116556890D01*
X214336890Y-116390996D01*
X214474790Y-116201192D01*
X214581301Y-115992153D01*
X214653799Y-115769026D01*
X214690500Y-115537305D01*
X214690500Y-115302695D01*
X214653799Y-115070974D01*
X214581301Y-114847847D01*
X214474790Y-114638808D01*
X214407333Y-114545961D01*
X214336895Y-114449010D01*
X214336891Y-114449005D01*
X214170994Y-114283108D01*
X214170989Y-114283104D01*
X213981195Y-114145212D01*
X213981194Y-114145211D01*
X213981192Y-114145210D01*
X213876672Y-114091954D01*
X213772150Y-114038697D01*
X213549027Y-113966201D01*
X213433165Y-113947850D01*
X213317305Y-113929500D01*
X213082695Y-113929500D01*
X213005454Y-113941733D01*
X212850972Y-113966201D01*
X212627849Y-114038697D01*
X212418804Y-114145212D01*
X212229010Y-114283104D01*
X212229005Y-114283108D01*
X212063108Y-114449005D01*
X212063104Y-114449010D01*
X211925212Y-114638804D01*
X211818697Y-114847849D01*
X211746201Y-115070972D01*
X211709500Y-115302695D01*
X202490500Y-115302695D01*
X202453799Y-115070974D01*
X202381301Y-114847847D01*
X202274790Y-114638808D01*
X202207333Y-114545961D01*
X202136895Y-114449010D01*
X202136891Y-114449005D01*
X201970994Y-114283108D01*
X201970989Y-114283104D01*
X201781195Y-114145212D01*
X201781194Y-114145211D01*
X201781192Y-114145210D01*
X201676672Y-114091954D01*
X201572150Y-114038697D01*
X201349027Y-113966201D01*
X201233165Y-113947850D01*
X201117305Y-113929500D01*
X200882695Y-113929500D01*
X200805454Y-113941733D01*
X200650972Y-113966201D01*
X200427849Y-114038697D01*
X200218804Y-114145212D01*
X200029010Y-114283104D01*
X200029005Y-114283108D01*
X199863108Y-114449005D01*
X199863104Y-114449010D01*
X199725212Y-114638804D01*
X199618697Y-114847849D01*
X199546201Y-115070972D01*
X199509500Y-115302695D01*
X191437011Y-115302695D01*
X191468870Y-115258845D01*
X191583241Y-115034379D01*
X191661090Y-114794785D01*
X191700500Y-114545962D01*
X191700500Y-114294038D01*
X191661090Y-114045215D01*
X191583241Y-113805621D01*
X191583239Y-113805618D01*
X191583239Y-113805616D01*
X191468869Y-113581154D01*
X191446031Y-113549720D01*
X191446030Y-113549718D01*
X191395365Y-113479983D01*
X224299500Y-113479983D01*
X224299500Y-115680001D01*
X224299501Y-115680018D01*
X224310000Y-115782796D01*
X224310001Y-115782799D01*
X224339837Y-115872836D01*
X224365186Y-115949334D01*
X224457288Y-116098656D01*
X224581344Y-116222712D01*
X224730666Y-116314814D01*
X224897203Y-116369999D01*
X224999991Y-116380500D01*
X227200008Y-116380499D01*
X227302797Y-116369999D01*
X227469334Y-116314814D01*
X227618656Y-116222712D01*
X227742712Y-116098656D01*
X227834814Y-115949334D01*
X227889999Y-115782797D01*
X227900500Y-115680009D01*
X227900499Y-113479992D01*
X227889999Y-113377203D01*
X227834814Y-113210666D01*
X227742712Y-113061344D01*
X227618656Y-112937288D01*
X227525888Y-112880069D01*
X227469336Y-112845187D01*
X227469331Y-112845185D01*
X227467862Y-112844698D01*
X227302797Y-112790001D01*
X227302795Y-112790000D01*
X227200010Y-112779500D01*
X224999998Y-112779500D01*
X224999981Y-112779501D01*
X224897203Y-112790000D01*
X224897200Y-112790001D01*
X224730668Y-112845185D01*
X224730663Y-112845187D01*
X224581342Y-112937289D01*
X224457289Y-113061342D01*
X224365187Y-113210663D01*
X224365186Y-113210666D01*
X224310001Y-113377203D01*
X224310001Y-113377204D01*
X224310000Y-113377204D01*
X224299500Y-113479983D01*
X191395365Y-113479983D01*
X191320798Y-113377350D01*
X191320794Y-113377345D01*
X191142654Y-113199205D01*
X191142649Y-113199201D01*
X190938848Y-113051132D01*
X190938847Y-113051131D01*
X190938845Y-113051130D01*
X190868747Y-113015413D01*
X190714383Y-112936760D01*
X190474785Y-112858910D01*
X190388142Y-112845187D01*
X190225962Y-112819500D01*
X189974038Y-112819500D01*
X189849626Y-112839205D01*
X189725214Y-112858910D01*
X189485616Y-112936760D01*
X189261151Y-113051132D01*
X189057350Y-113199201D01*
X189057345Y-113199205D01*
X188879205Y-113377345D01*
X188879201Y-113377350D01*
X188731132Y-113581151D01*
X188695137Y-113651795D01*
X188647162Y-113702591D01*
X188584652Y-113719500D01*
X183065567Y-113719500D01*
X182998528Y-113699815D01*
X182952773Y-113647011D01*
X182942829Y-113577853D01*
X182971854Y-113514297D01*
X182992682Y-113495181D01*
X183013588Y-113479992D01*
X183107219Y-113411966D01*
X183251966Y-113267219D01*
X183251968Y-113267215D01*
X183251971Y-113267213D01*
X183321425Y-113171616D01*
X183372287Y-113101610D01*
X183465220Y-112919219D01*
X183528477Y-112724534D01*
X183551925Y-112576483D01*
X183581854Y-112513350D01*
X183586699Y-112508219D01*
X185059131Y-111035787D01*
X195496450Y-111035787D01*
X195496981Y-111038377D01*
X195499500Y-111063242D01*
X195499500Y-111065892D01*
X195512669Y-111115041D01*
X195522871Y-111164894D01*
X195529671Y-111178495D01*
X195532920Y-111190619D01*
X195533608Y-111193186D01*
X195557200Y-111234050D01*
X195557199Y-111234050D01*
X195559060Y-111237274D01*
X195581807Y-111282766D01*
X195591892Y-111294138D01*
X195598169Y-111305010D01*
X195598171Y-111305013D01*
X195599498Y-111307311D01*
X195599500Y-111307314D01*
X195599503Y-111307317D01*
X195632849Y-111340663D01*
X195637930Y-111346057D01*
X195669242Y-111381368D01*
X195669244Y-111381369D01*
X195671456Y-111382830D01*
X195681934Y-111389748D01*
X195692686Y-111400500D01*
X195736736Y-111425932D01*
X195739836Y-111427979D01*
X195739845Y-111427984D01*
X195739912Y-111428028D01*
X195779217Y-111453979D01*
X195793642Y-111458787D01*
X195806814Y-111466392D01*
X195855967Y-111479562D01*
X198781729Y-112454816D01*
X198804518Y-112465066D01*
X198806814Y-112466392D01*
X198855967Y-112479562D01*
X198904239Y-112495653D01*
X198919419Y-112496564D01*
X198934108Y-112500500D01*
X198981275Y-112500500D01*
X198988705Y-112500723D01*
X199035787Y-112503549D01*
X199038387Y-112503017D01*
X199063245Y-112500500D01*
X201065890Y-112500500D01*
X201065892Y-112500500D01*
X201193186Y-112466392D01*
X201307314Y-112400500D01*
X201400500Y-112307314D01*
X201466392Y-112193186D01*
X201500500Y-112065892D01*
X201500500Y-110934108D01*
X201466392Y-110806814D01*
X201400500Y-110692686D01*
X201307314Y-110599500D01*
X201250250Y-110566554D01*
X201193187Y-110533608D01*
X201129539Y-110516554D01*
X201065892Y-110499500D01*
X201065891Y-110499500D01*
X200273608Y-110499500D01*
X200206569Y-110479815D01*
X200160814Y-110427011D01*
X200150870Y-110357853D01*
X200173288Y-110302616D01*
X200255546Y-110189400D01*
X200360449Y-109983516D01*
X200431853Y-109763757D01*
X200468000Y-109535534D01*
X200468000Y-109381995D01*
X224299500Y-109381995D01*
X224299500Y-109618004D01*
X224299501Y-109618020D01*
X224330306Y-109852010D01*
X224391394Y-110079993D01*
X224481714Y-110298045D01*
X224481719Y-110298056D01*
X224526916Y-110376338D01*
X224599727Y-110502450D01*
X224599729Y-110502453D01*
X224599730Y-110502454D01*
X224743406Y-110689697D01*
X224743412Y-110689704D01*
X224910295Y-110856587D01*
X224910301Y-110856592D01*
X225097550Y-111000273D01*
X225228918Y-111076118D01*
X225301943Y-111118280D01*
X225301948Y-111118282D01*
X225301951Y-111118284D01*
X225520007Y-111208606D01*
X225747986Y-111269693D01*
X225981989Y-111300500D01*
X225981996Y-111300500D01*
X226218004Y-111300500D01*
X226218011Y-111300500D01*
X226452014Y-111269693D01*
X226679993Y-111208606D01*
X226898049Y-111118284D01*
X227102450Y-111000273D01*
X227289699Y-110856592D01*
X227456592Y-110689699D01*
X227600273Y-110502450D01*
X227718284Y-110298049D01*
X227808606Y-110079993D01*
X227869693Y-109852014D01*
X227900500Y-109618011D01*
X227900500Y-109381989D01*
X227869693Y-109147986D01*
X227808606Y-108920007D01*
X227718284Y-108701951D01*
X227718282Y-108701948D01*
X227718280Y-108701943D01*
X227614592Y-108522352D01*
X227600273Y-108497550D01*
X227456592Y-108310301D01*
X227456587Y-108310295D01*
X227289704Y-108143412D01*
X227289697Y-108143406D01*
X227102454Y-107999730D01*
X227102453Y-107999729D01*
X227102450Y-107999727D01*
X227015132Y-107949314D01*
X226898056Y-107881719D01*
X226898045Y-107881714D01*
X226679993Y-107791394D01*
X226452010Y-107730306D01*
X226218020Y-107699501D01*
X226218017Y-107699500D01*
X226218011Y-107699500D01*
X225981989Y-107699500D01*
X225981983Y-107699500D01*
X225981979Y-107699501D01*
X225747989Y-107730306D01*
X225520006Y-107791394D01*
X225301954Y-107881714D01*
X225301943Y-107881719D01*
X225097545Y-107999730D01*
X224910302Y-108143406D01*
X224910295Y-108143412D01*
X224743412Y-108310295D01*
X224743406Y-108310302D01*
X224599730Y-108497545D01*
X224481719Y-108701943D01*
X224481714Y-108701954D01*
X224391394Y-108920006D01*
X224330306Y-109147989D01*
X224299501Y-109381979D01*
X224299500Y-109381995D01*
X200468000Y-109381995D01*
X200468000Y-109304466D01*
X200431853Y-109076243D01*
X200360449Y-108856484D01*
X200360447Y-108856481D01*
X200360447Y-108856479D01*
X200270931Y-108680795D01*
X200258035Y-108612126D01*
X200284311Y-108547385D01*
X200341418Y-108507128D01*
X200381416Y-108500500D01*
X201065890Y-108500500D01*
X201065892Y-108500500D01*
X201193186Y-108466392D01*
X201307314Y-108400500D01*
X201400500Y-108307314D01*
X201466392Y-108193186D01*
X201500500Y-108065892D01*
X201500500Y-106934108D01*
X201466392Y-106806814D01*
X201400500Y-106692686D01*
X201307314Y-106599500D01*
X201213233Y-106545182D01*
X201193187Y-106533608D01*
X201083981Y-106504347D01*
X201065892Y-106499500D01*
X201065891Y-106499500D01*
X199050687Y-106499500D01*
X199035787Y-106496451D01*
X198984990Y-106499500D01*
X198934108Y-106499500D01*
X198934107Y-106499500D01*
X198931534Y-106500189D01*
X198931533Y-106500188D01*
X198919413Y-106503435D01*
X198904239Y-106504347D01*
X198855995Y-106520427D01*
X198852407Y-106521389D01*
X198852389Y-106521395D01*
X198806810Y-106533609D01*
X198804513Y-106534936D01*
X198781731Y-106545182D01*
X195859498Y-107519259D01*
X195859497Y-107519258D01*
X195855932Y-107520446D01*
X195806814Y-107533608D01*
X195793646Y-107541209D01*
X195781738Y-107545179D01*
X195781738Y-107545180D01*
X195779220Y-107546019D01*
X195779218Y-107546020D01*
X195739848Y-107572013D01*
X195739847Y-107572012D01*
X195736727Y-107574072D01*
X195692686Y-107599500D01*
X195681937Y-107610247D01*
X195671474Y-107617156D01*
X195671471Y-107617159D01*
X195669244Y-107618629D01*
X195637947Y-107653921D01*
X195635480Y-107656705D01*
X195599500Y-107692686D01*
X195591896Y-107705855D01*
X195583564Y-107715252D01*
X195583562Y-107715253D01*
X195581809Y-107717229D01*
X195581804Y-107717237D01*
X195560713Y-107759419D01*
X195557193Y-107765961D01*
X195533607Y-107806813D01*
X195533606Y-107806816D01*
X195532917Y-107809389D01*
X195529671Y-107821504D01*
X195522871Y-107835106D01*
X195512669Y-107884956D01*
X195511707Y-107888548D01*
X195499500Y-107934104D01*
X195499500Y-107936755D01*
X195498463Y-107946988D01*
X195498562Y-107951981D01*
X195497961Y-107956830D01*
X195496451Y-107964214D01*
X195496646Y-107967464D01*
X195496646Y-107967465D01*
X195499277Y-108011294D01*
X195499500Y-108018724D01*
X195499500Y-110981274D01*
X195499277Y-110988703D01*
X195496450Y-111035787D01*
X185059131Y-111035787D01*
X190198102Y-105896818D01*
X190259425Y-105863333D01*
X190285783Y-105860499D01*
X191247871Y-105860499D01*
X191247872Y-105860499D01*
X191307483Y-105854091D01*
X191442331Y-105803796D01*
X191557546Y-105717546D01*
X191643796Y-105602331D01*
X191694091Y-105467483D01*
X191700500Y-105407873D01*
X191700499Y-103112128D01*
X191694091Y-103052517D01*
X191685751Y-103030157D01*
X191643797Y-102917671D01*
X191643793Y-102917664D01*
X191557547Y-102802455D01*
X191557544Y-102802452D01*
X191442335Y-102716206D01*
X191442328Y-102716202D01*
X191307482Y-102665908D01*
X191307483Y-102665908D01*
X191247883Y-102659501D01*
X191247881Y-102659500D01*
X191247873Y-102659500D01*
X191247864Y-102659500D01*
X188952129Y-102659500D01*
X188952123Y-102659501D01*
X188892516Y-102665908D01*
X188757671Y-102716202D01*
X188757664Y-102716206D01*
X188642455Y-102802452D01*
X188642452Y-102802455D01*
X188556206Y-102917664D01*
X188556202Y-102917671D01*
X188505908Y-103052517D01*
X188499501Y-103112116D01*
X188499501Y-103112123D01*
X188499500Y-103112135D01*
X188499500Y-104714216D01*
X188479815Y-104781255D01*
X188463181Y-104801897D01*
X182171797Y-111093281D01*
X182110474Y-111126766D01*
X182103515Y-111128073D01*
X181955468Y-111151522D01*
X181760778Y-111214781D01*
X181578386Y-111307715D01*
X181412786Y-111428028D01*
X181268028Y-111572786D01*
X181147715Y-111738386D01*
X181054781Y-111920776D01*
X180991522Y-112115465D01*
X180959500Y-112317648D01*
X180959500Y-112522351D01*
X180991522Y-112724534D01*
X181054781Y-112919223D01*
X181118691Y-113044653D01*
X181127196Y-113061344D01*
X181147715Y-113101613D01*
X181268028Y-113267213D01*
X181268034Y-113267219D01*
X181412781Y-113411966D01*
X181506410Y-113479991D01*
X181527318Y-113495181D01*
X181569984Y-113550511D01*
X181575963Y-113620125D01*
X181543358Y-113681920D01*
X181482519Y-113716277D01*
X181454433Y-113719500D01*
X179924500Y-113719500D01*
X179857461Y-113699815D01*
X179811706Y-113647011D01*
X179800500Y-113595500D01*
X179800500Y-100107351D01*
X179820185Y-100040312D01*
X179872989Y-99994557D01*
X179911247Y-99984061D01*
X179957483Y-99979091D01*
X180092331Y-99928796D01*
X180207546Y-99842546D01*
X180293796Y-99727331D01*
X180344091Y-99592483D01*
X180350500Y-99532873D01*
X180350499Y-98387128D01*
X180350499Y-98387127D01*
X180350499Y-98387123D01*
X180344091Y-98327516D01*
X180293797Y-98192671D01*
X180293796Y-98192670D01*
X180293796Y-98192669D01*
X180292967Y-98191562D01*
X180292485Y-98190268D01*
X180289546Y-98184886D01*
X180290319Y-98184463D01*
X180268551Y-98126099D01*
X180277675Y-98069798D01*
X180278009Y-98068993D01*
X180311091Y-97989127D01*
X180350500Y-97791003D01*
X180350500Y-97588997D01*
X180311091Y-97390873D01*
X180233786Y-97204244D01*
X180179794Y-97123439D01*
X180158917Y-97056764D01*
X180177401Y-96989384D01*
X180179796Y-96985658D01*
X180233344Y-96905518D01*
X180233346Y-96905515D01*
X180310609Y-96718983D01*
X180310612Y-96718974D01*
X180320353Y-96670000D01*
X179465866Y-96670000D01*
X179441674Y-96667617D01*
X179426004Y-96664500D01*
X179426003Y-96664500D01*
X179385830Y-96664500D01*
X179400075Y-96650255D01*
X179449444Y-96564745D01*
X179475000Y-96469370D01*
X179475000Y-96370630D01*
X179449444Y-96275255D01*
X179400075Y-96189745D01*
X179380330Y-96170000D01*
X180320353Y-96170000D01*
X180310612Y-96121025D01*
X180310609Y-96121016D01*
X180233347Y-95934486D01*
X180233340Y-95934473D01*
X180121170Y-95766600D01*
X180121167Y-95766596D01*
X179978403Y-95623832D01*
X179978399Y-95623829D01*
X179810526Y-95511659D01*
X179810513Y-95511652D01*
X179623983Y-95434390D01*
X179623974Y-95434387D01*
X179425958Y-95395000D01*
X179350000Y-95395000D01*
X179350000Y-96139670D01*
X179330255Y-96119925D01*
X179244745Y-96070556D01*
X179149370Y-96045000D01*
X179050630Y-96045000D01*
X178955255Y-96070556D01*
X178869745Y-96119925D01*
X178850000Y-96139670D01*
X178850000Y-95395000D01*
X178774041Y-95395000D01*
X178576025Y-95434387D01*
X178576016Y-95434390D01*
X178389486Y-95511652D01*
X178389473Y-95511659D01*
X178221600Y-95623829D01*
X178221596Y-95623832D01*
X178078832Y-95766596D01*
X178078829Y-95766600D01*
X177966659Y-95934473D01*
X177966652Y-95934486D01*
X177889390Y-96121016D01*
X177889387Y-96121025D01*
X177879647Y-96170000D01*
X178819670Y-96170000D01*
X178799925Y-96189745D01*
X178750556Y-96275255D01*
X178725000Y-96370630D01*
X178725000Y-96469370D01*
X178750556Y-96564745D01*
X178799925Y-96650255D01*
X178814170Y-96664500D01*
X178773997Y-96664500D01*
X178773996Y-96664500D01*
X178758326Y-96667617D01*
X178734134Y-96670000D01*
X177879647Y-96670000D01*
X177889388Y-96718974D01*
X177934453Y-96827774D01*
X177941921Y-96897244D01*
X177910645Y-96959723D01*
X177850556Y-96995375D01*
X177844084Y-96996843D01*
X177745676Y-97016418D01*
X177745667Y-97016421D01*
X177618192Y-97069222D01*
X177503454Y-97145887D01*
X176455887Y-98193454D01*
X176379222Y-98308192D01*
X176326421Y-98435667D01*
X176326418Y-98435677D01*
X176299500Y-98571004D01*
X176299500Y-101658480D01*
X176279815Y-101725519D01*
X176263181Y-101746161D01*
X171555888Y-106453453D01*
X171555887Y-106453454D01*
X171529049Y-106493621D01*
X171502331Y-106533608D01*
X171494598Y-106545182D01*
X171479223Y-106568191D01*
X171426421Y-106695667D01*
X171426418Y-106695677D01*
X171399500Y-106831004D01*
X171399500Y-107258255D01*
X171379815Y-107325294D01*
X171348385Y-107358573D01*
X171252787Y-107428028D01*
X171252782Y-107428032D01*
X171108028Y-107572786D01*
X170987715Y-107738386D01*
X170894781Y-107920776D01*
X170831522Y-108115465D01*
X170799500Y-108317648D01*
X150500500Y-108317648D01*
X150500500Y-77297648D01*
X166699500Y-77297648D01*
X166699500Y-77902351D01*
X166731522Y-78104534D01*
X166794781Y-78299223D01*
X166887715Y-78481613D01*
X167008028Y-78647213D01*
X167152786Y-78791971D01*
X167307749Y-78904556D01*
X167318390Y-78912287D01*
X167391782Y-78949682D01*
X167500776Y-79005218D01*
X167500778Y-79005218D01*
X167500781Y-79005220D01*
X167562812Y-79025375D01*
X167695465Y-79068477D01*
X167796557Y-79084488D01*
X167897648Y-79100500D01*
X167897649Y-79100500D01*
X168102351Y-79100500D01*
X168102352Y-79100500D01*
X168304534Y-79068477D01*
X168499219Y-79005220D01*
X168681610Y-78912287D01*
X168774590Y-78844732D01*
X168847213Y-78791971D01*
X168847215Y-78791968D01*
X168847219Y-78791966D01*
X168991966Y-78647219D01*
X168991968Y-78647215D01*
X168991971Y-78647213D01*
X169112284Y-78481614D01*
X169112285Y-78481613D01*
X169112287Y-78481610D01*
X169159516Y-78388917D01*
X169207489Y-78338123D01*
X169275310Y-78321328D01*
X169341445Y-78343865D01*
X169380485Y-78388919D01*
X169427715Y-78481614D01*
X169548028Y-78647213D01*
X169692786Y-78791971D01*
X169847749Y-78904556D01*
X169858390Y-78912287D01*
X169931782Y-78949682D01*
X170040776Y-79005218D01*
X170040778Y-79005218D01*
X170040781Y-79005220D01*
X170102812Y-79025375D01*
X170235465Y-79068477D01*
X170336557Y-79084488D01*
X170437648Y-79100500D01*
X170437649Y-79100500D01*
X170642351Y-79100500D01*
X170642352Y-79100500D01*
X170844534Y-79068477D01*
X171039219Y-79005220D01*
X171221610Y-78912287D01*
X171314590Y-78844732D01*
X171387213Y-78791971D01*
X171387215Y-78791968D01*
X171387219Y-78791966D01*
X171531966Y-78647219D01*
X171531968Y-78647215D01*
X171531971Y-78647213D01*
X171652284Y-78481614D01*
X171652285Y-78481613D01*
X171652287Y-78481610D01*
X171699516Y-78388917D01*
X171747489Y-78338123D01*
X171815310Y-78321328D01*
X171881445Y-78343865D01*
X171920485Y-78388919D01*
X171967715Y-78481614D01*
X172088028Y-78647213D01*
X172232786Y-78791971D01*
X172387749Y-78904556D01*
X172398390Y-78912287D01*
X172471782Y-78949682D01*
X172580776Y-79005218D01*
X172580778Y-79005218D01*
X172580781Y-79005220D01*
X172642812Y-79025375D01*
X172775465Y-79068477D01*
X172876557Y-79084488D01*
X172977648Y-79100500D01*
X172977649Y-79100500D01*
X173182351Y-79100500D01*
X173182352Y-79100500D01*
X173384534Y-79068477D01*
X173579219Y-79005220D01*
X173761610Y-78912287D01*
X173854590Y-78844732D01*
X173927213Y-78791971D01*
X173927215Y-78791968D01*
X173927219Y-78791966D01*
X174071966Y-78647219D01*
X174071968Y-78647215D01*
X174071971Y-78647213D01*
X174192284Y-78481614D01*
X174192285Y-78481613D01*
X174192287Y-78481610D01*
X174239795Y-78388369D01*
X174287770Y-78337574D01*
X174355591Y-78320779D01*
X174421725Y-78343316D01*
X174460765Y-78388370D01*
X174508140Y-78481349D01*
X174628417Y-78646894D01*
X174628417Y-78646895D01*
X174773104Y-78791582D01*
X174938650Y-78911859D01*
X175120968Y-79004754D01*
X175315578Y-79067988D01*
X175370000Y-79076607D01*
X175370000Y-78033012D01*
X175427007Y-78065925D01*
X175554174Y-78100000D01*
X175685826Y-78100000D01*
X175812993Y-78065925D01*
X175870000Y-78033012D01*
X175870000Y-79076606D01*
X175924421Y-79067988D01*
X176119031Y-79004754D01*
X176301349Y-78911859D01*
X176466894Y-78791582D01*
X176466895Y-78791582D01*
X176611582Y-78646895D01*
X176611582Y-78646894D01*
X176731859Y-78481349D01*
X176824755Y-78299031D01*
X176887990Y-78104417D01*
X176920000Y-77902317D01*
X176920000Y-77850000D01*
X176053012Y-77850000D01*
X176085925Y-77792993D01*
X176120000Y-77665826D01*
X176120000Y-77534174D01*
X176085925Y-77407007D01*
X176053012Y-77350000D01*
X176920000Y-77350000D01*
X176920000Y-77297682D01*
X176887990Y-77095582D01*
X176824755Y-76900968D01*
X176731859Y-76718650D01*
X176611582Y-76553105D01*
X176611582Y-76553104D01*
X176466895Y-76408417D01*
X176301349Y-76288140D01*
X176119029Y-76195244D01*
X175924413Y-76132009D01*
X175870000Y-76123390D01*
X175870000Y-77166988D01*
X175812993Y-77134075D01*
X175685826Y-77100000D01*
X175554174Y-77100000D01*
X175427007Y-77134075D01*
X175370000Y-77166988D01*
X175370000Y-76123390D01*
X175315586Y-76132009D01*
X175120970Y-76195244D01*
X174938650Y-76288140D01*
X174773105Y-76408417D01*
X174773104Y-76408417D01*
X174628417Y-76553104D01*
X174628417Y-76553105D01*
X174508140Y-76718650D01*
X174460765Y-76811629D01*
X174412790Y-76862425D01*
X174344969Y-76879220D01*
X174278834Y-76856682D01*
X174239795Y-76811629D01*
X174192419Y-76718650D01*
X174192287Y-76718390D01*
X174113769Y-76610318D01*
X174104182Y-76597122D01*
X174080702Y-76531316D01*
X174080500Y-76524237D01*
X174080500Y-70765781D01*
X174100185Y-70698742D01*
X174116814Y-70678105D01*
X189390601Y-55404317D01*
X189451922Y-55370834D01*
X189521614Y-55375818D01*
X189577547Y-55417690D01*
X189596211Y-55453681D01*
X189609897Y-55495804D01*
X189717087Y-55706174D01*
X189777338Y-55789104D01*
X189777340Y-55789105D01*
X190508871Y-55057574D01*
X190524755Y-55116853D01*
X190591898Y-55233147D01*
X190686853Y-55328102D01*
X190803147Y-55395245D01*
X190862425Y-55411128D01*
X190130893Y-56142658D01*
X190132448Y-56162405D01*
X190118084Y-56230783D01*
X190081717Y-56272451D01*
X190022490Y-56315482D01*
X189855485Y-56482487D01*
X189855485Y-56482488D01*
X189855483Y-56482490D01*
X189795862Y-56564550D01*
X189716657Y-56673566D01*
X189609433Y-56884003D01*
X189536446Y-57108631D01*
X189499500Y-57341902D01*
X189499500Y-57578097D01*
X189536446Y-57811368D01*
X189609433Y-58035996D01*
X189716657Y-58246433D01*
X189855483Y-58437510D01*
X190022490Y-58604517D01*
X190057127Y-58629683D01*
X190099792Y-58685013D01*
X190105771Y-58754626D01*
X190073165Y-58816421D01*
X190057130Y-58830315D01*
X190044095Y-58839786D01*
X190022488Y-58855484D01*
X189855485Y-59022487D01*
X189855485Y-59022488D01*
X189855483Y-59022490D01*
X189795862Y-59104550D01*
X189716657Y-59213566D01*
X189609433Y-59424003D01*
X189536446Y-59648631D01*
X189499500Y-59881902D01*
X189499500Y-60118097D01*
X189536446Y-60351368D01*
X189609433Y-60575996D01*
X189716657Y-60786433D01*
X189855483Y-60977510D01*
X190022490Y-61144517D01*
X190057127Y-61169683D01*
X190099792Y-61225013D01*
X190105771Y-61294626D01*
X190073165Y-61356421D01*
X190057130Y-61370315D01*
X190044095Y-61379786D01*
X190022488Y-61395484D01*
X189855485Y-61562487D01*
X189855485Y-61562488D01*
X189855483Y-61562490D01*
X189795862Y-61644550D01*
X189716657Y-61753566D01*
X189609433Y-61964003D01*
X189536446Y-62188631D01*
X189499500Y-62421902D01*
X189499500Y-62658097D01*
X189536446Y-62891368D01*
X189609433Y-63115996D01*
X189716657Y-63326433D01*
X189855483Y-63517510D01*
X190022490Y-63684517D01*
X190057127Y-63709683D01*
X190099792Y-63765013D01*
X190105771Y-63834626D01*
X190073165Y-63896421D01*
X190057130Y-63910315D01*
X190039365Y-63923222D01*
X190022488Y-63935484D01*
X189855485Y-64102487D01*
X189855485Y-64102488D01*
X189855483Y-64102490D01*
X189795862Y-64184550D01*
X189716657Y-64293566D01*
X189609433Y-64504003D01*
X189536446Y-64728631D01*
X189499500Y-64961902D01*
X189499500Y-65198097D01*
X189536446Y-65431368D01*
X189609433Y-65655996D01*
X189716657Y-65866433D01*
X189855483Y-66057510D01*
X190022490Y-66224517D01*
X190057127Y-66249683D01*
X190099792Y-66305013D01*
X190105771Y-66374626D01*
X190073165Y-66436421D01*
X190057130Y-66450315D01*
X190039365Y-66463222D01*
X190022488Y-66475484D01*
X189855485Y-66642487D01*
X189855485Y-66642488D01*
X189855483Y-66642490D01*
X189795862Y-66724550D01*
X189716657Y-66833566D01*
X189609433Y-67044003D01*
X189536446Y-67268631D01*
X189499500Y-67501902D01*
X189499500Y-67738097D01*
X189536446Y-67971368D01*
X189609433Y-68195996D01*
X189703189Y-68380000D01*
X189716657Y-68406433D01*
X189855483Y-68597510D01*
X190022490Y-68764517D01*
X190057127Y-68789683D01*
X190099792Y-68845013D01*
X190105771Y-68914626D01*
X190073165Y-68976421D01*
X190057130Y-68990315D01*
X190039365Y-69003222D01*
X190022488Y-69015484D01*
X189855485Y-69182487D01*
X189855485Y-69182488D01*
X189855483Y-69182490D01*
X189795862Y-69264550D01*
X189716657Y-69373566D01*
X189609433Y-69584003D01*
X189536446Y-69808631D01*
X189499500Y-70041902D01*
X189499500Y-70278097D01*
X189536446Y-70511368D01*
X189609433Y-70735996D01*
X189693806Y-70901585D01*
X189716657Y-70946433D01*
X189855483Y-71137510D01*
X190022490Y-71304517D01*
X190057127Y-71329683D01*
X190099792Y-71385013D01*
X190105771Y-71454626D01*
X190073165Y-71516421D01*
X190057130Y-71530315D01*
X190039365Y-71543222D01*
X190022488Y-71555484D01*
X189855485Y-71722487D01*
X189855485Y-71722488D01*
X189855483Y-71722490D01*
X189845494Y-71736239D01*
X189716657Y-71913566D01*
X189609433Y-72124003D01*
X189536446Y-72348631D01*
X189499500Y-72581902D01*
X189499500Y-72818097D01*
X189536446Y-73051368D01*
X189609433Y-73275996D01*
X189693806Y-73441585D01*
X189716657Y-73486433D01*
X189855483Y-73677510D01*
X190022490Y-73844517D01*
X190057127Y-73869683D01*
X190099792Y-73925013D01*
X190105771Y-73994626D01*
X190073165Y-74056421D01*
X190057130Y-74070315D01*
X190039365Y-74083222D01*
X190022488Y-74095484D01*
X189855485Y-74262487D01*
X189855485Y-74262488D01*
X189855483Y-74262490D01*
X189845494Y-74276239D01*
X189716657Y-74453566D01*
X189609433Y-74664003D01*
X189536446Y-74888631D01*
X189499500Y-75121902D01*
X189499500Y-75358097D01*
X189536446Y-75591368D01*
X189609433Y-75815996D01*
X189693806Y-75981585D01*
X189716657Y-76026433D01*
X189855483Y-76217510D01*
X190022490Y-76384517D01*
X190057127Y-76409683D01*
X190099792Y-76465013D01*
X190105771Y-76534626D01*
X190073165Y-76596421D01*
X190057130Y-76610315D01*
X190039365Y-76623222D01*
X190022488Y-76635484D01*
X189855485Y-76802487D01*
X189855485Y-76802488D01*
X189855483Y-76802490D01*
X189811938Y-76862425D01*
X189716657Y-76993566D01*
X189609433Y-77204003D01*
X189536446Y-77428631D01*
X189499500Y-77661902D01*
X189499500Y-77898097D01*
X189536446Y-78131368D01*
X189609433Y-78355996D01*
X189687823Y-78509843D01*
X189716657Y-78566433D01*
X189855483Y-78757510D01*
X190022490Y-78924517D01*
X190057127Y-78949683D01*
X190099792Y-79005013D01*
X190105771Y-79074626D01*
X190073165Y-79136421D01*
X190057130Y-79150315D01*
X190039365Y-79163222D01*
X190022488Y-79175484D01*
X189855485Y-79342487D01*
X189855485Y-79342488D01*
X189855483Y-79342490D01*
X189795862Y-79424550D01*
X189716657Y-79533566D01*
X189609433Y-79744003D01*
X189536446Y-79968631D01*
X189499500Y-80201902D01*
X189499500Y-80438097D01*
X189536446Y-80671368D01*
X189609433Y-80895996D01*
X189716657Y-81106433D01*
X189855483Y-81297510D01*
X190022490Y-81464517D01*
X190057127Y-81489683D01*
X190099792Y-81545013D01*
X190105771Y-81614626D01*
X190073165Y-81676421D01*
X190057130Y-81690315D01*
X190039365Y-81703222D01*
X190022488Y-81715484D01*
X189855485Y-81882487D01*
X189855485Y-81882488D01*
X189855483Y-81882490D01*
X189795862Y-81964550D01*
X189716657Y-82073566D01*
X189609433Y-82284003D01*
X189536446Y-82508631D01*
X189499500Y-82741902D01*
X189499500Y-82978097D01*
X189536446Y-83211368D01*
X189609433Y-83435996D01*
X189716657Y-83646433D01*
X189855483Y-83837510D01*
X190022490Y-84004517D01*
X190057127Y-84029683D01*
X190099792Y-84085013D01*
X190105771Y-84154626D01*
X190073165Y-84216421D01*
X190057130Y-84230315D01*
X190039365Y-84243222D01*
X190022488Y-84255484D01*
X189855485Y-84422487D01*
X189855485Y-84422488D01*
X189855483Y-84422490D01*
X189818116Y-84473921D01*
X189716657Y-84613566D01*
X189609433Y-84824003D01*
X189536446Y-85048631D01*
X189499500Y-85281902D01*
X189499500Y-85518097D01*
X189536446Y-85751368D01*
X189609433Y-85975996D01*
X189686463Y-86127174D01*
X189716657Y-86186433D01*
X189855483Y-86377510D01*
X190022490Y-86544517D01*
X190057127Y-86569683D01*
X190099792Y-86625013D01*
X190105771Y-86694626D01*
X190073165Y-86756421D01*
X190057130Y-86770315D01*
X190044987Y-86779138D01*
X190022488Y-86795484D01*
X189855485Y-86962487D01*
X189855485Y-86962488D01*
X189855483Y-86962490D01*
X189795862Y-87044550D01*
X189716657Y-87153566D01*
X189707368Y-87171797D01*
X189659392Y-87222592D01*
X189596884Y-87239500D01*
X186991004Y-87239500D01*
X186855677Y-87266418D01*
X186855667Y-87266421D01*
X186728192Y-87319222D01*
X186613454Y-87395887D01*
X186455890Y-87553451D01*
X186455884Y-87553458D01*
X186398255Y-87639708D01*
X186398255Y-87639709D01*
X186379223Y-87668191D01*
X186379222Y-87668193D01*
X186326421Y-87795667D01*
X186326418Y-87795677D01*
X186299500Y-87931004D01*
X186299500Y-97658480D01*
X186279815Y-97725519D01*
X186263181Y-97746161D01*
X181715888Y-102293453D01*
X181715887Y-102293454D01*
X181639222Y-102408192D01*
X181586421Y-102535667D01*
X181586418Y-102535679D01*
X181563618Y-102650304D01*
X181563617Y-102650309D01*
X181559500Y-102671002D01*
X181559500Y-107258255D01*
X181539815Y-107325294D01*
X181508385Y-107358573D01*
X181412787Y-107428028D01*
X181412782Y-107428032D01*
X181268028Y-107572786D01*
X181147715Y-107738386D01*
X181054781Y-107920776D01*
X180991522Y-108115465D01*
X180959500Y-108317648D01*
X180959500Y-108522351D01*
X180991522Y-108724534D01*
X181054781Y-108919223D01*
X181118691Y-109044653D01*
X181134787Y-109076242D01*
X181147715Y-109101613D01*
X181268028Y-109267213D01*
X181412786Y-109411971D01*
X181567749Y-109524556D01*
X181578390Y-109532287D01*
X181694607Y-109591503D01*
X181760776Y-109625218D01*
X181760778Y-109625218D01*
X181760781Y-109625220D01*
X181865137Y-109659127D01*
X181955465Y-109688477D01*
X182056557Y-109704488D01*
X182157648Y-109720500D01*
X182157649Y-109720500D01*
X182362351Y-109720500D01*
X182362352Y-109720500D01*
X182564534Y-109688477D01*
X182759219Y-109625220D01*
X182941610Y-109532287D01*
X183034590Y-109464732D01*
X183107213Y-109411971D01*
X183107215Y-109411968D01*
X183107219Y-109411966D01*
X183251966Y-109267219D01*
X183251968Y-109267215D01*
X183251971Y-109267213D01*
X183338593Y-109147986D01*
X183372287Y-109101610D01*
X183462872Y-108923827D01*
X183465218Y-108919223D01*
X183465218Y-108919222D01*
X183465220Y-108919219D01*
X183528477Y-108724534D01*
X183560500Y-108522352D01*
X183560500Y-108317648D01*
X183528477Y-108115466D01*
X183512369Y-108065892D01*
X183490871Y-107999727D01*
X183465220Y-107920781D01*
X183465218Y-107920778D01*
X183465218Y-107920776D01*
X183421566Y-107835106D01*
X183372287Y-107738390D01*
X183355477Y-107715253D01*
X183251971Y-107572786D01*
X183107217Y-107428032D01*
X183107212Y-107428028D01*
X183011615Y-107358573D01*
X182968949Y-107303243D01*
X182960500Y-107258255D01*
X182960500Y-103081519D01*
X182980185Y-103014480D01*
X182996819Y-102993838D01*
X187544112Y-98446545D01*
X187544114Y-98446543D01*
X187583814Y-98387127D01*
X187620775Y-98331811D01*
X187673580Y-98204328D01*
X187675743Y-98193457D01*
X187687063Y-98136543D01*
X187700500Y-98068993D01*
X187700500Y-88764500D01*
X187720185Y-88697461D01*
X187772989Y-88651706D01*
X187824500Y-88640500D01*
X189596884Y-88640500D01*
X189663923Y-88660185D01*
X189707368Y-88708203D01*
X189716657Y-88726433D01*
X189855483Y-88917510D01*
X190022490Y-89084517D01*
X190213567Y-89223343D01*
X190271431Y-89252826D01*
X190424003Y-89330566D01*
X190424005Y-89330566D01*
X190424008Y-89330568D01*
X190539504Y-89368095D01*
X190648631Y-89403553D01*
X190881903Y-89440500D01*
X190915708Y-89440500D01*
X190982747Y-89460185D01*
X191028502Y-89512989D01*
X191038446Y-89582147D01*
X191009421Y-89645703D01*
X190950643Y-89683477D01*
X190947835Y-89684265D01*
X190890418Y-89699649D01*
X190856112Y-89708842D01*
X190644123Y-89796650D01*
X190644109Y-89796657D01*
X190445382Y-89911392D01*
X190263338Y-90051081D01*
X190101081Y-90213338D01*
X189961392Y-90395382D01*
X189846657Y-90594109D01*
X189846650Y-90594123D01*
X189758842Y-90806112D01*
X189699453Y-91027759D01*
X189699451Y-91027770D01*
X189669500Y-91255258D01*
X189669500Y-91484741D01*
X189694446Y-91674215D01*
X189699452Y-91712238D01*
X189699453Y-91712240D01*
X189758842Y-91933887D01*
X189846650Y-92145876D01*
X189846657Y-92145890D01*
X189961392Y-92344617D01*
X190101081Y-92526661D01*
X190101089Y-92526670D01*
X190263330Y-92688911D01*
X190263338Y-92688918D01*
X190445382Y-92828607D01*
X190445385Y-92828608D01*
X190445388Y-92828611D01*
X190644112Y-92943344D01*
X190644117Y-92943346D01*
X190644123Y-92943349D01*
X190727931Y-92978063D01*
X190856113Y-93031158D01*
X191077762Y-93090548D01*
X191305266Y-93120500D01*
X191305273Y-93120500D01*
X191534727Y-93120500D01*
X191534734Y-93120500D01*
X191762238Y-93090548D01*
X191983887Y-93031158D01*
X192195888Y-92943344D01*
X192394612Y-92828611D01*
X192576661Y-92688919D01*
X192576665Y-92688914D01*
X192576670Y-92688911D01*
X192738911Y-92526670D01*
X192738914Y-92526665D01*
X192738919Y-92526661D01*
X192878611Y-92344612D01*
X192993344Y-92145888D01*
X193081158Y-91933887D01*
X193140548Y-91712238D01*
X193170500Y-91484734D01*
X193170500Y-91255266D01*
X193140548Y-91027762D01*
X193081158Y-90806113D01*
X192993344Y-90594112D01*
X192878611Y-90395388D01*
X192878608Y-90395385D01*
X192878607Y-90395382D01*
X192738918Y-90213338D01*
X192738911Y-90213330D01*
X192576670Y-90051089D01*
X192576661Y-90051081D01*
X192394617Y-89911392D01*
X192195890Y-89796657D01*
X192195876Y-89796650D01*
X191983887Y-89708842D01*
X191762238Y-89649452D01*
X191724215Y-89644446D01*
X191534741Y-89619500D01*
X191534734Y-89619500D01*
X191469657Y-89619500D01*
X191402618Y-89599815D01*
X191356863Y-89547011D01*
X191346919Y-89477853D01*
X191375944Y-89414297D01*
X191431338Y-89377569D01*
X191575992Y-89330568D01*
X191786433Y-89223343D01*
X191977510Y-89084517D01*
X192144517Y-88917510D01*
X192283343Y-88726433D01*
X192390568Y-88515992D01*
X192463553Y-88291368D01*
X192500500Y-88058097D01*
X192500500Y-87821902D01*
X192463553Y-87588631D01*
X192400136Y-87393455D01*
X192390568Y-87364008D01*
X192390566Y-87364005D01*
X192390566Y-87364003D01*
X192318513Y-87222592D01*
X192283343Y-87153567D01*
X192144517Y-86962490D01*
X191977510Y-86795483D01*
X191942872Y-86770317D01*
X191900207Y-86714989D01*
X191894228Y-86645375D01*
X191926833Y-86583580D01*
X191942873Y-86569682D01*
X191977510Y-86544517D01*
X192144517Y-86377510D01*
X192283343Y-86186433D01*
X192390568Y-85975992D01*
X192463553Y-85751368D01*
X192500500Y-85518097D01*
X192500500Y-85281902D01*
X192463553Y-85048631D01*
X192411990Y-84889939D01*
X192390568Y-84824008D01*
X192390566Y-84824005D01*
X192390566Y-84824003D01*
X192316107Y-84677870D01*
X192283343Y-84613567D01*
X192144517Y-84422490D01*
X191977510Y-84255483D01*
X191942872Y-84230317D01*
X191900207Y-84174989D01*
X191894228Y-84105375D01*
X191926833Y-84043580D01*
X191942873Y-84029682D01*
X191977510Y-84004517D01*
X192144517Y-83837510D01*
X192283343Y-83646433D01*
X192390568Y-83435992D01*
X192463553Y-83211368D01*
X192500500Y-82978097D01*
X192500500Y-82741902D01*
X192463553Y-82508631D01*
X192390566Y-82284003D01*
X192283342Y-82073566D01*
X192278917Y-82067475D01*
X192144517Y-81882490D01*
X191977510Y-81715483D01*
X191942872Y-81690317D01*
X191900207Y-81634989D01*
X191894228Y-81565375D01*
X191926833Y-81503580D01*
X191942873Y-81489682D01*
X191977510Y-81464517D01*
X192144517Y-81297510D01*
X192283343Y-81106433D01*
X192390568Y-80895992D01*
X192463553Y-80671368D01*
X192500500Y-80438097D01*
X192500500Y-80201902D01*
X192463553Y-79968631D01*
X192390566Y-79744003D01*
X192283342Y-79533566D01*
X192144517Y-79342490D01*
X191977510Y-79175483D01*
X191942872Y-79150317D01*
X191900207Y-79094989D01*
X191894228Y-79025375D01*
X191926833Y-78963580D01*
X191942873Y-78949682D01*
X191977510Y-78924517D01*
X192144517Y-78757510D01*
X192283343Y-78566433D01*
X192390568Y-78355992D01*
X192463553Y-78131368D01*
X192469326Y-78094918D01*
X192500500Y-77898097D01*
X192500500Y-77661902D01*
X192463553Y-77428631D01*
X192421005Y-77297682D01*
X192390568Y-77204008D01*
X192390566Y-77204005D01*
X192390566Y-77204003D01*
X192283342Y-76993566D01*
X192216422Y-76901459D01*
X192144517Y-76802490D01*
X191977510Y-76635483D01*
X191942872Y-76610317D01*
X191900207Y-76554989D01*
X191894228Y-76485375D01*
X191926833Y-76423580D01*
X191942873Y-76409682D01*
X191977510Y-76384517D01*
X192144517Y-76217510D01*
X192283343Y-76026433D01*
X192390568Y-75815992D01*
X192463553Y-75591368D01*
X192469918Y-75551181D01*
X192500500Y-75358097D01*
X192500500Y-75121902D01*
X192463553Y-74888631D01*
X192393677Y-74673578D01*
X192390568Y-74664008D01*
X192390566Y-74664005D01*
X192390566Y-74664003D01*
X192283342Y-74453566D01*
X192278239Y-74446542D01*
X192144517Y-74262490D01*
X191977510Y-74095483D01*
X191942872Y-74070317D01*
X191900207Y-74014989D01*
X191894228Y-73945375D01*
X191926833Y-73883580D01*
X191942873Y-73869682D01*
X191977510Y-73844517D01*
X192144517Y-73677510D01*
X192283343Y-73486433D01*
X192390568Y-73275992D01*
X192463553Y-73051368D01*
X192500500Y-72818097D01*
X192500500Y-72581902D01*
X192463553Y-72348631D01*
X192429689Y-72244412D01*
X192390568Y-72124008D01*
X192390566Y-72124005D01*
X192390566Y-72124003D01*
X192283342Y-71913566D01*
X192144517Y-71722490D01*
X191977510Y-71555483D01*
X191942872Y-71530317D01*
X191900207Y-71474989D01*
X191894228Y-71405375D01*
X191926833Y-71343580D01*
X191942873Y-71329682D01*
X191977510Y-71304517D01*
X192144517Y-71137510D01*
X192283343Y-70946433D01*
X192390568Y-70735992D01*
X192463553Y-70511368D01*
X192500500Y-70278097D01*
X192500500Y-70041902D01*
X192463553Y-69808631D01*
X192390566Y-69584003D01*
X192334002Y-69472991D01*
X192283343Y-69373567D01*
X192144517Y-69182490D01*
X191977510Y-69015483D01*
X191942872Y-68990317D01*
X191900207Y-68934989D01*
X191894228Y-68865375D01*
X191926833Y-68803580D01*
X191942873Y-68789682D01*
X191977510Y-68764517D01*
X192144517Y-68597510D01*
X192283343Y-68406433D01*
X192390568Y-68195992D01*
X192463553Y-67971368D01*
X192500500Y-67738097D01*
X192500500Y-67501902D01*
X192463553Y-67268631D01*
X192429689Y-67164412D01*
X192390568Y-67044008D01*
X192390566Y-67044005D01*
X192390566Y-67044003D01*
X192317936Y-66901459D01*
X192283343Y-66833567D01*
X192144517Y-66642490D01*
X191977510Y-66475483D01*
X191942872Y-66450317D01*
X191900207Y-66394989D01*
X191894228Y-66325375D01*
X191926833Y-66263580D01*
X191942873Y-66249682D01*
X191977510Y-66224517D01*
X192144517Y-66057510D01*
X192283343Y-65866433D01*
X192390568Y-65655992D01*
X192463553Y-65431368D01*
X192500500Y-65198097D01*
X192500500Y-64961902D01*
X192463553Y-64728631D01*
X192401530Y-64537745D01*
X192390568Y-64504008D01*
X192390566Y-64504005D01*
X192390566Y-64504003D01*
X192315789Y-64357246D01*
X192283343Y-64293567D01*
X192144517Y-64102490D01*
X191977510Y-63935483D01*
X191942872Y-63910317D01*
X191900207Y-63854989D01*
X191894228Y-63785375D01*
X191926833Y-63723580D01*
X191942873Y-63709682D01*
X191977510Y-63684517D01*
X192144517Y-63517510D01*
X192283343Y-63326433D01*
X192390568Y-63115992D01*
X192463553Y-62891368D01*
X192466066Y-62875500D01*
X192500500Y-62658097D01*
X192500500Y-62421902D01*
X192463553Y-62188631D01*
X192405476Y-62009890D01*
X192390568Y-61964008D01*
X192390566Y-61964005D01*
X192390566Y-61964003D01*
X192301113Y-61788443D01*
X192283343Y-61753567D01*
X192144517Y-61562490D01*
X191977510Y-61395483D01*
X191942872Y-61370317D01*
X191900207Y-61314989D01*
X191894228Y-61245375D01*
X191926833Y-61183580D01*
X191942873Y-61169682D01*
X191977510Y-61144517D01*
X192144517Y-60977510D01*
X192283343Y-60786433D01*
X192390568Y-60575992D01*
X192463553Y-60351368D01*
X192500500Y-60118097D01*
X192500500Y-59881902D01*
X192463553Y-59648631D01*
X192405476Y-59469890D01*
X192390568Y-59424008D01*
X192390566Y-59424005D01*
X192390566Y-59424003D01*
X192301113Y-59248443D01*
X192283343Y-59213567D01*
X192144517Y-59022490D01*
X191977510Y-58855483D01*
X191942872Y-58830317D01*
X191900207Y-58774989D01*
X191894228Y-58705375D01*
X191926833Y-58643580D01*
X191942873Y-58629682D01*
X191977510Y-58604517D01*
X192144517Y-58437510D01*
X192283343Y-58246433D01*
X192390568Y-58035992D01*
X192463553Y-57811368D01*
X192500500Y-57578097D01*
X192500500Y-57341902D01*
X192463553Y-57108631D01*
X192429689Y-57004412D01*
X192390568Y-56884008D01*
X192390566Y-56884005D01*
X192390566Y-56884003D01*
X192283342Y-56673566D01*
X192144517Y-56482490D01*
X191977510Y-56315483D01*
X191918282Y-56272451D01*
X191875617Y-56217122D01*
X191867550Y-56162404D01*
X191869104Y-56142657D01*
X191137574Y-55411128D01*
X191196853Y-55395245D01*
X191313147Y-55328102D01*
X191408102Y-55233147D01*
X191475245Y-55116853D01*
X191491128Y-55057575D01*
X192222658Y-55789105D01*
X192222658Y-55789104D01*
X192282914Y-55706169D01*
X192282918Y-55706163D01*
X192390102Y-55495802D01*
X192463065Y-55271247D01*
X192500000Y-55038052D01*
X192500000Y-54801947D01*
X192463065Y-54568752D01*
X192390102Y-54344197D01*
X192282914Y-54133828D01*
X192192964Y-54010023D01*
X192169484Y-53944216D01*
X192185309Y-53876162D01*
X192234640Y-53828220D01*
X192234546Y-53828047D01*
X192235169Y-53827706D01*
X192235415Y-53827468D01*
X192236480Y-53826990D01*
X192242326Y-53823797D01*
X192242331Y-53823796D01*
X192357546Y-53737546D01*
X192443796Y-53622331D01*
X192494091Y-53487483D01*
X192500500Y-53427873D01*
X192500499Y-52345780D01*
X192520184Y-52278742D01*
X192536813Y-52258105D01*
X196758101Y-48036819D01*
X196819424Y-48003334D01*
X196845782Y-48000500D01*
X224098542Y-48000500D01*
X224122866Y-47995661D01*
X224195188Y-47981275D01*
X224287658Y-47962881D01*
X224311847Y-47960500D01*
X227039800Y-47960500D01*
X227106839Y-47980185D01*
X227119365Y-47989493D01*
X227292179Y-48115048D01*
X227292181Y-48115049D01*
X227292184Y-48115051D01*
X227301493Y-48119794D01*
X227352290Y-48167766D01*
X227369087Y-48235587D01*
X227346552Y-48301722D01*
X227301502Y-48340762D01*
X227292443Y-48345378D01*
X227120540Y-48470272D01*
X227120535Y-48470276D01*
X226970276Y-48620535D01*
X226970272Y-48620540D01*
X226845379Y-48792442D01*
X226748904Y-48981782D01*
X226683242Y-49183870D01*
X226683242Y-49183873D01*
X226672769Y-49250000D01*
X227566988Y-49250000D01*
X227534075Y-49307007D01*
X227500000Y-49434174D01*
X227500000Y-49565826D01*
X227534075Y-49692993D01*
X227566988Y-49750000D01*
X226672769Y-49750000D01*
X226683242Y-49816126D01*
X226683242Y-49816129D01*
X226748904Y-50018217D01*
X226845379Y-50207557D01*
X226970272Y-50379459D01*
X226970276Y-50379464D01*
X227120535Y-50529723D01*
X227120540Y-50529727D01*
X227292442Y-50654620D01*
X227481782Y-50751095D01*
X227683871Y-50816757D01*
X227750000Y-50827231D01*
X227750000Y-49933012D01*
X227807007Y-49965925D01*
X227934174Y-50000000D01*
X228065826Y-50000000D01*
X228192993Y-49965925D01*
X228250000Y-49933012D01*
X228250000Y-50827230D01*
X228316125Y-50816758D01*
X228388181Y-50793345D01*
X228458022Y-50791349D01*
X228517855Y-50827429D01*
X228548684Y-50890130D01*
X228550500Y-50911276D01*
X228550500Y-53946000D01*
X228530815Y-54013039D01*
X228478011Y-54058794D01*
X228426500Y-54070000D01*
X228250000Y-54070000D01*
X228250000Y-54986988D01*
X228192993Y-54954075D01*
X228065826Y-54920000D01*
X227934174Y-54920000D01*
X227807007Y-54954075D01*
X227750000Y-54986988D01*
X227750000Y-54070000D01*
X227102155Y-54070000D01*
X227042627Y-54076401D01*
X227042620Y-54076403D01*
X226907913Y-54126645D01*
X226907906Y-54126649D01*
X226792812Y-54212809D01*
X226792809Y-54212812D01*
X226706649Y-54327906D01*
X226706645Y-54327913D01*
X226656403Y-54462620D01*
X226656401Y-54462627D01*
X226650000Y-54522155D01*
X226650000Y-55170000D01*
X227566988Y-55170000D01*
X227534075Y-55227007D01*
X227500000Y-55354174D01*
X227500000Y-55485826D01*
X227534075Y-55612993D01*
X227566988Y-55670000D01*
X226650000Y-55670000D01*
X226650000Y-56317844D01*
X226656401Y-56377372D01*
X226656403Y-56377379D01*
X226706645Y-56512086D01*
X226706649Y-56512093D01*
X226792809Y-56627187D01*
X226792812Y-56627190D01*
X226907906Y-56713350D01*
X226907913Y-56713354D01*
X227039470Y-56762422D01*
X227095404Y-56804293D01*
X227119821Y-56869758D01*
X227104969Y-56938031D01*
X227083819Y-56966285D01*
X226969889Y-57080215D01*
X226844951Y-57252179D01*
X226748444Y-57441585D01*
X226682753Y-57643760D01*
X226649500Y-57853713D01*
X226649500Y-58066286D01*
X226678032Y-58246433D01*
X226682754Y-58276243D01*
X226735153Y-58437511D01*
X226748444Y-58478414D01*
X226844951Y-58667820D01*
X226969890Y-58839786D01*
X227120213Y-58990109D01*
X227292182Y-59115050D01*
X227300946Y-59119516D01*
X227351742Y-59167491D01*
X227368536Y-59235312D01*
X227345998Y-59301447D01*
X227300946Y-59340484D01*
X227292182Y-59344949D01*
X227120213Y-59469890D01*
X226969890Y-59620213D01*
X226844951Y-59792179D01*
X226748444Y-59981585D01*
X226682753Y-60183760D01*
X226649500Y-60393713D01*
X226649500Y-60606286D01*
X226678032Y-60786433D01*
X226682754Y-60816243D01*
X226735153Y-60977511D01*
X226748444Y-61018414D01*
X226844951Y-61207820D01*
X226969890Y-61379786D01*
X227120213Y-61530109D01*
X227292182Y-61655050D01*
X227300946Y-61659516D01*
X227351742Y-61707491D01*
X227368536Y-61775312D01*
X227345998Y-61841447D01*
X227300946Y-61880484D01*
X227292182Y-61884949D01*
X227120213Y-62009890D01*
X226969890Y-62160213D01*
X226844951Y-62332179D01*
X226748444Y-62521585D01*
X226682753Y-62723759D01*
X226655648Y-62894898D01*
X226625719Y-62958033D01*
X226566407Y-62994964D01*
X226533175Y-62999500D01*
X221124500Y-62999500D01*
X221057461Y-62979815D01*
X221011706Y-62927011D01*
X221000500Y-62875500D01*
X221000500Y-55881456D01*
X220962052Y-55688169D01*
X220962049Y-55688160D01*
X220960027Y-55683280D01*
X220953131Y-55666631D01*
X220939961Y-55634834D01*
X220930933Y-55613039D01*
X220886633Y-55506089D01*
X220886632Y-55506086D01*
X220886630Y-55506083D01*
X220886628Y-55506079D01*
X220777139Y-55342218D01*
X220777136Y-55342214D01*
X220634686Y-55199764D01*
X220634655Y-55199735D01*
X217936819Y-52501899D01*
X217903334Y-52440576D01*
X217900500Y-52414218D01*
X217900500Y-52261902D01*
X217863553Y-52028631D01*
X217790566Y-51804003D01*
X217683342Y-51593566D01*
X217544517Y-51402490D01*
X217377510Y-51235483D01*
X217186433Y-51096657D01*
X216975996Y-50989433D01*
X216751368Y-50916446D01*
X216518097Y-50879500D01*
X216518092Y-50879500D01*
X216281908Y-50879500D01*
X216281903Y-50879500D01*
X216048631Y-50916446D01*
X215824003Y-50989433D01*
X215613566Y-51096657D01*
X215557119Y-51137669D01*
X215422490Y-51235483D01*
X215422488Y-51235485D01*
X215422487Y-51235485D01*
X215255485Y-51402487D01*
X215255485Y-51402488D01*
X215255483Y-51402490D01*
X215195862Y-51484550D01*
X215116657Y-51593566D01*
X215009433Y-51804003D01*
X214936446Y-52028631D01*
X214899500Y-52261902D01*
X214899500Y-52414217D01*
X214879815Y-52481256D01*
X214863181Y-52501898D01*
X213362220Y-54002859D01*
X213362218Y-54002861D01*
X213306285Y-54058794D01*
X213222859Y-54142219D01*
X213113371Y-54306079D01*
X213113364Y-54306092D01*
X213037950Y-54488160D01*
X213037947Y-54488170D01*
X212999500Y-54681456D01*
X212999500Y-66534216D01*
X212979815Y-66601255D01*
X212963181Y-66621897D01*
X212901863Y-66683214D01*
X212901860Y-66683218D01*
X212792371Y-66847079D01*
X212792366Y-66847089D01*
X212739038Y-66975835D01*
X212716949Y-67029161D01*
X212716947Y-67029167D01*
X212703149Y-67098540D01*
X212696986Y-67129519D01*
X212678500Y-67222456D01*
X212678500Y-86779138D01*
X212658815Y-86846177D01*
X212606011Y-86891932D01*
X212536853Y-86901876D01*
X212488951Y-86880000D01*
X212480000Y-86880000D01*
X194790000Y-86880000D01*
X194790000Y-93370000D01*
X211474240Y-93370000D01*
X211541279Y-93389685D01*
X211587034Y-93442489D01*
X211596978Y-93511647D01*
X211567953Y-93575203D01*
X211561921Y-93581681D01*
X202760421Y-102383181D01*
X202733493Y-102397884D01*
X202707675Y-102414477D01*
X202701474Y-102415368D01*
X202699098Y-102416666D01*
X202672740Y-102419500D01*
X202605122Y-102419500D01*
X202538083Y-102399815D01*
X202492328Y-102347011D01*
X202484445Y-102324015D01*
X202484091Y-102322521D01*
X202484091Y-102322517D01*
X202440011Y-102204332D01*
X202433797Y-102187671D01*
X202433793Y-102187664D01*
X202347547Y-102072455D01*
X202347544Y-102072452D01*
X202232335Y-101986206D01*
X202232328Y-101986202D01*
X202097482Y-101935908D01*
X202097483Y-101935908D01*
X202037883Y-101929501D01*
X202037881Y-101929500D01*
X202037873Y-101929500D01*
X202037864Y-101929500D01*
X199962129Y-101929500D01*
X199962123Y-101929501D01*
X199902516Y-101935908D01*
X199767671Y-101986202D01*
X199767664Y-101986206D01*
X199652455Y-102072452D01*
X199652452Y-102072455D01*
X199566206Y-102187664D01*
X199566202Y-102187671D01*
X199515908Y-102322517D01*
X199509501Y-102382116D01*
X199509500Y-102382135D01*
X199509500Y-104457870D01*
X199509501Y-104457876D01*
X199515908Y-104517483D01*
X199566202Y-104652328D01*
X199566206Y-104652335D01*
X199652452Y-104767544D01*
X199652455Y-104767547D01*
X199767664Y-104853793D01*
X199767671Y-104853797D01*
X199902517Y-104904091D01*
X199902516Y-104904091D01*
X199909444Y-104904835D01*
X199962127Y-104910500D01*
X202037872Y-104910499D01*
X202097483Y-104904091D01*
X202232331Y-104853796D01*
X202347546Y-104767546D01*
X202433796Y-104652331D01*
X202484091Y-104517483D01*
X202484091Y-104517477D01*
X202484445Y-104515985D01*
X202485039Y-104514941D01*
X202486802Y-104510215D01*
X202487567Y-104510500D01*
X202519019Y-104455269D01*
X202580930Y-104422883D01*
X202605122Y-104420500D01*
X203237065Y-104420500D01*
X203280488Y-104411862D01*
X203385388Y-104390996D01*
X203430358Y-104382051D01*
X203483687Y-104359961D01*
X203612436Y-104306632D01*
X203776304Y-104197139D01*
X203915661Y-104057782D01*
X203915662Y-104057779D01*
X203922728Y-104050714D01*
X203922731Y-104050710D01*
X204670746Y-103302695D01*
X211709500Y-103302695D01*
X211709500Y-103537304D01*
X211746201Y-103769027D01*
X211818697Y-103992150D01*
X211925212Y-104201195D01*
X212063104Y-104390989D01*
X212063108Y-104390994D01*
X212229005Y-104556891D01*
X212229010Y-104556895D01*
X212360364Y-104652328D01*
X212418808Y-104694790D01*
X212588505Y-104781255D01*
X212627849Y-104801302D01*
X212739410Y-104837550D01*
X212850974Y-104873799D01*
X213082695Y-104910500D01*
X213082696Y-104910500D01*
X213317304Y-104910500D01*
X213317305Y-104910500D01*
X213549026Y-104873799D01*
X213772153Y-104801301D01*
X213981192Y-104694790D01*
X214170996Y-104556890D01*
X214336890Y-104390996D01*
X214401553Y-104301995D01*
X224299500Y-104301995D01*
X224299500Y-104538004D01*
X224299501Y-104538020D01*
X224329718Y-104767547D01*
X224330307Y-104772014D01*
X224352221Y-104853797D01*
X224391394Y-104999993D01*
X224481714Y-105218045D01*
X224481719Y-105218056D01*
X224552677Y-105340957D01*
X224599727Y-105422450D01*
X224599729Y-105422453D01*
X224599730Y-105422454D01*
X224743406Y-105609697D01*
X224743412Y-105609704D01*
X224910295Y-105776587D01*
X224910301Y-105776592D01*
X225097550Y-105920273D01*
X225228918Y-105996118D01*
X225301943Y-106038280D01*
X225301948Y-106038282D01*
X225301951Y-106038284D01*
X225520007Y-106128606D01*
X225747986Y-106189693D01*
X225981989Y-106220500D01*
X225981996Y-106220500D01*
X226218004Y-106220500D01*
X226218011Y-106220500D01*
X226452014Y-106189693D01*
X226679993Y-106128606D01*
X226898049Y-106038284D01*
X227102450Y-105920273D01*
X227289699Y-105776592D01*
X227456592Y-105609699D01*
X227600273Y-105422450D01*
X227718284Y-105218049D01*
X227808606Y-104999993D01*
X227869693Y-104772014D01*
X227900500Y-104538011D01*
X227900500Y-104301989D01*
X227869693Y-104067986D01*
X227808606Y-103840007D01*
X227718284Y-103621951D01*
X227718282Y-103621948D01*
X227718280Y-103621943D01*
X227676118Y-103548918D01*
X227600273Y-103417550D01*
X227456592Y-103230301D01*
X227456587Y-103230295D01*
X227289704Y-103063412D01*
X227289697Y-103063406D01*
X227102454Y-102919730D01*
X227102453Y-102919729D01*
X227102450Y-102919727D01*
X226977954Y-102847849D01*
X226898056Y-102801719D01*
X226898045Y-102801714D01*
X226679993Y-102711394D01*
X226529267Y-102671007D01*
X226452014Y-102650307D01*
X226452013Y-102650306D01*
X226452010Y-102650306D01*
X226218020Y-102619501D01*
X226218017Y-102619500D01*
X226218011Y-102619500D01*
X225981989Y-102619500D01*
X225981983Y-102619500D01*
X225981979Y-102619501D01*
X225747989Y-102650306D01*
X225520006Y-102711394D01*
X225301954Y-102801714D01*
X225301943Y-102801719D01*
X225097545Y-102919730D01*
X224910302Y-103063406D01*
X224910295Y-103063412D01*
X224743412Y-103230295D01*
X224743406Y-103230302D01*
X224599730Y-103417545D01*
X224481719Y-103621943D01*
X224481714Y-103621954D01*
X224391394Y-103840006D01*
X224330306Y-104067989D01*
X224299501Y-104301979D01*
X224299500Y-104301995D01*
X214401553Y-104301995D01*
X214457461Y-104225045D01*
X214469149Y-104208955D01*
X214474790Y-104201192D01*
X214581301Y-103992153D01*
X214653799Y-103769026D01*
X214690500Y-103537305D01*
X214690500Y-103302695D01*
X214653799Y-103070974D01*
X214603988Y-102917671D01*
X214581302Y-102847849D01*
X214581301Y-102847847D01*
X214474790Y-102638808D01*
X214399854Y-102535667D01*
X214336895Y-102449010D01*
X214336891Y-102449005D01*
X214170994Y-102283108D01*
X214170989Y-102283104D01*
X213981195Y-102145212D01*
X213981194Y-102145211D01*
X213981192Y-102145210D01*
X213831612Y-102068995D01*
X213772150Y-102038697D01*
X213549027Y-101966201D01*
X213433165Y-101947850D01*
X213317305Y-101929500D01*
X213082695Y-101929500D01*
X213005454Y-101941733D01*
X212850972Y-101966201D01*
X212627849Y-102038697D01*
X212418804Y-102145212D01*
X212229010Y-102283104D01*
X212229005Y-102283108D01*
X212063108Y-102449005D01*
X212063104Y-102449010D01*
X211925212Y-102638804D01*
X211818697Y-102847849D01*
X211746201Y-103070972D01*
X211709500Y-103302695D01*
X204670746Y-103302695D01*
X214316778Y-93656663D01*
X214316782Y-93656661D01*
X214456139Y-93517304D01*
X214565632Y-93353436D01*
X214641051Y-93171357D01*
X214657125Y-93090548D01*
X214679500Y-92978065D01*
X214679500Y-92868361D01*
X214699185Y-92801322D01*
X214751989Y-92755567D01*
X214821147Y-92745623D01*
X214878987Y-92769986D01*
X214955382Y-92828607D01*
X214955385Y-92828608D01*
X214955388Y-92828611D01*
X215154112Y-92943344D01*
X215154117Y-92943346D01*
X215154123Y-92943349D01*
X215237931Y-92978063D01*
X215366113Y-93031158D01*
X215587762Y-93090548D01*
X215815266Y-93120500D01*
X215815273Y-93120500D01*
X216044727Y-93120500D01*
X216044734Y-93120500D01*
X216272238Y-93090548D01*
X216493887Y-93031158D01*
X216705888Y-92943344D01*
X216904612Y-92828611D01*
X217086661Y-92688919D01*
X217086665Y-92688914D01*
X217086670Y-92688911D01*
X217248910Y-92526670D01*
X217248919Y-92526661D01*
X217388611Y-92344612D01*
X217503344Y-92145888D01*
X217591158Y-91933887D01*
X217650548Y-91712238D01*
X217680500Y-91484734D01*
X217680500Y-91255266D01*
X217650548Y-91027762D01*
X217591158Y-90806113D01*
X217503344Y-90594112D01*
X217388611Y-90395388D01*
X217388608Y-90395385D01*
X217388607Y-90395382D01*
X217248918Y-90213338D01*
X217248911Y-90213330D01*
X217220773Y-90185192D01*
X217187288Y-90123869D01*
X217192272Y-90054177D01*
X217234144Y-89998244D01*
X217260997Y-89982952D01*
X217312125Y-89961775D01*
X217426857Y-89885114D01*
X224544114Y-82767857D01*
X224620775Y-82653125D01*
X224673580Y-82525643D01*
X224673580Y-82525639D01*
X224673582Y-82525636D01*
X224678934Y-82498725D01*
X224678934Y-82498723D01*
X224700500Y-82390307D01*
X224700500Y-74824500D01*
X224720185Y-74757461D01*
X224772989Y-74711706D01*
X224824500Y-74700500D01*
X226068995Y-74700500D01*
X226160041Y-74682389D01*
X226204328Y-74673580D01*
X226331811Y-74620775D01*
X226446542Y-74544114D01*
X226544114Y-74446542D01*
X226544116Y-74446538D01*
X226548036Y-74442619D01*
X226609359Y-74409134D01*
X226679051Y-74414118D01*
X226734985Y-74455989D01*
X226745575Y-74474404D01*
X226746231Y-74474071D01*
X226844951Y-74667820D01*
X226969890Y-74839786D01*
X227120213Y-74990109D01*
X227292182Y-75115050D01*
X227300946Y-75119516D01*
X227351742Y-75167491D01*
X227368536Y-75235312D01*
X227345998Y-75301447D01*
X227300946Y-75340484D01*
X227292182Y-75344949D01*
X227120213Y-75469890D01*
X226969890Y-75620213D01*
X226844951Y-75792179D01*
X226748444Y-75981585D01*
X226682753Y-76183760D01*
X226650956Y-76384519D01*
X226649500Y-76393713D01*
X226649500Y-76606287D01*
X226654124Y-76635480D01*
X226680575Y-76802490D01*
X226682754Y-76816243D01*
X226740370Y-76993567D01*
X226748444Y-77018414D01*
X226844951Y-77207820D01*
X226969890Y-77379786D01*
X227120213Y-77530109D01*
X227292179Y-77655048D01*
X227292181Y-77655049D01*
X227292184Y-77655051D01*
X227481588Y-77751557D01*
X227683757Y-77817246D01*
X227893713Y-77850500D01*
X227893714Y-77850500D01*
X228106286Y-77850500D01*
X228106287Y-77850500D01*
X228316243Y-77817246D01*
X228518412Y-77751557D01*
X228707816Y-77655051D01*
X228736883Y-77633933D01*
X228883734Y-77527241D01*
X228884364Y-77528108D01*
X228943419Y-77501641D01*
X228960200Y-77500500D01*
X230034218Y-77500500D01*
X230063658Y-77509144D01*
X230093645Y-77515668D01*
X230098660Y-77519422D01*
X230101257Y-77520185D01*
X230121899Y-77536819D01*
X230219735Y-77634655D01*
X230219764Y-77634686D01*
X230362214Y-77777136D01*
X230362218Y-77777139D01*
X230526079Y-77886628D01*
X230526092Y-77886635D01*
X230654833Y-77939961D01*
X230697744Y-77957735D01*
X230708164Y-77962051D01*
X230804812Y-77981275D01*
X230899695Y-78000149D01*
X230942217Y-78022393D01*
X230961602Y-78032533D01*
X230961603Y-78032534D01*
X230996177Y-78093250D01*
X230996176Y-78093255D01*
X230999500Y-78121765D01*
X230999500Y-82755500D01*
X230979815Y-82822539D01*
X230927011Y-82868294D01*
X230875500Y-82879500D01*
X229249751Y-82879500D01*
X229182712Y-82859815D01*
X229150485Y-82829812D01*
X229107548Y-82772457D01*
X229107546Y-82772454D01*
X229101405Y-82767857D01*
X228992335Y-82686206D01*
X228992328Y-82686202D01*
X228857482Y-82635908D01*
X228857483Y-82635908D01*
X228797883Y-82629501D01*
X228797881Y-82629500D01*
X228797873Y-82629500D01*
X228797864Y-82629500D01*
X227202129Y-82629500D01*
X227202123Y-82629501D01*
X227142516Y-82635908D01*
X227007671Y-82686202D01*
X227007664Y-82686206D01*
X226892455Y-82772452D01*
X226892452Y-82772455D01*
X226806206Y-82887664D01*
X226806202Y-82887671D01*
X226755908Y-83022517D01*
X226749501Y-83082116D01*
X226749500Y-83082135D01*
X226749500Y-84677870D01*
X226749501Y-84677876D01*
X226755908Y-84737483D01*
X226806202Y-84872328D01*
X226806206Y-84872335D01*
X226892452Y-84987544D01*
X226892455Y-84987547D01*
X227007664Y-85073793D01*
X227007671Y-85073797D01*
X227142517Y-85124091D01*
X227142516Y-85124091D01*
X227149444Y-85124835D01*
X227202127Y-85130500D01*
X227265733Y-85130499D01*
X227332770Y-85150183D01*
X227378526Y-85202986D01*
X227388470Y-85272144D01*
X227359446Y-85335700D01*
X227338619Y-85354816D01*
X227185354Y-85466171D01*
X227046174Y-85605351D01*
X227046174Y-85605352D01*
X227046172Y-85605354D01*
X226996485Y-85673741D01*
X226930476Y-85764594D01*
X226841117Y-85939970D01*
X226780290Y-86127173D01*
X226749500Y-86321577D01*
X226749500Y-86518422D01*
X226780290Y-86712826D01*
X226841117Y-86900029D01*
X226872942Y-86962488D01*
X226930476Y-87075405D01*
X227046172Y-87234646D01*
X227185354Y-87373828D01*
X227344595Y-87489524D01*
X227467992Y-87552397D01*
X227521213Y-87579515D01*
X227572009Y-87627489D01*
X227588804Y-87695310D01*
X227566267Y-87761445D01*
X227521213Y-87800485D01*
X227344594Y-87890476D01*
X227288813Y-87931004D01*
X227185354Y-88006172D01*
X227185352Y-88006174D01*
X227185351Y-88006174D01*
X227046174Y-88145351D01*
X227046174Y-88145352D01*
X227046172Y-88145354D01*
X226996485Y-88213741D01*
X226930476Y-88304594D01*
X226841117Y-88479970D01*
X226780290Y-88667173D01*
X226749500Y-88861577D01*
X226749500Y-89058422D01*
X226780290Y-89252826D01*
X226841117Y-89440029D01*
X226930476Y-89615405D01*
X227046172Y-89774646D01*
X227185354Y-89913828D01*
X227297363Y-89995208D01*
X227344596Y-90029525D01*
X227521763Y-90119795D01*
X227572560Y-90167769D01*
X227589355Y-90235590D01*
X227566818Y-90301725D01*
X227521764Y-90340765D01*
X227344859Y-90430902D01*
X227309873Y-90456320D01*
X227309872Y-90456320D01*
X227953554Y-91100000D01*
X227947339Y-91100000D01*
X227845606Y-91127259D01*
X227754394Y-91179920D01*
X227679920Y-91254394D01*
X227627259Y-91345606D01*
X227600000Y-91447339D01*
X227600000Y-91453552D01*
X226956320Y-90809872D01*
X226956320Y-90809873D01*
X226930902Y-90844859D01*
X226930899Y-90844863D01*
X226841582Y-91020161D01*
X226780778Y-91207294D01*
X226750000Y-91401617D01*
X226750000Y-91598382D01*
X226780778Y-91792705D01*
X226841581Y-91979835D01*
X226930905Y-92155145D01*
X226956319Y-92190125D01*
X226956320Y-92190125D01*
X227600000Y-91546445D01*
X227600000Y-91552661D01*
X227627259Y-91654394D01*
X227679920Y-91745606D01*
X227754394Y-91820080D01*
X227845606Y-91872741D01*
X227947339Y-91900000D01*
X227953553Y-91900000D01*
X227309873Y-92543677D01*
X227309873Y-92543678D01*
X227344858Y-92569096D01*
X227520164Y-92658418D01*
X227707294Y-92719221D01*
X227901618Y-92750000D01*
X228098382Y-92750000D01*
X228292705Y-92719221D01*
X228479835Y-92658418D01*
X228655143Y-92569095D01*
X228690125Y-92543678D01*
X228690126Y-92543678D01*
X228046448Y-91900000D01*
X228052661Y-91900000D01*
X228154394Y-91872741D01*
X228245606Y-91820080D01*
X228320080Y-91745606D01*
X228372741Y-91654394D01*
X228400000Y-91552661D01*
X228400000Y-91546447D01*
X229043678Y-92190126D01*
X229043678Y-92190125D01*
X229069095Y-92155143D01*
X229158418Y-91979835D01*
X229219221Y-91792705D01*
X229250000Y-91598382D01*
X229250000Y-91401617D01*
X229219221Y-91207294D01*
X229158418Y-91020164D01*
X229069096Y-90844858D01*
X229043678Y-90809873D01*
X229043677Y-90809873D01*
X228400000Y-91453551D01*
X228400000Y-91447339D01*
X228372741Y-91345606D01*
X228320080Y-91254394D01*
X228245606Y-91179920D01*
X228154394Y-91127259D01*
X228052661Y-91100000D01*
X228046447Y-91100000D01*
X228690125Y-90456320D01*
X228690125Y-90456319D01*
X228655145Y-90430905D01*
X228478235Y-90340765D01*
X228427439Y-90292790D01*
X228410644Y-90224969D01*
X228433182Y-90158834D01*
X228478236Y-90119795D01*
X228480022Y-90118884D01*
X228480025Y-90118884D01*
X228655405Y-90029524D01*
X228814646Y-89913828D01*
X228953828Y-89774646D01*
X229069524Y-89615405D01*
X229158884Y-89440025D01*
X229219709Y-89252826D01*
X229229427Y-89191471D01*
X229250500Y-89058422D01*
X229250500Y-88861577D01*
X229219709Y-88667173D01*
X229170588Y-88515996D01*
X229158884Y-88479975D01*
X229158882Y-88479972D01*
X229158882Y-88479970D01*
X229069523Y-88304594D01*
X229059914Y-88291368D01*
X228953828Y-88145354D01*
X228814646Y-88006172D01*
X228711187Y-87931004D01*
X228655403Y-87890474D01*
X228478787Y-87800485D01*
X228427990Y-87752511D01*
X228411195Y-87684690D01*
X228433732Y-87618555D01*
X228478787Y-87579515D01*
X228655403Y-87489525D01*
X228655402Y-87489525D01*
X228655405Y-87489524D01*
X228814646Y-87373828D01*
X228953828Y-87234646D01*
X229069524Y-87075405D01*
X229158884Y-86900025D01*
X229219709Y-86712826D01*
X229233617Y-86625013D01*
X229250500Y-86518422D01*
X229250500Y-86321577D01*
X229219709Y-86127173D01*
X229170588Y-85975996D01*
X229158884Y-85939975D01*
X229158882Y-85939972D01*
X229158882Y-85939970D01*
X229069523Y-85764594D01*
X229059914Y-85751368D01*
X228953828Y-85605354D01*
X228814646Y-85466172D01*
X228661377Y-85354815D01*
X228618714Y-85299487D01*
X228612735Y-85229873D01*
X228645341Y-85168078D01*
X228706180Y-85133721D01*
X228734264Y-85130499D01*
X228797872Y-85130499D01*
X228857483Y-85124091D01*
X228992331Y-85073796D01*
X229107546Y-84987546D01*
X229134227Y-84951903D01*
X229150485Y-84930188D01*
X229206419Y-84888318D01*
X229249751Y-84880500D01*
X231486616Y-84880500D01*
X231534069Y-84889939D01*
X231631239Y-84930188D01*
X231708165Y-84962052D01*
X231869389Y-84994121D01*
X231901457Y-85000499D01*
X231901458Y-85000500D01*
X231901459Y-85000500D01*
X232098542Y-85000500D01*
X232098543Y-85000499D01*
X232291836Y-84962052D01*
X232473915Y-84886632D01*
X232637782Y-84777140D01*
X232777140Y-84637782D01*
X232886632Y-84473915D01*
X232962052Y-84291836D01*
X233000500Y-84098541D01*
X233000500Y-83901460D01*
X233000500Y-76901459D01*
X233000500Y-41901459D01*
X233000500Y-41901456D01*
X232962052Y-41708170D01*
X232962051Y-41708169D01*
X232962051Y-41708165D01*
X232922868Y-41613567D01*
X232886635Y-41526092D01*
X232886633Y-41526088D01*
X232886632Y-41526086D01*
X232861623Y-41488657D01*
X232777139Y-41362217D01*
X232637785Y-41222863D01*
X232637781Y-41222860D01*
X232473920Y-41113371D01*
X232473907Y-41113364D01*
X232291839Y-41037950D01*
X232291829Y-41037947D01*
X232098543Y-40999500D01*
X232098541Y-40999500D01*
X224098541Y-40999500D01*
X223901459Y-40999500D01*
X223901457Y-40999500D01*
X223708170Y-41037947D01*
X223708160Y-41037950D01*
X223526092Y-41113364D01*
X223526079Y-41113371D01*
X223362218Y-41222860D01*
X223362214Y-41222863D01*
X223222863Y-41362214D01*
X223222860Y-41362218D01*
X223113371Y-41526079D01*
X223113364Y-41526092D01*
X223037950Y-41708160D01*
X223037947Y-41708170D01*
X222999500Y-41901456D01*
X222999500Y-45875500D01*
X222979815Y-45942539D01*
X222927011Y-45988294D01*
X222875500Y-45999500D01*
X217112357Y-45999500D01*
X217045318Y-45979815D01*
X216999563Y-45927011D01*
X216989619Y-45857853D01*
X217018644Y-45794297D01*
X217036863Y-45777130D01*
X217086661Y-45738919D01*
X217111787Y-45713793D01*
X217248911Y-45576670D01*
X217248914Y-45576665D01*
X217248919Y-45576661D01*
X217388611Y-45394612D01*
X217503344Y-45195888D01*
X217591158Y-44983887D01*
X217650548Y-44762238D01*
X217680500Y-44534734D01*
X217680500Y-44305266D01*
X217650548Y-44077762D01*
X217591158Y-43856113D01*
X217503344Y-43644112D01*
X217388611Y-43445388D01*
X217388608Y-43445385D01*
X217388607Y-43445382D01*
X217248918Y-43263338D01*
X217248911Y-43263330D01*
X217086670Y-43101089D01*
X217086661Y-43101081D01*
X216904617Y-42961392D01*
X216705890Y-42846657D01*
X216705876Y-42846650D01*
X216493887Y-42758842D01*
X216272238Y-42699452D01*
X216234215Y-42694446D01*
X216044741Y-42669500D01*
X216044734Y-42669500D01*
X215815266Y-42669500D01*
X215815258Y-42669500D01*
X215598715Y-42698009D01*
X215587762Y-42699452D01*
X215494076Y-42724554D01*
X215366112Y-42758842D01*
X215154123Y-42846650D01*
X215154109Y-42846657D01*
X214955382Y-42961392D01*
X214773338Y-43101081D01*
X214611081Y-43263338D01*
X214471392Y-43445382D01*
X214356657Y-43644109D01*
X214356650Y-43644123D01*
X214268842Y-43856112D01*
X214209453Y-44077759D01*
X214209451Y-44077770D01*
X214179500Y-44305258D01*
X214179500Y-44534741D01*
X214204446Y-44724215D01*
X214209452Y-44762238D01*
X214268842Y-44983887D01*
X214356650Y-45195876D01*
X214356657Y-45195890D01*
X214471392Y-45394617D01*
X214611081Y-45576661D01*
X214611089Y-45576670D01*
X214773329Y-45738910D01*
X214773333Y-45738913D01*
X214773339Y-45738919D01*
X214823132Y-45777126D01*
X214864332Y-45833552D01*
X214868487Y-45903298D01*
X214834274Y-45964219D01*
X214772557Y-45996971D01*
X214747643Y-45999500D01*
X196281459Y-45999500D01*
X196264814Y-46002811D01*
X196264813Y-46002811D01*
X196088167Y-46037947D01*
X196088159Y-46037950D01*
X196034834Y-46060037D01*
X196034834Y-46060038D01*
X195989315Y-46078892D01*
X195906089Y-46113366D01*
X195906079Y-46113371D01*
X195742219Y-46222859D01*
X195672540Y-46292538D01*
X195602861Y-46362218D01*
X195602858Y-46362221D01*
X191121897Y-50843181D01*
X191060574Y-50876666D01*
X191034216Y-50879500D01*
X189952129Y-50879500D01*
X189952123Y-50879501D01*
X189892516Y-50885908D01*
X189757671Y-50936202D01*
X189757664Y-50936206D01*
X189642455Y-51022452D01*
X189642452Y-51022455D01*
X189556206Y-51137664D01*
X189556202Y-51137671D01*
X189505908Y-51272517D01*
X189499501Y-51332116D01*
X189499500Y-51332135D01*
X189499500Y-52414217D01*
X189479815Y-52481256D01*
X189463181Y-52501898D01*
X172442221Y-69522858D01*
X172442218Y-69522861D01*
X172381076Y-69584003D01*
X172302859Y-69662219D01*
X172193371Y-69826079D01*
X172193366Y-69826089D01*
X172173206Y-69874760D01*
X172147055Y-69937895D01*
X172140038Y-69954835D01*
X172117950Y-70008159D01*
X172117947Y-70008167D01*
X172099134Y-70102753D01*
X172099134Y-70102754D01*
X172079500Y-70201456D01*
X172079500Y-76524237D01*
X172059815Y-76591276D01*
X172055818Y-76597122D01*
X171967715Y-76718386D01*
X171920485Y-76811080D01*
X171872510Y-76861876D01*
X171804689Y-76878671D01*
X171738554Y-76856134D01*
X171699515Y-76811080D01*
X171652419Y-76718650D01*
X171652287Y-76718390D01*
X171644556Y-76707749D01*
X171531971Y-76552786D01*
X171387213Y-76408028D01*
X171221613Y-76287715D01*
X171221612Y-76287714D01*
X171221610Y-76287713D01*
X171164653Y-76258691D01*
X171039223Y-76194781D01*
X170844534Y-76131522D01*
X170669995Y-76103878D01*
X170642352Y-76099500D01*
X170437648Y-76099500D01*
X170413329Y-76103351D01*
X170235465Y-76131522D01*
X170040776Y-76194781D01*
X169858386Y-76287715D01*
X169692786Y-76408028D01*
X169548028Y-76552786D01*
X169427715Y-76718386D01*
X169380485Y-76811080D01*
X169332510Y-76861876D01*
X169264689Y-76878671D01*
X169198554Y-76856134D01*
X169159515Y-76811080D01*
X169112419Y-76718650D01*
X169112287Y-76718390D01*
X169104556Y-76707749D01*
X168991971Y-76552786D01*
X168847213Y-76408028D01*
X168681613Y-76287715D01*
X168681612Y-76287714D01*
X168681610Y-76287713D01*
X168624653Y-76258691D01*
X168499223Y-76194781D01*
X168304534Y-76131522D01*
X168129995Y-76103878D01*
X168102352Y-76099500D01*
X167897648Y-76099500D01*
X167873329Y-76103351D01*
X167695465Y-76131522D01*
X167500776Y-76194781D01*
X167318386Y-76287715D01*
X167152786Y-76408028D01*
X167008028Y-76552786D01*
X166887715Y-76718386D01*
X166794781Y-76900776D01*
X166731522Y-77095465D01*
X166699500Y-77297648D01*
X150500500Y-77297648D01*
X150500500Y-44305258D01*
X189669500Y-44305258D01*
X189669500Y-44534741D01*
X189694446Y-44724215D01*
X189699452Y-44762238D01*
X189758842Y-44983887D01*
X189846650Y-45195876D01*
X189846657Y-45195890D01*
X189961392Y-45394617D01*
X190101081Y-45576661D01*
X190101089Y-45576670D01*
X190263330Y-45738911D01*
X190263338Y-45738918D01*
X190445382Y-45878607D01*
X190445385Y-45878608D01*
X190445388Y-45878611D01*
X190644112Y-45993344D01*
X190644117Y-45993346D01*
X190644123Y-45993349D01*
X190735480Y-46031190D01*
X190856113Y-46081158D01*
X191077762Y-46140548D01*
X191305266Y-46170500D01*
X191305273Y-46170500D01*
X191534727Y-46170500D01*
X191534734Y-46170500D01*
X191762238Y-46140548D01*
X191983887Y-46081158D01*
X192195888Y-45993344D01*
X192394612Y-45878611D01*
X192576661Y-45738919D01*
X192576665Y-45738914D01*
X192576670Y-45738911D01*
X192738911Y-45576670D01*
X192738914Y-45576665D01*
X192738919Y-45576661D01*
X192878611Y-45394612D01*
X192993344Y-45195888D01*
X193081158Y-44983887D01*
X193140548Y-44762238D01*
X193170500Y-44534734D01*
X193170500Y-44305266D01*
X193140548Y-44077762D01*
X193081158Y-43856113D01*
X192993344Y-43644112D01*
X192878611Y-43445388D01*
X192878608Y-43445385D01*
X192878607Y-43445382D01*
X192738918Y-43263338D01*
X192738911Y-43263330D01*
X192576670Y-43101089D01*
X192576661Y-43101081D01*
X192394617Y-42961392D01*
X192195890Y-42846657D01*
X192195876Y-42846650D01*
X191983887Y-42758842D01*
X191762238Y-42699452D01*
X191724215Y-42694446D01*
X191534741Y-42669500D01*
X191534734Y-42669500D01*
X191305266Y-42669500D01*
X191305258Y-42669500D01*
X191088715Y-42698009D01*
X191077762Y-42699452D01*
X190984076Y-42724554D01*
X190856112Y-42758842D01*
X190644123Y-42846650D01*
X190644109Y-42846657D01*
X190445382Y-42961392D01*
X190263338Y-43101081D01*
X190101081Y-43263338D01*
X189961392Y-43445382D01*
X189846657Y-43644109D01*
X189846650Y-43644123D01*
X189758842Y-43856112D01*
X189699453Y-44077759D01*
X189699451Y-44077770D01*
X189669500Y-44305258D01*
X150500500Y-44305258D01*
X150500500Y-38840341D01*
X150750000Y-38840341D01*
X150750000Y-39159658D01*
X150781298Y-39477438D01*
X150781301Y-39477455D01*
X150843591Y-39790617D01*
X150843594Y-39790628D01*
X150936292Y-40096213D01*
X151058493Y-40391232D01*
X151058495Y-40391237D01*
X151209014Y-40672837D01*
X151209025Y-40672855D01*
X151386422Y-40938348D01*
X151386432Y-40938362D01*
X151531418Y-41115027D01*
X152705747Y-39940697D01*
X152779588Y-40042330D01*
X152957670Y-40220412D01*
X153059301Y-40294251D01*
X151884971Y-41468580D01*
X151884972Y-41468581D01*
X152061637Y-41613567D01*
X152061651Y-41613577D01*
X152327144Y-41790974D01*
X152327162Y-41790985D01*
X152608762Y-41941504D01*
X152608767Y-41941506D01*
X152903786Y-42063707D01*
X153209371Y-42156405D01*
X153209382Y-42156408D01*
X153522544Y-42218698D01*
X153522561Y-42218701D01*
X153840341Y-42250000D01*
X154159659Y-42250000D01*
X154477438Y-42218701D01*
X154477455Y-42218698D01*
X154790617Y-42156408D01*
X154790628Y-42156405D01*
X155096213Y-42063707D01*
X155391232Y-41941506D01*
X155391237Y-41941504D01*
X155672837Y-41790985D01*
X155672855Y-41790974D01*
X155938348Y-41613577D01*
X155938361Y-41613567D01*
X156115026Y-41468581D01*
X156115027Y-41468580D01*
X154940698Y-40294251D01*
X155042330Y-40220412D01*
X155220412Y-40042330D01*
X155294251Y-39940698D01*
X156468580Y-41115027D01*
X156468581Y-41115026D01*
X156613567Y-40938361D01*
X156613577Y-40938348D01*
X156790974Y-40672855D01*
X156790985Y-40672837D01*
X156941504Y-40391237D01*
X156941506Y-40391232D01*
X157063707Y-40096213D01*
X157156405Y-39790628D01*
X157156408Y-39790617D01*
X157218698Y-39477455D01*
X157218701Y-39477438D01*
X157250000Y-39159658D01*
X157250000Y-38840341D01*
X232750000Y-38840341D01*
X232750000Y-39159658D01*
X232781298Y-39477438D01*
X232781301Y-39477455D01*
X232843591Y-39790617D01*
X232843594Y-39790628D01*
X232936292Y-40096213D01*
X233058493Y-40391232D01*
X233058495Y-40391237D01*
X233209014Y-40672837D01*
X233209025Y-40672855D01*
X233386422Y-40938348D01*
X233386432Y-40938362D01*
X233531418Y-41115027D01*
X234705747Y-39940697D01*
X234779588Y-40042330D01*
X234957670Y-40220412D01*
X235059301Y-40294251D01*
X233884971Y-41468580D01*
X233884972Y-41468581D01*
X234061637Y-41613567D01*
X234061651Y-41613577D01*
X234327144Y-41790974D01*
X234327162Y-41790985D01*
X234608762Y-41941504D01*
X234608767Y-41941506D01*
X234903786Y-42063707D01*
X235209371Y-42156405D01*
X235209382Y-42156408D01*
X235522544Y-42218698D01*
X235522561Y-42218701D01*
X235840341Y-42250000D01*
X236159659Y-42250000D01*
X236477438Y-42218701D01*
X236477455Y-42218698D01*
X236790617Y-42156408D01*
X236790628Y-42156405D01*
X237096213Y-42063707D01*
X237391232Y-41941506D01*
X237391237Y-41941504D01*
X237672837Y-41790985D01*
X237672855Y-41790974D01*
X237938348Y-41613577D01*
X237938361Y-41613567D01*
X238115026Y-41468581D01*
X238115027Y-41468580D01*
X236940698Y-40294251D01*
X237042330Y-40220412D01*
X237220412Y-40042330D01*
X237294251Y-39940698D01*
X238468580Y-41115027D01*
X238468581Y-41115026D01*
X238613567Y-40938361D01*
X238613577Y-40938348D01*
X238790974Y-40672855D01*
X238790985Y-40672837D01*
X238941504Y-40391237D01*
X238941506Y-40391232D01*
X239063707Y-40096213D01*
X239156405Y-39790628D01*
X239156408Y-39790617D01*
X239218698Y-39477455D01*
X239218701Y-39477438D01*
X239250000Y-39159658D01*
X239250000Y-38840341D01*
X239218701Y-38522561D01*
X239218698Y-38522544D01*
X239156408Y-38209382D01*
X239156405Y-38209371D01*
X239063707Y-37903786D01*
X238941506Y-37608767D01*
X238941504Y-37608762D01*
X238790985Y-37327162D01*
X238790974Y-37327144D01*
X238613577Y-37061651D01*
X238613567Y-37061637D01*
X238468581Y-36884972D01*
X238468580Y-36884971D01*
X237294251Y-38059300D01*
X237220412Y-37957670D01*
X237042330Y-37779588D01*
X236940698Y-37705748D01*
X238115027Y-36531418D01*
X237938362Y-36386432D01*
X237938348Y-36386422D01*
X237672855Y-36209025D01*
X237672837Y-36209014D01*
X237391237Y-36058495D01*
X237391232Y-36058493D01*
X237096213Y-35936292D01*
X236790628Y-35843594D01*
X236790617Y-35843591D01*
X236477455Y-35781301D01*
X236477438Y-35781298D01*
X236159659Y-35750000D01*
X235840341Y-35750000D01*
X235522561Y-35781298D01*
X235522544Y-35781301D01*
X235209382Y-35843591D01*
X235209371Y-35843594D01*
X234903786Y-35936292D01*
X234608767Y-36058493D01*
X234608762Y-36058495D01*
X234327162Y-36209014D01*
X234327144Y-36209025D01*
X234061651Y-36386422D01*
X234061650Y-36386423D01*
X233884971Y-36531418D01*
X235059301Y-37705748D01*
X234957670Y-37779588D01*
X234779588Y-37957670D01*
X234705748Y-38059301D01*
X233531418Y-36884971D01*
X233386423Y-37061650D01*
X233386422Y-37061651D01*
X233209025Y-37327144D01*
X233209014Y-37327162D01*
X233058495Y-37608762D01*
X233058493Y-37608767D01*
X232936292Y-37903786D01*
X232843594Y-38209371D01*
X232843591Y-38209382D01*
X232781301Y-38522544D01*
X232781298Y-38522561D01*
X232750000Y-38840341D01*
X157250000Y-38840341D01*
X157218701Y-38522561D01*
X157218698Y-38522544D01*
X157156408Y-38209382D01*
X157156405Y-38209371D01*
X157063707Y-37903786D01*
X156941506Y-37608767D01*
X156941504Y-37608762D01*
X156790985Y-37327162D01*
X156790974Y-37327144D01*
X156613577Y-37061651D01*
X156613567Y-37061637D01*
X156468581Y-36884972D01*
X156468580Y-36884971D01*
X155294251Y-38059300D01*
X155220412Y-37957670D01*
X155042330Y-37779588D01*
X154940698Y-37705748D01*
X156115027Y-36531418D01*
X155938362Y-36386432D01*
X155938348Y-36386422D01*
X155672855Y-36209025D01*
X155672837Y-36209014D01*
X155391237Y-36058495D01*
X155391232Y-36058493D01*
X155096213Y-35936292D01*
X154790628Y-35843594D01*
X154790617Y-35843591D01*
X154477455Y-35781301D01*
X154477438Y-35781298D01*
X154159659Y-35750000D01*
X153840341Y-35750000D01*
X153522561Y-35781298D01*
X153522544Y-35781301D01*
X153209382Y-35843591D01*
X153209371Y-35843594D01*
X152903786Y-35936292D01*
X152608767Y-36058493D01*
X152608762Y-36058495D01*
X152327162Y-36209014D01*
X152327144Y-36209025D01*
X152061651Y-36386422D01*
X152061650Y-36386423D01*
X151884971Y-36531418D01*
X153059301Y-37705748D01*
X152957670Y-37779588D01*
X152779588Y-37957670D01*
X152705748Y-38059301D01*
X151531418Y-36884971D01*
X151386423Y-37061650D01*
X151386422Y-37061651D01*
X151209025Y-37327144D01*
X151209014Y-37327162D01*
X151058495Y-37608762D01*
X151058493Y-37608767D01*
X150936292Y-37903786D01*
X150843594Y-38209371D01*
X150843591Y-38209382D01*
X150781301Y-38522544D01*
X150781298Y-38522561D01*
X150750000Y-38840341D01*
X150500500Y-38840341D01*
X150500500Y-35624500D01*
X150520185Y-35557461D01*
X150572989Y-35511706D01*
X150624500Y-35500500D01*
X239375500Y-35500500D01*
X239442539Y-35520185D01*
G37*
%TD.AperFunction*%
%TD*%
M02*
