%TF.GenerationSoftware,KiCad,Pcbnew,9.0.0*%
%TF.CreationDate,2025-04-25T09:10:44+07:00*%
%TF.ProjectId,Final_Project_PCB,46696e61-6c5f-4507-926f-6a6563745f50,rev?*%
%TF.SameCoordinates,Original*%
%TF.FileFunction,Copper,L1,Top*%
%TF.FilePolarity,Positive*%
%FSLAX46Y46*%
G04 Gerber Fmt 4.6, Leading zero omitted, Abs format (unit mm)*
G04 Created by KiCad (PCBNEW 9.0.0) date 2025-04-25 09:10:44*
%MOMM*%
%LPD*%
G01*
G04 APERTURE LIST*
G04 Aperture macros list*
%AMRoundRect*
0 Rectangle with rounded corners*
0 $1 Rounding radius*
0 $2 $3 $4 $5 $6 $7 $8 $9 X,Y pos of 4 corners*
0 Add a 4 corners polygon primitive as box body*
4,1,4,$2,$3,$4,$5,$6,$7,$8,$9,$2,$3,0*
0 Add four circle primitives for the rounded corners*
1,1,$1+$1,$2,$3*
1,1,$1+$1,$4,$5*
1,1,$1+$1,$6,$7*
1,1,$1+$1,$8,$9*
0 Add four rect primitives between the rounded corners*
20,1,$1+$1,$2,$3,$4,$5,0*
20,1,$1+$1,$4,$5,$6,$7,0*
20,1,$1+$1,$6,$7,$8,$9,0*
20,1,$1+$1,$8,$9,$2,$3,0*%
G04 Aperture macros list end*
%TA.AperFunction,ComponentPad*%
%ADD10C,5.500000*%
%TD*%
%TA.AperFunction,ComponentPad*%
%ADD11R,1.500000X1.050000*%
%TD*%
%TA.AperFunction,ComponentPad*%
%ADD12O,1.500000X1.050000*%
%TD*%
%TA.AperFunction,ComponentPad*%
%ADD13R,2.200000X2.200000*%
%TD*%
%TA.AperFunction,ComponentPad*%
%ADD14O,2.200000X2.200000*%
%TD*%
%TA.AperFunction,ComponentPad*%
%ADD15R,1.800000X1.800000*%
%TD*%
%TA.AperFunction,ComponentPad*%
%ADD16C,1.800000*%
%TD*%
%TA.AperFunction,ComponentPad*%
%ADD17RoundRect,0.250000X1.050000X-1.050000X1.050000X1.050000X-1.050000X1.050000X-1.050000X-1.050000X0*%
%TD*%
%TA.AperFunction,ComponentPad*%
%ADD18C,2.600000*%
%TD*%
%TA.AperFunction,ComponentPad*%
%ADD19R,1.700000X1.700000*%
%TD*%
%TA.AperFunction,ComponentPad*%
%ADD20O,1.700000X1.700000*%
%TD*%
%TA.AperFunction,ComponentPad*%
%ADD21R,1.980000X1.980000*%
%TD*%
%TA.AperFunction,ComponentPad*%
%ADD22C,1.980000*%
%TD*%
%TA.AperFunction,ComponentPad*%
%ADD23C,1.935000*%
%TD*%
%TA.AperFunction,ComponentPad*%
%ADD24C,1.600000*%
%TD*%
%TA.AperFunction,ComponentPad*%
%ADD25O,1.600000X1.600000*%
%TD*%
%TA.AperFunction,ComponentPad*%
%ADD26R,1.500000X1.500000*%
%TD*%
%TA.AperFunction,ComponentPad*%
%ADD27C,1.500000*%
%TD*%
%TA.AperFunction,ComponentPad*%
%ADD28O,1.900000X3.800000*%
%TD*%
%TA.AperFunction,ComponentPad*%
%ADD29O,3.800000X1.900000*%
%TD*%
%TA.AperFunction,ComponentPad*%
%ADD30O,1.600000X2.000000*%
%TD*%
%TA.AperFunction,ComponentPad*%
%ADD31R,2.000000X2.000000*%
%TD*%
%TA.AperFunction,ComponentPad*%
%ADD32C,2.000000*%
%TD*%
%TA.AperFunction,Conductor*%
%ADD33C,1.000000*%
%TD*%
G04 APERTURE END LIST*
D10*
%TO.P,H3,1,1*%
%TO.N,GND*%
X154000000Y-124000000D03*
%TD*%
D11*
%TO.P,Q1,1,C*%
%TO.N,Net-(D1-A)*%
X179100000Y-98960000D03*
D12*
%TO.P,Q1,2,B*%
%TO.N,Net-(Q1-B)*%
X179100000Y-97690000D03*
%TO.P,Q1,3,E*%
%TO.N,GND*%
X179100000Y-96420000D03*
%TD*%
D13*
%TO.P,D1,1,K*%
%TO.N,+5V*%
X190100000Y-104260000D03*
D14*
%TO.P,D1,2,A*%
%TO.N,Net-(D1-A)*%
X190100000Y-114420000D03*
%TD*%
D15*
%TO.P,D2,1,K*%
%TO.N,Net-(D1-A)*%
X188100000Y-121960000D03*
D16*
%TO.P,D2,2,A*%
%TO.N,Net-(D2-A)*%
X188100000Y-119420000D03*
%TD*%
D10*
%TO.P,H4,1,1*%
%TO.N,GND*%
X154000000Y-39000000D03*
%TD*%
%TO.P,H1,1,1*%
%TO.N,GND*%
X236000000Y-39000000D03*
%TD*%
D17*
%TO.P,J1,1,Pin_1*%
%TO.N,Net-(J1-Pin_1)*%
X226100000Y-114580000D03*
D18*
%TO.P,J1,2,Pin_2*%
%TO.N,Net-(J1-Pin_2)*%
X226100000Y-109500000D03*
%TO.P,J1,3,Pin_3*%
%TO.N,Net-(J1-Pin_3)*%
X226100000Y-104420000D03*
%TD*%
D19*
%TO.P,J3,1,Pin_1*%
%TO.N,GND*%
X228000000Y-41460000D03*
D20*
%TO.P,J3,2,Pin_2*%
%TO.N,/AO_LDR*%
X228000000Y-44000000D03*
%TO.P,J3,3,Pin_3*%
%TO.N,unconnected-(J3-Pin_3-Pad3)*%
X228000000Y-46540000D03*
%TO.P,J3,4,Pin_4*%
%TO.N,+3.3V*%
X228000000Y-49080000D03*
%TD*%
D21*
%TO.P,K1,A1*%
%TO.N,+5V*%
X201000000Y-103420000D03*
D22*
%TO.P,K1,A2*%
%TO.N,Net-(D1-A)*%
X201000000Y-115420000D03*
D23*
%TO.P,K1,COM*%
%TO.N,Net-(J1-Pin_2)*%
X199000000Y-109420000D03*
D22*
%TO.P,K1,NC*%
%TO.N,Net-(J1-Pin_3)*%
X213200000Y-103420000D03*
%TO.P,K1,NO*%
%TO.N,Net-(J1-Pin_1)*%
X213200000Y-115420000D03*
%TD*%
D19*
%TO.P,J4,1,Pin_1*%
%TO.N,/AO_SOIL*%
X228000000Y-69460000D03*
D20*
%TO.P,J4,2,Pin_2*%
%TO.N,+3.3V*%
X228000000Y-72000000D03*
%TO.P,J4,3,Pin_3*%
%TO.N,GND*%
X228000000Y-74540000D03*
%TD*%
D24*
%TO.P,R1,1*%
%TO.N,/RELAY*%
X182260000Y-108420000D03*
D25*
%TO.P,R1,2*%
%TO.N,Net-(Q1-B)*%
X172100000Y-108420000D03*
%TD*%
D26*
%TO.P,U2,1,VDD*%
%TO.N,+3.3V*%
X228000000Y-83880000D03*
D27*
%TO.P,U2,2,DATA*%
%TO.N,/DHT*%
X228000000Y-86420000D03*
%TO.P,U2,3,NC*%
%TO.N,unconnected-(U2-NC-Pad3)*%
X228000000Y-88960000D03*
%TO.P,U2,4,GND*%
%TO.N,GND*%
X228000000Y-91500000D03*
%TD*%
D10*
%TO.P,H2,1,1*%
%TO.N,GND*%
X236000000Y-124000000D03*
%TD*%
D24*
%TO.P,R2,1*%
%TO.N,Net-(D2-A)*%
X172100000Y-112420000D03*
D25*
%TO.P,R2,2*%
%TO.N,+5V*%
X182260000Y-112420000D03*
%TD*%
D19*
%TO.P,J2,1,Pin_1*%
%TO.N,GND*%
X228000000Y-55420000D03*
D20*
%TO.P,J2,2,Pin_2*%
%TO.N,/ECHO*%
X228000000Y-57960000D03*
%TO.P,J2,3,Pin_3*%
%TO.N,/TRIG*%
X228000000Y-60500000D03*
%TO.P,J2,4,Pin_4*%
%TO.N,+5V*%
X228000000Y-63040000D03*
%TD*%
D28*
%TO.P,J5,1*%
%TO.N,+5V*%
X166600000Y-90270000D03*
%TO.P,J5,2*%
%TO.N,GND*%
X160670000Y-90270000D03*
D29*
%TO.P,J5,3*%
%TO.N,unconnected-(J5-Pad3)*%
X163000000Y-95000000D03*
%TD*%
D30*
%TO.P,Brd1,1,GND*%
%TO.N,GND*%
X175620000Y-77600000D03*
%TO.P,Brd1,2,VCC*%
%TO.N,+3.3V*%
X173080000Y-77600000D03*
%TO.P,Brd1,3,SCL*%
%TO.N,/SCL*%
X170540000Y-77600000D03*
%TO.P,Brd1,4,SDA*%
%TO.N,/SDA*%
X168000000Y-77600000D03*
%TD*%
D31*
%TO.P,U1,1,3V3*%
%TO.N,+3.3V*%
X191000000Y-52380000D03*
D32*
%TO.P,U1,2,GND*%
%TO.N,GND*%
X191000000Y-54920000D03*
%TO.P,U1,3,D15*%
%TO.N,unconnected-(U1-D15-Pad3)*%
X191000000Y-57460000D03*
%TO.P,U1,4,D2*%
%TO.N,unconnected-(U1-D2-Pad4)*%
X191000000Y-60000000D03*
%TO.P,U1,5,D4*%
%TO.N,/ECHO*%
X191000000Y-62540000D03*
%TO.P,U1,6,RX2*%
%TO.N,unconnected-(U1-RX2-Pad6)*%
X191000000Y-65080000D03*
%TO.P,U1,7,TX2*%
%TO.N,unconnected-(U1-TX2-Pad7)*%
X191000000Y-67620000D03*
%TO.P,U1,8,D5*%
%TO.N,/TRIG*%
X191000000Y-70160000D03*
%TO.P,U1,9,D18*%
%TO.N,unconnected-(U1-D18-Pad9)*%
X191000000Y-72700000D03*
%TO.P,U1,10,D19*%
%TO.N,unconnected-(U1-D19-Pad10)*%
X191000000Y-75240000D03*
%TO.P,U1,11,D21*%
%TO.N,/SDA*%
X191000000Y-77780000D03*
%TO.P,U1,12,RX0*%
%TO.N,unconnected-(U1-RX0-Pad12)*%
X191000000Y-80320000D03*
%TO.P,U1,13,TX0*%
%TO.N,unconnected-(U1-TX0-Pad13)*%
X191000000Y-82860000D03*
%TO.P,U1,14,D22*%
%TO.N,/SCL*%
X191000000Y-85400000D03*
%TO.P,U1,15,D23*%
%TO.N,/RELAY*%
X191000000Y-87940000D03*
%TO.P,U1,16,EN*%
%TO.N,unconnected-(U1-EN-Pad16)*%
X216400000Y-87940000D03*
%TO.P,U1,17,VP*%
%TO.N,unconnected-(U1-VP-Pad17)*%
X216400000Y-85400000D03*
%TO.P,U1,18,VN*%
%TO.N,unconnected-(U1-VN-Pad18)*%
X216400000Y-82860000D03*
%TO.P,U1,19,D34*%
%TO.N,/AO_SOIL*%
X216400000Y-80320000D03*
%TO.P,U1,20,D35*%
%TO.N,/AO_LDR*%
X216400000Y-77780000D03*
%TO.P,U1,21,D32*%
%TO.N,unconnected-(U1-D32-Pad21)*%
X216400000Y-75240000D03*
%TO.P,U1,22,D33*%
%TO.N,unconnected-(U1-D33-Pad22)*%
X216400000Y-72700000D03*
%TO.P,U1,23,D25*%
%TO.N,/DHT*%
X216400000Y-70160000D03*
%TO.P,U1,24,D26*%
%TO.N,unconnected-(U1-D26-Pad24)*%
X216400000Y-67620000D03*
%TO.P,U1,25,D27*%
%TO.N,unconnected-(U1-D27-Pad25)*%
X216400000Y-65080000D03*
%TO.P,U1,26,D14*%
%TO.N,unconnected-(U1-D14-Pad26)*%
X216400000Y-62540000D03*
%TO.P,U1,27,D12*%
%TO.N,unconnected-(U1-D12-Pad27)*%
X216400000Y-60000000D03*
%TO.P,U1,28,D13*%
%TO.N,unconnected-(U1-D13-Pad28)*%
X216400000Y-57460000D03*
%TO.P,U1,29,GND*%
%TO.N,GND*%
X216400000Y-54920000D03*
%TO.P,U1,30,VIN*%
%TO.N,+5V*%
X216400000Y-52380000D03*
%TD*%
D33*
%TO.N,Net-(J1-Pin_2)*%
X226020000Y-109420000D02*
X226100000Y-109500000D01*
%TO.N,Net-(J1-Pin_1)*%
X225260000Y-115420000D02*
X226100000Y-114580000D01*
%TD*%
M02*
