%TF.GenerationSoftware,KiCad,Pcbnew,9.0.0*%
%TF.CreationDate,2025-04-25T09:10:51+07:00*%
%TF.ProjectId,Final_Project_PCB,46696e61-6c5f-4507-926f-6a6563745f50,rev?*%
%TF.SameCoordinates,Original*%
%TF.FileFunction,Plated,1,2,PTH,Mixed*%
%TF.FilePolarity,Positive*%
%FSLAX46Y46*%
G04 Gerber Fmt 4.6, Leading zero omitted, Abs format (unit mm)*
G04 Created by KiCad (PCBNEW 9.0.0) date 2025-04-25 09:10:51*
%MOMM*%
%LPD*%
G01*
G04 APERTURE LIST*
%TA.AperFunction,ComponentDrill*%
%ADD10C,0.750000*%
%TD*%
G04 aperture for slot hole*
%TA.AperFunction,ComponentDrill*%
%ADD11C,0.760000*%
%TD*%
%TA.AperFunction,ComponentDrill*%
%ADD12C,0.800000*%
%TD*%
%TA.AperFunction,ComponentDrill*%
%ADD13C,0.900000*%
%TD*%
%TA.AperFunction,ComponentDrill*%
%ADD14C,1.000000*%
%TD*%
%TA.AperFunction,ComponentDrill*%
%ADD15C,1.020000*%
%TD*%
%TA.AperFunction,ComponentDrill*%
%ADD16C,1.100000*%
%TD*%
%TA.AperFunction,ComponentDrill*%
%ADD17C,1.290000*%
%TD*%
%TA.AperFunction,ComponentDrill*%
%ADD18C,1.300000*%
%TD*%
%TA.AperFunction,ComponentDrill*%
%ADD19C,1.320000*%
%TD*%
%TA.AperFunction,ComponentDrill*%
%ADD20C,3.200000*%
%TD*%
G04 APERTURE END LIST*
D10*
%TO.C,Q1*%
X179100000Y-96420000D03*
X179100000Y-97690000D03*
X179100000Y-98960000D03*
D11*
%TO.C,J5*%
X160670000Y-91415000D02*
X160670000Y-89125000D01*
X161855000Y-95000000D02*
X164145000Y-95000000D01*
X166600000Y-91415000D02*
X166600000Y-89125000D01*
D12*
%TO.C,R1*%
X172100000Y-108420000D03*
%TO.C,R2*%
X172100000Y-112420000D03*
%TO.C,R1*%
X182260000Y-108420000D03*
%TO.C,R2*%
X182260000Y-112420000D03*
%TO.C,U2*%
X228000000Y-83880000D03*
X228000000Y-86420000D03*
X228000000Y-88960000D03*
X228000000Y-91500000D03*
D13*
%TO.C,D2*%
X188100000Y-119420000D03*
X188100000Y-121960000D03*
D14*
%TO.C,Brd1*%
X168000000Y-77600000D03*
X170540000Y-77600000D03*
X173080000Y-77600000D03*
X175620000Y-77600000D03*
%TO.C,J3*%
X228000000Y-41460000D03*
X228000000Y-44000000D03*
X228000000Y-46540000D03*
X228000000Y-49080000D03*
%TO.C,J2*%
X228000000Y-55420000D03*
X228000000Y-57960000D03*
X228000000Y-60500000D03*
X228000000Y-63040000D03*
%TO.C,J4*%
X228000000Y-69460000D03*
X228000000Y-72000000D03*
X228000000Y-74540000D03*
D15*
%TO.C,U1*%
X191000000Y-52380000D03*
X191000000Y-54920000D03*
X191000000Y-57460000D03*
X191000000Y-60000000D03*
X191000000Y-62540000D03*
X191000000Y-65080000D03*
X191000000Y-67620000D03*
X191000000Y-70160000D03*
X191000000Y-72700000D03*
X191000000Y-75240000D03*
X191000000Y-77780000D03*
X191000000Y-80320000D03*
X191000000Y-82860000D03*
X191000000Y-85400000D03*
X191000000Y-87940000D03*
X216400000Y-52380000D03*
X216400000Y-54920000D03*
X216400000Y-57460000D03*
X216400000Y-60000000D03*
X216400000Y-62540000D03*
X216400000Y-65080000D03*
X216400000Y-67620000D03*
X216400000Y-70160000D03*
X216400000Y-72700000D03*
X216400000Y-75240000D03*
X216400000Y-77780000D03*
X216400000Y-80320000D03*
X216400000Y-82860000D03*
X216400000Y-85400000D03*
X216400000Y-87940000D03*
D16*
%TO.C,D1*%
X190100000Y-104260000D03*
X190100000Y-114420000D03*
D17*
%TO.C,K1*%
X199000000Y-109420000D03*
D18*
%TO.C,J1*%
X226100000Y-104420000D03*
X226100000Y-109500000D03*
X226100000Y-114580000D03*
D19*
%TO.C,K1*%
X201000000Y-103420000D03*
X201000000Y-115420000D03*
X213200000Y-103420000D03*
X213200000Y-115420000D03*
D20*
%TO.C,H4*%
X154000000Y-39000000D03*
%TO.C,H3*%
X154000000Y-124000000D03*
%TO.C,H1*%
X236000000Y-39000000D03*
%TO.C,H2*%
X236000000Y-124000000D03*
M02*
