%TF.GenerationSoftware,KiCad,Pcbnew,9.0.0*%
%TF.CreationDate,2025-04-18T09:35:12+07:00*%
%TF.ProjectId,Final_Project_PCB,46696e61-6c5f-4507-926f-6a6563745f50,rev?*%
%TF.SameCoordinates,Original*%
%TF.FileFunction,Legend,Top*%
%TF.FilePolarity,Positive*%
%FSLAX46Y46*%
G04 Gerber Fmt 4.6, Leading zero omitted, Abs format (unit mm)*
G04 Created by KiCad (PCBNEW 9.0.0) date 2025-04-18 09:35:12*
%MOMM*%
%LPD*%
G01*
G04 APERTURE LIST*
%ADD10C,0.400000*%
%ADD11C,0.150000*%
%ADD12C,0.120000*%
%ADD13C,0.127000*%
%ADD14C,0.200000*%
%ADD15C,0.300000*%
G04 APERTURE END LIST*
D10*
X159644109Y-125163009D02*
X160596490Y-125163009D01*
X159453633Y-125734438D02*
X160120299Y-123734438D01*
X160120299Y-123734438D02*
X160786966Y-125734438D01*
X162310776Y-124401104D02*
X162310776Y-125734438D01*
X161453633Y-124401104D02*
X161453633Y-125448723D01*
X161453633Y-125448723D02*
X161548871Y-125639200D01*
X161548871Y-125639200D02*
X161739347Y-125734438D01*
X161739347Y-125734438D02*
X162025062Y-125734438D01*
X162025062Y-125734438D02*
X162215538Y-125639200D01*
X162215538Y-125639200D02*
X162310776Y-125543961D01*
X162977443Y-124401104D02*
X163739347Y-124401104D01*
X163263157Y-123734438D02*
X163263157Y-125448723D01*
X163263157Y-125448723D02*
X163358395Y-125639200D01*
X163358395Y-125639200D02*
X163548871Y-125734438D01*
X163548871Y-125734438D02*
X163739347Y-125734438D01*
X164691728Y-125734438D02*
X164501252Y-125639200D01*
X164501252Y-125639200D02*
X164406014Y-125543961D01*
X164406014Y-125543961D02*
X164310776Y-125353485D01*
X164310776Y-125353485D02*
X164310776Y-124782057D01*
X164310776Y-124782057D02*
X164406014Y-124591580D01*
X164406014Y-124591580D02*
X164501252Y-124496342D01*
X164501252Y-124496342D02*
X164691728Y-124401104D01*
X164691728Y-124401104D02*
X164977443Y-124401104D01*
X164977443Y-124401104D02*
X165167919Y-124496342D01*
X165167919Y-124496342D02*
X165263157Y-124591580D01*
X165263157Y-124591580D02*
X165358395Y-124782057D01*
X165358395Y-124782057D02*
X165358395Y-125353485D01*
X165358395Y-125353485D02*
X165263157Y-125543961D01*
X165263157Y-125543961D02*
X165167919Y-125639200D01*
X165167919Y-125639200D02*
X164977443Y-125734438D01*
X164977443Y-125734438D02*
X164691728Y-125734438D01*
X166215538Y-125734438D02*
X166215538Y-124401104D01*
X166215538Y-124591580D02*
X166310776Y-124496342D01*
X166310776Y-124496342D02*
X166501252Y-124401104D01*
X166501252Y-124401104D02*
X166786967Y-124401104D01*
X166786967Y-124401104D02*
X166977443Y-124496342D01*
X166977443Y-124496342D02*
X167072681Y-124686819D01*
X167072681Y-124686819D02*
X167072681Y-125734438D01*
X167072681Y-124686819D02*
X167167919Y-124496342D01*
X167167919Y-124496342D02*
X167358395Y-124401104D01*
X167358395Y-124401104D02*
X167644109Y-124401104D01*
X167644109Y-124401104D02*
X167834586Y-124496342D01*
X167834586Y-124496342D02*
X167929824Y-124686819D01*
X167929824Y-124686819D02*
X167929824Y-125734438D01*
X169739348Y-125734438D02*
X169739348Y-124686819D01*
X169739348Y-124686819D02*
X169644110Y-124496342D01*
X169644110Y-124496342D02*
X169453634Y-124401104D01*
X169453634Y-124401104D02*
X169072681Y-124401104D01*
X169072681Y-124401104D02*
X168882205Y-124496342D01*
X169739348Y-125639200D02*
X169548872Y-125734438D01*
X169548872Y-125734438D02*
X169072681Y-125734438D01*
X169072681Y-125734438D02*
X168882205Y-125639200D01*
X168882205Y-125639200D02*
X168786967Y-125448723D01*
X168786967Y-125448723D02*
X168786967Y-125258247D01*
X168786967Y-125258247D02*
X168882205Y-125067771D01*
X168882205Y-125067771D02*
X169072681Y-124972533D01*
X169072681Y-124972533D02*
X169548872Y-124972533D01*
X169548872Y-124972533D02*
X169739348Y-124877295D01*
X170406015Y-124401104D02*
X171167919Y-124401104D01*
X170691729Y-123734438D02*
X170691729Y-125448723D01*
X170691729Y-125448723D02*
X170786967Y-125639200D01*
X170786967Y-125639200D02*
X170977443Y-125734438D01*
X170977443Y-125734438D02*
X171167919Y-125734438D01*
X171834586Y-125734438D02*
X171834586Y-124401104D01*
X171834586Y-123734438D02*
X171739348Y-123829676D01*
X171739348Y-123829676D02*
X171834586Y-123924914D01*
X171834586Y-123924914D02*
X171929824Y-123829676D01*
X171929824Y-123829676D02*
X171834586Y-123734438D01*
X171834586Y-123734438D02*
X171834586Y-123924914D01*
X173644110Y-125639200D02*
X173453634Y-125734438D01*
X173453634Y-125734438D02*
X173072681Y-125734438D01*
X173072681Y-125734438D02*
X172882205Y-125639200D01*
X172882205Y-125639200D02*
X172786967Y-125543961D01*
X172786967Y-125543961D02*
X172691729Y-125353485D01*
X172691729Y-125353485D02*
X172691729Y-124782057D01*
X172691729Y-124782057D02*
X172786967Y-124591580D01*
X172786967Y-124591580D02*
X172882205Y-124496342D01*
X172882205Y-124496342D02*
X173072681Y-124401104D01*
X173072681Y-124401104D02*
X173453634Y-124401104D01*
X173453634Y-124401104D02*
X173644110Y-124496342D01*
X175834587Y-123734438D02*
X176310777Y-125734438D01*
X176310777Y-125734438D02*
X176691730Y-124305866D01*
X176691730Y-124305866D02*
X177072682Y-125734438D01*
X177072682Y-125734438D02*
X177548873Y-123734438D01*
X179167920Y-125734438D02*
X179167920Y-124686819D01*
X179167920Y-124686819D02*
X179072682Y-124496342D01*
X179072682Y-124496342D02*
X178882206Y-124401104D01*
X178882206Y-124401104D02*
X178501253Y-124401104D01*
X178501253Y-124401104D02*
X178310777Y-124496342D01*
X179167920Y-125639200D02*
X178977444Y-125734438D01*
X178977444Y-125734438D02*
X178501253Y-125734438D01*
X178501253Y-125734438D02*
X178310777Y-125639200D01*
X178310777Y-125639200D02*
X178215539Y-125448723D01*
X178215539Y-125448723D02*
X178215539Y-125258247D01*
X178215539Y-125258247D02*
X178310777Y-125067771D01*
X178310777Y-125067771D02*
X178501253Y-124972533D01*
X178501253Y-124972533D02*
X178977444Y-124972533D01*
X178977444Y-124972533D02*
X179167920Y-124877295D01*
X179834587Y-124401104D02*
X180596491Y-124401104D01*
X180120301Y-123734438D02*
X180120301Y-125448723D01*
X180120301Y-125448723D02*
X180215539Y-125639200D01*
X180215539Y-125639200D02*
X180406015Y-125734438D01*
X180406015Y-125734438D02*
X180596491Y-125734438D01*
X182025063Y-125639200D02*
X181834587Y-125734438D01*
X181834587Y-125734438D02*
X181453634Y-125734438D01*
X181453634Y-125734438D02*
X181263158Y-125639200D01*
X181263158Y-125639200D02*
X181167920Y-125448723D01*
X181167920Y-125448723D02*
X181167920Y-124686819D01*
X181167920Y-124686819D02*
X181263158Y-124496342D01*
X181263158Y-124496342D02*
X181453634Y-124401104D01*
X181453634Y-124401104D02*
X181834587Y-124401104D01*
X181834587Y-124401104D02*
X182025063Y-124496342D01*
X182025063Y-124496342D02*
X182120301Y-124686819D01*
X182120301Y-124686819D02*
X182120301Y-124877295D01*
X182120301Y-124877295D02*
X181167920Y-125067771D01*
X182977444Y-125734438D02*
X182977444Y-124401104D01*
X182977444Y-124782057D02*
X183072682Y-124591580D01*
X183072682Y-124591580D02*
X183167920Y-124496342D01*
X183167920Y-124496342D02*
X183358396Y-124401104D01*
X183358396Y-124401104D02*
X183548873Y-124401104D01*
X184215539Y-125734438D02*
X184215539Y-124401104D01*
X184215539Y-123734438D02*
X184120301Y-123829676D01*
X184120301Y-123829676D02*
X184215539Y-123924914D01*
X184215539Y-123924914D02*
X184310777Y-123829676D01*
X184310777Y-123829676D02*
X184215539Y-123734438D01*
X184215539Y-123734438D02*
X184215539Y-123924914D01*
X185167920Y-124401104D02*
X185167920Y-125734438D01*
X185167920Y-124591580D02*
X185263158Y-124496342D01*
X185263158Y-124496342D02*
X185453634Y-124401104D01*
X185453634Y-124401104D02*
X185739349Y-124401104D01*
X185739349Y-124401104D02*
X185929825Y-124496342D01*
X185929825Y-124496342D02*
X186025063Y-124686819D01*
X186025063Y-124686819D02*
X186025063Y-125734438D01*
X187834587Y-124401104D02*
X187834587Y-126020152D01*
X187834587Y-126020152D02*
X187739349Y-126210628D01*
X187739349Y-126210628D02*
X187644111Y-126305866D01*
X187644111Y-126305866D02*
X187453634Y-126401104D01*
X187453634Y-126401104D02*
X187167920Y-126401104D01*
X187167920Y-126401104D02*
X186977444Y-126305866D01*
X187834587Y-125639200D02*
X187644111Y-125734438D01*
X187644111Y-125734438D02*
X187263158Y-125734438D01*
X187263158Y-125734438D02*
X187072682Y-125639200D01*
X187072682Y-125639200D02*
X186977444Y-125543961D01*
X186977444Y-125543961D02*
X186882206Y-125353485D01*
X186882206Y-125353485D02*
X186882206Y-124782057D01*
X186882206Y-124782057D02*
X186977444Y-124591580D01*
X186977444Y-124591580D02*
X187072682Y-124496342D01*
X187072682Y-124496342D02*
X187263158Y-124401104D01*
X187263158Y-124401104D02*
X187644111Y-124401104D01*
X187644111Y-124401104D02*
X187834587Y-124496342D01*
X190310778Y-125734438D02*
X190310778Y-123734438D01*
X190310778Y-123734438D02*
X190786968Y-123734438D01*
X190786968Y-123734438D02*
X191072683Y-123829676D01*
X191072683Y-123829676D02*
X191263159Y-124020152D01*
X191263159Y-124020152D02*
X191358397Y-124210628D01*
X191358397Y-124210628D02*
X191453635Y-124591580D01*
X191453635Y-124591580D02*
X191453635Y-124877295D01*
X191453635Y-124877295D02*
X191358397Y-125258247D01*
X191358397Y-125258247D02*
X191263159Y-125448723D01*
X191263159Y-125448723D02*
X191072683Y-125639200D01*
X191072683Y-125639200D02*
X190786968Y-125734438D01*
X190786968Y-125734438D02*
X190310778Y-125734438D01*
X193072683Y-125639200D02*
X192882207Y-125734438D01*
X192882207Y-125734438D02*
X192501254Y-125734438D01*
X192501254Y-125734438D02*
X192310778Y-125639200D01*
X192310778Y-125639200D02*
X192215540Y-125448723D01*
X192215540Y-125448723D02*
X192215540Y-124686819D01*
X192215540Y-124686819D02*
X192310778Y-124496342D01*
X192310778Y-124496342D02*
X192501254Y-124401104D01*
X192501254Y-124401104D02*
X192882207Y-124401104D01*
X192882207Y-124401104D02*
X193072683Y-124496342D01*
X193072683Y-124496342D02*
X193167921Y-124686819D01*
X193167921Y-124686819D02*
X193167921Y-124877295D01*
X193167921Y-124877295D02*
X192215540Y-125067771D01*
X193834588Y-124401104D02*
X194310778Y-125734438D01*
X194310778Y-125734438D02*
X194786969Y-124401104D01*
X195548874Y-125734438D02*
X195548874Y-124401104D01*
X195548874Y-123734438D02*
X195453636Y-123829676D01*
X195453636Y-123829676D02*
X195548874Y-123924914D01*
X195548874Y-123924914D02*
X195644112Y-123829676D01*
X195644112Y-123829676D02*
X195548874Y-123734438D01*
X195548874Y-123734438D02*
X195548874Y-123924914D01*
X197358398Y-125639200D02*
X197167922Y-125734438D01*
X197167922Y-125734438D02*
X196786969Y-125734438D01*
X196786969Y-125734438D02*
X196596493Y-125639200D01*
X196596493Y-125639200D02*
X196501255Y-125543961D01*
X196501255Y-125543961D02*
X196406017Y-125353485D01*
X196406017Y-125353485D02*
X196406017Y-124782057D01*
X196406017Y-124782057D02*
X196501255Y-124591580D01*
X196501255Y-124591580D02*
X196596493Y-124496342D01*
X196596493Y-124496342D02*
X196786969Y-124401104D01*
X196786969Y-124401104D02*
X197167922Y-124401104D01*
X197167922Y-124401104D02*
X197358398Y-124496342D01*
X198977446Y-125639200D02*
X198786970Y-125734438D01*
X198786970Y-125734438D02*
X198406017Y-125734438D01*
X198406017Y-125734438D02*
X198215541Y-125639200D01*
X198215541Y-125639200D02*
X198120303Y-125448723D01*
X198120303Y-125448723D02*
X198120303Y-124686819D01*
X198120303Y-124686819D02*
X198215541Y-124496342D01*
X198215541Y-124496342D02*
X198406017Y-124401104D01*
X198406017Y-124401104D02*
X198786970Y-124401104D01*
X198786970Y-124401104D02*
X198977446Y-124496342D01*
X198977446Y-124496342D02*
X199072684Y-124686819D01*
X199072684Y-124686819D02*
X199072684Y-124877295D01*
X199072684Y-124877295D02*
X198120303Y-125067771D01*
D11*
X153238095Y-120704819D02*
X153238095Y-119704819D01*
X153238095Y-120181009D02*
X153809523Y-120181009D01*
X153809523Y-120704819D02*
X153809523Y-119704819D01*
X154190476Y-119704819D02*
X154809523Y-119704819D01*
X154809523Y-119704819D02*
X154476190Y-120085771D01*
X154476190Y-120085771D02*
X154619047Y-120085771D01*
X154619047Y-120085771D02*
X154714285Y-120133390D01*
X154714285Y-120133390D02*
X154761904Y-120181009D01*
X154761904Y-120181009D02*
X154809523Y-120276247D01*
X154809523Y-120276247D02*
X154809523Y-120514342D01*
X154809523Y-120514342D02*
X154761904Y-120609580D01*
X154761904Y-120609580D02*
X154714285Y-120657200D01*
X154714285Y-120657200D02*
X154619047Y-120704819D01*
X154619047Y-120704819D02*
X154333333Y-120704819D01*
X154333333Y-120704819D02*
X154238095Y-120657200D01*
X154238095Y-120657200D02*
X154190476Y-120609580D01*
X175650057Y-97515238D02*
X175602438Y-97610476D01*
X175602438Y-97610476D02*
X175507200Y-97705714D01*
X175507200Y-97705714D02*
X175364342Y-97848571D01*
X175364342Y-97848571D02*
X175316723Y-97943809D01*
X175316723Y-97943809D02*
X175316723Y-98039047D01*
X175554819Y-97991428D02*
X175507200Y-98086666D01*
X175507200Y-98086666D02*
X175411961Y-98181904D01*
X175411961Y-98181904D02*
X175221485Y-98229523D01*
X175221485Y-98229523D02*
X174888152Y-98229523D01*
X174888152Y-98229523D02*
X174697676Y-98181904D01*
X174697676Y-98181904D02*
X174602438Y-98086666D01*
X174602438Y-98086666D02*
X174554819Y-97991428D01*
X174554819Y-97991428D02*
X174554819Y-97800952D01*
X174554819Y-97800952D02*
X174602438Y-97705714D01*
X174602438Y-97705714D02*
X174697676Y-97610476D01*
X174697676Y-97610476D02*
X174888152Y-97562857D01*
X174888152Y-97562857D02*
X175221485Y-97562857D01*
X175221485Y-97562857D02*
X175411961Y-97610476D01*
X175411961Y-97610476D02*
X175507200Y-97705714D01*
X175507200Y-97705714D02*
X175554819Y-97800952D01*
X175554819Y-97800952D02*
X175554819Y-97991428D01*
X175554819Y-96610476D02*
X175554819Y-97181904D01*
X175554819Y-96896190D02*
X174554819Y-96896190D01*
X174554819Y-96896190D02*
X174697676Y-96991428D01*
X174697676Y-96991428D02*
X174792914Y-97086666D01*
X174792914Y-97086666D02*
X174840533Y-97181904D01*
X193024819Y-110078094D02*
X192024819Y-110078094D01*
X192024819Y-110078094D02*
X192024819Y-109839999D01*
X192024819Y-109839999D02*
X192072438Y-109697142D01*
X192072438Y-109697142D02*
X192167676Y-109601904D01*
X192167676Y-109601904D02*
X192262914Y-109554285D01*
X192262914Y-109554285D02*
X192453390Y-109506666D01*
X192453390Y-109506666D02*
X192596247Y-109506666D01*
X192596247Y-109506666D02*
X192786723Y-109554285D01*
X192786723Y-109554285D02*
X192881961Y-109601904D01*
X192881961Y-109601904D02*
X192977200Y-109697142D01*
X192977200Y-109697142D02*
X193024819Y-109839999D01*
X193024819Y-109839999D02*
X193024819Y-110078094D01*
X193024819Y-108554285D02*
X193024819Y-109125713D01*
X193024819Y-108839999D02*
X192024819Y-108839999D01*
X192024819Y-108839999D02*
X192167676Y-108935237D01*
X192167676Y-108935237D02*
X192262914Y-109030475D01*
X192262914Y-109030475D02*
X192310533Y-109125713D01*
X192654819Y-104521904D02*
X191654819Y-104521904D01*
X192654819Y-103950476D02*
X192083390Y-104379047D01*
X191654819Y-103950476D02*
X192226247Y-104521904D01*
X185594819Y-121428094D02*
X184594819Y-121428094D01*
X184594819Y-121428094D02*
X184594819Y-121189999D01*
X184594819Y-121189999D02*
X184642438Y-121047142D01*
X184642438Y-121047142D02*
X184737676Y-120951904D01*
X184737676Y-120951904D02*
X184832914Y-120904285D01*
X184832914Y-120904285D02*
X185023390Y-120856666D01*
X185023390Y-120856666D02*
X185166247Y-120856666D01*
X185166247Y-120856666D02*
X185356723Y-120904285D01*
X185356723Y-120904285D02*
X185451961Y-120951904D01*
X185451961Y-120951904D02*
X185547200Y-121047142D01*
X185547200Y-121047142D02*
X185594819Y-121189999D01*
X185594819Y-121189999D02*
X185594819Y-121428094D01*
X184690057Y-120475713D02*
X184642438Y-120428094D01*
X184642438Y-120428094D02*
X184594819Y-120332856D01*
X184594819Y-120332856D02*
X184594819Y-120094761D01*
X184594819Y-120094761D02*
X184642438Y-119999523D01*
X184642438Y-119999523D02*
X184690057Y-119951904D01*
X184690057Y-119951904D02*
X184785295Y-119904285D01*
X184785295Y-119904285D02*
X184880533Y-119904285D01*
X184880533Y-119904285D02*
X185023390Y-119951904D01*
X185023390Y-119951904D02*
X185594819Y-120523332D01*
X185594819Y-120523332D02*
X185594819Y-119904285D01*
X157238095Y-36454819D02*
X157238095Y-35454819D01*
X157238095Y-35931009D02*
X157809523Y-35931009D01*
X157809523Y-36454819D02*
X157809523Y-35454819D01*
X158714285Y-35788152D02*
X158714285Y-36454819D01*
X158476190Y-35407200D02*
X158238095Y-36121485D01*
X158238095Y-36121485D02*
X158857142Y-36121485D01*
X191583095Y-39989819D02*
X191583095Y-40799342D01*
X191583095Y-40799342D02*
X191630714Y-40894580D01*
X191630714Y-40894580D02*
X191678333Y-40942200D01*
X191678333Y-40942200D02*
X191773571Y-40989819D01*
X191773571Y-40989819D02*
X191964047Y-40989819D01*
X191964047Y-40989819D02*
X192059285Y-40942200D01*
X192059285Y-40942200D02*
X192106904Y-40894580D01*
X192106904Y-40894580D02*
X192154523Y-40799342D01*
X192154523Y-40799342D02*
X192154523Y-39989819D01*
X193154523Y-40989819D02*
X192583095Y-40989819D01*
X192868809Y-40989819D02*
X192868809Y-39989819D01*
X192868809Y-39989819D02*
X192773571Y-40132676D01*
X192773571Y-40132676D02*
X192678333Y-40227914D01*
X192678333Y-40227914D02*
X192583095Y-40275533D01*
X231238095Y-37454819D02*
X231238095Y-36454819D01*
X231238095Y-36931009D02*
X231809523Y-36931009D01*
X231809523Y-37454819D02*
X231809523Y-36454819D01*
X232809523Y-37454819D02*
X232238095Y-37454819D01*
X232523809Y-37454819D02*
X232523809Y-36454819D01*
X232523809Y-36454819D02*
X232428571Y-36597676D01*
X232428571Y-36597676D02*
X232333333Y-36692914D01*
X232333333Y-36692914D02*
X232238095Y-36740533D01*
X219234819Y-109833333D02*
X219949104Y-109833333D01*
X219949104Y-109833333D02*
X220091961Y-109880952D01*
X220091961Y-109880952D02*
X220187200Y-109976190D01*
X220187200Y-109976190D02*
X220234819Y-110119047D01*
X220234819Y-110119047D02*
X220234819Y-110214285D01*
X220234819Y-108833333D02*
X220234819Y-109404761D01*
X220234819Y-109119047D02*
X219234819Y-109119047D01*
X219234819Y-109119047D02*
X219377676Y-109214285D01*
X219377676Y-109214285D02*
X219472914Y-109309523D01*
X219472914Y-109309523D02*
X219520533Y-109404761D01*
X227666666Y-66004819D02*
X227666666Y-66719104D01*
X227666666Y-66719104D02*
X227619047Y-66861961D01*
X227619047Y-66861961D02*
X227523809Y-66957200D01*
X227523809Y-66957200D02*
X227380952Y-67004819D01*
X227380952Y-67004819D02*
X227285714Y-67004819D01*
X228047619Y-66004819D02*
X228666666Y-66004819D01*
X228666666Y-66004819D02*
X228333333Y-66385771D01*
X228333333Y-66385771D02*
X228476190Y-66385771D01*
X228476190Y-66385771D02*
X228571428Y-66433390D01*
X228571428Y-66433390D02*
X228619047Y-66481009D01*
X228619047Y-66481009D02*
X228666666Y-66576247D01*
X228666666Y-66576247D02*
X228666666Y-66814342D01*
X228666666Y-66814342D02*
X228619047Y-66909580D01*
X228619047Y-66909580D02*
X228571428Y-66957200D01*
X228571428Y-66957200D02*
X228476190Y-67004819D01*
X228476190Y-67004819D02*
X228190476Y-67004819D01*
X228190476Y-67004819D02*
X228095238Y-66957200D01*
X228095238Y-66957200D02*
X228047619Y-66909580D01*
X199736205Y-101039023D02*
X199736205Y-100038929D01*
X200307687Y-101039023D02*
X199879076Y-100467541D01*
X200307687Y-100038929D02*
X199736205Y-100610411D01*
X201260158Y-101039023D02*
X200688676Y-101039023D01*
X200974417Y-101039023D02*
X200974417Y-100038929D01*
X200974417Y-100038929D02*
X200879170Y-100181800D01*
X200879170Y-100181800D02*
X200783923Y-100277047D01*
X200783923Y-100277047D02*
X200688676Y-100324670D01*
X227666666Y-41544819D02*
X227666666Y-42259104D01*
X227666666Y-42259104D02*
X227619047Y-42401961D01*
X227619047Y-42401961D02*
X227523809Y-42497200D01*
X227523809Y-42497200D02*
X227380952Y-42544819D01*
X227380952Y-42544819D02*
X227285714Y-42544819D01*
X228571428Y-41878152D02*
X228571428Y-42544819D01*
X228333333Y-41497200D02*
X228095238Y-42211485D01*
X228095238Y-42211485D02*
X228714285Y-42211485D01*
X226238095Y-79834819D02*
X226238095Y-80644342D01*
X226238095Y-80644342D02*
X226285714Y-80739580D01*
X226285714Y-80739580D02*
X226333333Y-80787200D01*
X226333333Y-80787200D02*
X226428571Y-80834819D01*
X226428571Y-80834819D02*
X226619047Y-80834819D01*
X226619047Y-80834819D02*
X226714285Y-80787200D01*
X226714285Y-80787200D02*
X226761904Y-80739580D01*
X226761904Y-80739580D02*
X226809523Y-80644342D01*
X226809523Y-80644342D02*
X226809523Y-79834819D01*
X227238095Y-79930057D02*
X227285714Y-79882438D01*
X227285714Y-79882438D02*
X227380952Y-79834819D01*
X227380952Y-79834819D02*
X227619047Y-79834819D01*
X227619047Y-79834819D02*
X227714285Y-79882438D01*
X227714285Y-79882438D02*
X227761904Y-79930057D01*
X227761904Y-79930057D02*
X227809523Y-80025295D01*
X227809523Y-80025295D02*
X227809523Y-80120533D01*
X227809523Y-80120533D02*
X227761904Y-80263390D01*
X227761904Y-80263390D02*
X227190476Y-80834819D01*
X227190476Y-80834819D02*
X227809523Y-80834819D01*
X235238095Y-120704819D02*
X235238095Y-119704819D01*
X235238095Y-120181009D02*
X235809523Y-120181009D01*
X235809523Y-120704819D02*
X235809523Y-119704819D01*
X236238095Y-119800057D02*
X236285714Y-119752438D01*
X236285714Y-119752438D02*
X236380952Y-119704819D01*
X236380952Y-119704819D02*
X236619047Y-119704819D01*
X236619047Y-119704819D02*
X236714285Y-119752438D01*
X236714285Y-119752438D02*
X236761904Y-119800057D01*
X236761904Y-119800057D02*
X236809523Y-119895295D01*
X236809523Y-119895295D02*
X236809523Y-119990533D01*
X236809523Y-119990533D02*
X236761904Y-120133390D01*
X236761904Y-120133390D02*
X236190476Y-120704819D01*
X236190476Y-120704819D02*
X236809523Y-120704819D01*
X227666666Y-52544819D02*
X227666666Y-53259104D01*
X227666666Y-53259104D02*
X227619047Y-53401961D01*
X227619047Y-53401961D02*
X227523809Y-53497200D01*
X227523809Y-53497200D02*
X227380952Y-53544819D01*
X227380952Y-53544819D02*
X227285714Y-53544819D01*
X228095238Y-52640057D02*
X228142857Y-52592438D01*
X228142857Y-52592438D02*
X228238095Y-52544819D01*
X228238095Y-52544819D02*
X228476190Y-52544819D01*
X228476190Y-52544819D02*
X228571428Y-52592438D01*
X228571428Y-52592438D02*
X228619047Y-52640057D01*
X228619047Y-52640057D02*
X228666666Y-52735295D01*
X228666666Y-52735295D02*
X228666666Y-52830533D01*
X228666666Y-52830533D02*
X228619047Y-52973390D01*
X228619047Y-52973390D02*
X228047619Y-53544819D01*
X228047619Y-53544819D02*
X228666666Y-53544819D01*
X170889819Y-89028333D02*
X171604104Y-89028333D01*
X171604104Y-89028333D02*
X171746961Y-89075952D01*
X171746961Y-89075952D02*
X171842200Y-89171190D01*
X171842200Y-89171190D02*
X171889819Y-89314047D01*
X171889819Y-89314047D02*
X171889819Y-89409285D01*
X170889819Y-88075952D02*
X170889819Y-88552142D01*
X170889819Y-88552142D02*
X171366009Y-88599761D01*
X171366009Y-88599761D02*
X171318390Y-88552142D01*
X171318390Y-88552142D02*
X171270771Y-88456904D01*
X171270771Y-88456904D02*
X171270771Y-88218809D01*
X171270771Y-88218809D02*
X171318390Y-88123571D01*
X171318390Y-88123571D02*
X171366009Y-88075952D01*
X171366009Y-88075952D02*
X171461247Y-88028333D01*
X171461247Y-88028333D02*
X171699342Y-88028333D01*
X171699342Y-88028333D02*
X171794580Y-88075952D01*
X171794580Y-88075952D02*
X171842200Y-88123571D01*
X171842200Y-88123571D02*
X171889819Y-88218809D01*
X171889819Y-88218809D02*
X171889819Y-88456904D01*
X171889819Y-88456904D02*
X171842200Y-88552142D01*
X171842200Y-88552142D02*
X171794580Y-88599761D01*
X170833333Y-66677009D02*
X170976190Y-66724628D01*
X170976190Y-66724628D02*
X171023809Y-66772247D01*
X171023809Y-66772247D02*
X171071428Y-66867485D01*
X171071428Y-66867485D02*
X171071428Y-67010342D01*
X171071428Y-67010342D02*
X171023809Y-67105580D01*
X171023809Y-67105580D02*
X170976190Y-67153200D01*
X170976190Y-67153200D02*
X170880952Y-67200819D01*
X170880952Y-67200819D02*
X170500000Y-67200819D01*
X170500000Y-67200819D02*
X170500000Y-66200819D01*
X170500000Y-66200819D02*
X170833333Y-66200819D01*
X170833333Y-66200819D02*
X170928571Y-66248438D01*
X170928571Y-66248438D02*
X170976190Y-66296057D01*
X170976190Y-66296057D02*
X171023809Y-66391295D01*
X171023809Y-66391295D02*
X171023809Y-66486533D01*
X171023809Y-66486533D02*
X170976190Y-66581771D01*
X170976190Y-66581771D02*
X170928571Y-66629390D01*
X170928571Y-66629390D02*
X170833333Y-66677009D01*
X170833333Y-66677009D02*
X170500000Y-66677009D01*
X171500000Y-67200819D02*
X171500000Y-66534152D01*
X171500000Y-66724628D02*
X171547619Y-66629390D01*
X171547619Y-66629390D02*
X171595238Y-66581771D01*
X171595238Y-66581771D02*
X171690476Y-66534152D01*
X171690476Y-66534152D02*
X171785714Y-66534152D01*
X172547619Y-67200819D02*
X172547619Y-66200819D01*
X172547619Y-67153200D02*
X172452381Y-67200819D01*
X172452381Y-67200819D02*
X172261905Y-67200819D01*
X172261905Y-67200819D02*
X172166667Y-67153200D01*
X172166667Y-67153200D02*
X172119048Y-67105580D01*
X172119048Y-67105580D02*
X172071429Y-67010342D01*
X172071429Y-67010342D02*
X172071429Y-66724628D01*
X172071429Y-66724628D02*
X172119048Y-66629390D01*
X172119048Y-66629390D02*
X172166667Y-66581771D01*
X172166667Y-66581771D02*
X172261905Y-66534152D01*
X172261905Y-66534152D02*
X172452381Y-66534152D01*
X172452381Y-66534152D02*
X172547619Y-66581771D01*
X173547619Y-67200819D02*
X172976191Y-67200819D01*
X173261905Y-67200819D02*
X173261905Y-66200819D01*
X173261905Y-66200819D02*
X173166667Y-66343676D01*
X173166667Y-66343676D02*
X173071429Y-66438914D01*
X173071429Y-66438914D02*
X172976191Y-66486533D01*
D12*
%TO.C,Q1*%
X180950000Y-99490000D02*
X180950000Y-95890000D01*
X176500000Y-97690000D02*
G75*
G02*
X180938478Y-95851522I2600000J0D01*
G01*
X180938478Y-99528478D02*
G75*
G02*
X176499999Y-97690000I-1838478J1838478D01*
G01*
%TO.C,D1*%
X188630000Y-106620000D02*
X188630000Y-112060000D01*
X188630000Y-112060000D02*
X191570000Y-112060000D01*
X190100000Y-105600000D02*
X190100000Y-106620000D01*
X190100000Y-113080000D02*
X190100000Y-112060000D01*
X191570000Y-106620000D02*
X188630000Y-106620000D01*
X191570000Y-107400000D02*
X188630000Y-107400000D01*
X191570000Y-107520000D02*
X188630000Y-107520000D01*
X191570000Y-107640000D02*
X188630000Y-107640000D01*
X191570000Y-112060000D02*
X191570000Y-106620000D01*
%TO.C,D2*%
X186864000Y-122250000D02*
X187020000Y-122250000D01*
X189180000Y-122250000D02*
X189336000Y-122250000D01*
X186864484Y-122250000D02*
G75*
G02*
X187019939Y-119018603I1235516J1560000D01*
G01*
X187020000Y-121730961D02*
G75*
G02*
X187019951Y-119649090I1080000J1040961D01*
G01*
X189180049Y-119649090D02*
G75*
G02*
X189180000Y-121730961I-1080049J-1040910D01*
G01*
X189180061Y-119018603D02*
G75*
G02*
X189335516Y-122250000I-1080061J-1671397D01*
G01*
D13*
%TO.C,U1*%
X189420000Y-42420000D02*
X200489000Y-42420000D01*
X189420000Y-42420000D02*
X217930000Y-42420000D01*
X189420000Y-93370000D02*
X189420000Y-42420000D01*
X189420000Y-93370000D02*
X189420000Y-42420000D01*
X189420000Y-93370000D02*
X194790000Y-93370000D01*
X194790000Y-93370000D02*
X212480000Y-93370000D01*
X200489000Y-42420000D02*
X207200000Y-42420000D01*
X207200000Y-42420000D02*
X217930000Y-42420000D01*
X212480000Y-93370000D02*
X217930000Y-93370000D01*
X217930000Y-42420000D02*
X217930000Y-93370000D01*
X217930000Y-42420000D02*
X217930000Y-93370000D01*
X217930000Y-93370000D02*
X189420000Y-93370000D01*
D14*
X188950000Y-52380000D02*
G75*
G02*
X188750000Y-52380000I-100000J0D01*
G01*
X188750000Y-52380000D02*
G75*
G02*
X188950000Y-52380000I100000J0D01*
G01*
D12*
%TO.C,J1*%
X220780000Y-101760000D02*
X230820000Y-101760000D01*
X220780000Y-117240000D02*
X220780000Y-101760000D01*
X220780000Y-117240000D02*
X230820000Y-117240000D01*
X223800000Y-117240000D02*
X223800000Y-101760000D01*
X224689000Y-103236000D02*
X224733000Y-103280000D01*
X224689000Y-108316000D02*
X224733000Y-108360000D01*
X224916000Y-103009000D02*
X224960000Y-103053000D01*
X224916000Y-108089000D02*
X224960000Y-108133000D01*
X227240000Y-105787000D02*
X227283000Y-105831000D01*
X227240000Y-110867000D02*
X227283000Y-110911000D01*
X227467000Y-105560000D02*
X227510000Y-105604000D01*
X227467000Y-110640000D02*
X227510000Y-110684000D01*
X228700000Y-117240000D02*
X228700000Y-101760000D01*
X230200000Y-117240000D02*
X230200000Y-101760000D01*
X230820000Y-114280000D02*
X230820000Y-101760000D01*
X230820000Y-117240000D02*
X230820000Y-114880000D01*
X224320000Y-115120000D02*
G75*
G02*
X224319794Y-114040679I1780000J540000D01*
G01*
X225560000Y-112800000D02*
G75*
G02*
X226639321Y-112799794I540000J-1780013D01*
G01*
X226640000Y-116360000D02*
G75*
G02*
X225560679Y-116360206I-540000J1780000D01*
G01*
X227880000Y-114040000D02*
G75*
G02*
X227880206Y-115119321I-1780013J-540000D01*
G01*
X227960000Y-104420000D02*
G75*
G02*
X224240000Y-104420000I-1860000J0D01*
G01*
X224240000Y-104420000D02*
G75*
G02*
X227960000Y-104420000I1860000J0D01*
G01*
X227960000Y-109500000D02*
G75*
G02*
X224240000Y-109500000I-1860000J0D01*
G01*
X224240000Y-109500000D02*
G75*
G02*
X227960000Y-109500000I1860000J0D01*
G01*
X231430000Y-115020000D02*
X230820000Y-114580000D01*
X231430000Y-114140000D01*
X231430000Y-115020000D01*
G36*
X231430000Y-115020000D02*
G01*
X230820000Y-114580000D01*
X231430000Y-114140000D01*
X231430000Y-115020000D01*
G37*
%TO.C,J3*%
X226670000Y-67550000D02*
X228000000Y-67550000D01*
X226670000Y-68880000D02*
X226670000Y-67550000D01*
X226670000Y-70150000D02*
X226670000Y-77830000D01*
X226670000Y-70150000D02*
X229330000Y-70150000D01*
X226670000Y-77830000D02*
X229330000Y-77830000D01*
X229330000Y-70150000D02*
X229330000Y-77830000D01*
D13*
%TO.C,K1*%
X197550000Y-101670000D02*
X216650000Y-101670000D01*
X197550000Y-117170000D02*
X197550000Y-101670000D01*
X216650000Y-101670000D02*
X216650000Y-117170000D01*
X216650000Y-117170000D02*
X197550000Y-117170000D01*
D15*
X197000000Y-103301000D02*
G75*
G02*
X196800000Y-103301000I-100000J0D01*
G01*
X196800000Y-103301000D02*
G75*
G02*
X197000000Y-103301000I100000J0D01*
G01*
D12*
%TO.C,J4*%
X226670000Y-43090000D02*
X228000000Y-43090000D01*
X226670000Y-44420000D02*
X226670000Y-43090000D01*
X226670000Y-45690000D02*
X226670000Y-50830000D01*
X226670000Y-45690000D02*
X229330000Y-45690000D01*
X226670000Y-50830000D02*
X229330000Y-50830000D01*
X229330000Y-45690000D02*
X229330000Y-50830000D01*
%TO.C,R1*%
X173140000Y-108420000D02*
X173910000Y-108420000D01*
X173910000Y-107050000D02*
X173910000Y-109790000D01*
X173910000Y-109790000D02*
X180450000Y-109790000D01*
X180450000Y-107050000D02*
X173910000Y-107050000D01*
X180450000Y-109790000D02*
X180450000Y-107050000D01*
X181220000Y-108420000D02*
X180450000Y-108420000D01*
%TO.C,U2*%
X224840000Y-81280000D02*
X224840000Y-83280000D01*
X224840000Y-81280000D02*
X226450000Y-81280000D01*
X225120000Y-93820000D02*
X225120000Y-81570000D01*
X225130000Y-81560000D02*
X230870000Y-81560000D01*
X230880000Y-81560000D02*
X230880000Y-93820000D01*
X230880000Y-93820000D02*
X225120000Y-93820000D01*
%TO.C,R2*%
X173140000Y-112420000D02*
X173910000Y-112420000D01*
X173910000Y-111050000D02*
X173910000Y-113790000D01*
X173910000Y-113790000D02*
X180450000Y-113790000D01*
X180450000Y-111050000D02*
X173910000Y-111050000D01*
X180450000Y-113790000D02*
X180450000Y-111050000D01*
X181220000Y-112420000D02*
X180450000Y-112420000D01*
%TO.C,J2*%
X226670000Y-54090000D02*
X228000000Y-54090000D01*
X226670000Y-55420000D02*
X226670000Y-54090000D01*
X226670000Y-56690000D02*
X226670000Y-64370000D01*
X226670000Y-56690000D02*
X229330000Y-56690000D01*
X226670000Y-64370000D02*
X229330000Y-64370000D01*
X229330000Y-56690000D02*
X229330000Y-64370000D01*
D13*
%TO.C,J5*%
X152750000Y-85770000D02*
X152750000Y-94770000D01*
X152750000Y-94770000D02*
X160460000Y-94770000D01*
X166140000Y-94770000D02*
X167370000Y-94770000D01*
X167370000Y-85770000D02*
X152750000Y-85770000D01*
X167370000Y-88050000D02*
X167370000Y-85770000D01*
X167370000Y-94770000D02*
X167370000Y-92490000D01*
D14*
X168650000Y-90270000D02*
G75*
G02*
X168450000Y-90270000I-100000J0D01*
G01*
X168450000Y-90270000D02*
G75*
G02*
X168650000Y-90270000I100000J0D01*
G01*
D12*
%TO.C,Brd1*%
X158000000Y-52000000D02*
X185400000Y-52000000D01*
X158000000Y-79300000D02*
X158000000Y-52000000D01*
X158538000Y-59380000D02*
X158538000Y-76017000D01*
X158538000Y-76017000D02*
X158792000Y-76005000D01*
X161878000Y-59405000D02*
X158538000Y-59380000D01*
X161878000Y-59405000D02*
X184978000Y-59405000D01*
X161878000Y-76005000D02*
X158792000Y-76005000D01*
X166920000Y-76398000D02*
X176699000Y-76398000D01*
X166920000Y-78811000D02*
X166920000Y-76398000D01*
X176699000Y-78811000D02*
X166920000Y-78811000D01*
X176699000Y-78811000D02*
X176699000Y-76398000D01*
X184978000Y-59405000D02*
X184978000Y-76005000D01*
X184978000Y-76005000D02*
X161878000Y-76005000D01*
X185400000Y-52000000D02*
X185400000Y-79300000D01*
X185400000Y-79300000D02*
X158000000Y-79300000D01*
%TD*%
M02*
