%TF.GenerationSoftware,KiCad,Pcbnew,9.0.0*%
%TF.CreationDate,2025-04-25T09:10:44+07:00*%
%TF.ProjectId,Final_Project_PCB,46696e61-6c5f-4507-926f-6a6563745f50,rev?*%
%TF.SameCoordinates,Original*%
%TF.FileFunction,Soldermask,Bot*%
%TF.FilePolarity,Negative*%
%FSLAX46Y46*%
G04 Gerber Fmt 4.6, Leading zero omitted, Abs format (unit mm)*
G04 Created by KiCad (PCBNEW 9.0.0) date 2025-04-25 09:10:44*
%MOMM*%
%LPD*%
G01*
G04 APERTURE LIST*
G04 Aperture macros list*
%AMRoundRect*
0 Rectangle with rounded corners*
0 $1 Rounding radius*
0 $2 $3 $4 $5 $6 $7 $8 $9 X,Y pos of 4 corners*
0 Add a 4 corners polygon primitive as box body*
4,1,4,$2,$3,$4,$5,$6,$7,$8,$9,$2,$3,0*
0 Add four circle primitives for the rounded corners*
1,1,$1+$1,$2,$3*
1,1,$1+$1,$4,$5*
1,1,$1+$1,$6,$7*
1,1,$1+$1,$8,$9*
0 Add four rect primitives between the rounded corners*
20,1,$1+$1,$2,$3,$4,$5,0*
20,1,$1+$1,$4,$5,$6,$7,0*
20,1,$1+$1,$6,$7,$8,$9,0*
20,1,$1+$1,$8,$9,$2,$3,0*%
G04 Aperture macros list end*
%ADD10C,5.500000*%
%ADD11R,1.500000X1.050000*%
%ADD12O,1.500000X1.050000*%
%ADD13R,2.200000X2.200000*%
%ADD14O,2.200000X2.200000*%
%ADD15R,1.800000X1.800000*%
%ADD16C,1.800000*%
%ADD17RoundRect,0.250000X1.050000X-1.050000X1.050000X1.050000X-1.050000X1.050000X-1.050000X-1.050000X0*%
%ADD18C,2.600000*%
%ADD19R,1.700000X1.700000*%
%ADD20O,1.700000X1.700000*%
%ADD21R,1.980000X1.980000*%
%ADD22C,1.980000*%
%ADD23C,1.935000*%
%ADD24C,1.600000*%
%ADD25O,1.600000X1.600000*%
%ADD26R,1.500000X1.500000*%
%ADD27C,1.500000*%
%ADD28O,1.900000X3.800000*%
%ADD29O,3.800000X1.900000*%
%ADD30O,1.600000X2.000000*%
%ADD31C,3.000000*%
%ADD32R,2.000000X2.000000*%
%ADD33C,2.000000*%
G04 APERTURE END LIST*
D10*
%TO.C,H3*%
X154000000Y-124000000D03*
%TD*%
D11*
%TO.C,Q1*%
X179100000Y-98960000D03*
D12*
X179100000Y-97690000D03*
X179100000Y-96420000D03*
%TD*%
D13*
%TO.C,D1*%
X190100000Y-104260000D03*
D14*
X190100000Y-114420000D03*
%TD*%
D15*
%TO.C,D2*%
X188100000Y-121960000D03*
D16*
X188100000Y-119420000D03*
%TD*%
D10*
%TO.C,H4*%
X154000000Y-39000000D03*
%TD*%
%TO.C,H1*%
X236000000Y-39000000D03*
%TD*%
D17*
%TO.C,J1*%
X226100000Y-114580000D03*
D18*
X226100000Y-109500000D03*
X226100000Y-104420000D03*
%TD*%
D19*
%TO.C,J3*%
X228000000Y-41460000D03*
D20*
X228000000Y-44000000D03*
X228000000Y-46540000D03*
X228000000Y-49080000D03*
%TD*%
D21*
%TO.C,K1*%
X201000000Y-103420000D03*
D22*
X201000000Y-115420000D03*
D23*
X199000000Y-109420000D03*
D22*
X213200000Y-103420000D03*
X213200000Y-115420000D03*
%TD*%
D19*
%TO.C,J4*%
X228000000Y-69460000D03*
D20*
X228000000Y-72000000D03*
X228000000Y-74540000D03*
%TD*%
D24*
%TO.C,R1*%
X182260000Y-108420000D03*
D25*
X172100000Y-108420000D03*
%TD*%
D26*
%TO.C,U2*%
X228000000Y-83880000D03*
D27*
X228000000Y-86420000D03*
X228000000Y-88960000D03*
X228000000Y-91500000D03*
%TD*%
D10*
%TO.C,H2*%
X236000000Y-124000000D03*
%TD*%
D24*
%TO.C,R2*%
X172100000Y-112420000D03*
D25*
X182260000Y-112420000D03*
%TD*%
D19*
%TO.C,J2*%
X228000000Y-55420000D03*
D20*
X228000000Y-57960000D03*
X228000000Y-60500000D03*
X228000000Y-63040000D03*
%TD*%
D28*
%TO.C,J5*%
X166600000Y-90270000D03*
X160670000Y-90270000D03*
D29*
X163000000Y-95000000D03*
%TD*%
D30*
%TO.C,Brd1*%
X175620000Y-77600000D03*
X173080000Y-77600000D03*
X170540000Y-77600000D03*
X168000000Y-77600000D03*
%TD*%
D31*
%TO.C,U1*%
X191420000Y-44420000D03*
X191420000Y-91370000D03*
X215930000Y-44420000D03*
X215930000Y-91370000D03*
D32*
X191000000Y-52380000D03*
D33*
X191000000Y-54920000D03*
X191000000Y-57460000D03*
X191000000Y-60000000D03*
X191000000Y-62540000D03*
X191000000Y-65080000D03*
X191000000Y-67620000D03*
X191000000Y-70160000D03*
X191000000Y-72700000D03*
X191000000Y-75240000D03*
X191000000Y-77780000D03*
X191000000Y-80320000D03*
X191000000Y-82860000D03*
X191000000Y-85400000D03*
X191000000Y-87940000D03*
X216400000Y-87940000D03*
X216400000Y-85400000D03*
X216400000Y-82860000D03*
X216400000Y-80320000D03*
X216400000Y-77780000D03*
X216400000Y-75240000D03*
X216400000Y-72700000D03*
X216400000Y-70160000D03*
X216400000Y-67620000D03*
X216400000Y-65080000D03*
X216400000Y-62540000D03*
X216400000Y-60000000D03*
X216400000Y-57460000D03*
X216400000Y-54920000D03*
X216400000Y-52380000D03*
%TD*%
M02*
